<?xml version="1.0" encoding="UTF-8" standalone="no"?>
<!-- Created with Inkscape (http://www.inkscape.org/) -->

<svg
   width="152.39999mm"
   height="128.5mm"
   viewBox="0 0 152.4 128.5"
   version="1.1"
   id="svg5"
   inkscape:version="1.1.1 (3bf5ae0d25, 2021-09-20)"
   sodipodi:docname="Knot.svg"
   xmlns:inkscape="http://www.inkscape.org/namespaces/inkscape"
   xmlns:sodipodi="http://sodipodi.sourceforge.net/DTD/sodipodi-0.dtd"
   xmlns="http://www.w3.org/2000/svg"
   xmlns:svg="http://www.w3.org/2000/svg">
  <sodipodi:namedview
     id="namedview7"
     pagecolor="#ffffff"
     bordercolor="#666666"
     borderopacity="1.0"
     inkscape:pageshadow="2"
     inkscape:pageopacity="0.0"
     inkscape:pagecheckerboard="0"
     inkscape:document-units="mm"
     showgrid="false"
     inkscape:zoom="1.1655381"
     inkscape:cx="288.70785"
     inkscape:cy="249.2411"
     inkscape:window-width="1920"
     inkscape:window-height="1009"
     inkscape:window-x="1912"
     inkscape:window-y="-8"
     inkscape:window-maximized="1"
     inkscape:current-layer="layer1"
     width="152.4mm"
     showguides="true"
     inkscape:guide-bbox="true">
    <sodipodi:guide
       position="82.511288,117.39504"
       orientation="0,-1"
       id="guide36922" />
  </sodipodi:namedview>
  <defs
     id="defs2">
    <inkscape:path-effect
       effect="fillet_chamfer"
       id="path-effect34466"
       is_visible="true"
       lpeversion="1"
       satellites_param="F,0,0,1,0,0.13229167,0,1 @ F,0,0,1,0,0.13229167,0,1 @ F,0,0,1,0,0.13229167,0,1 @ F,0,0,1,0,0.13229167,0,1"
       unit="px"
       method="auto"
       mode="F"
       radius="0.5"
       chamfer_steps="1"
       flexible="false"
       use_knot_distance="true"
       apply_no_radius="true"
       apply_with_radius="true"
       only_selected="false"
       hide_knots="false" />
    <inkscape:path-effect
       effect="fillet_chamfer"
       id="path-effect9378"
       is_visible="true"
       lpeversion="1"
       satellites_param="F,0,0,1,0,1.5875,0,1 @ F,0,0,1,0,1.5875,0,1 @ F,0,0,1,0,1.5875,0,1 @ F,0,0,1,0,1.5875,0,1"
       unit="px"
       method="auto"
       mode="F"
       radius="6"
       chamfer_steps="1"
       flexible="false"
       use_knot_distance="true"
       apply_no_radius="true"
       apply_with_radius="true"
       only_selected="false"
       hide_knots="false" />
    <inkscape:path-effect
       effect="fillet_chamfer"
       id="path-effect24329"
       is_visible="true"
       lpeversion="1"
       satellites_param="F,0,0,1,0,0.52916667,0,1 @ F,0,0,1,0,0.52916667,0,1 @ F,0,0,1,0,0.52916667,0,1 @ F,0,0,1,0,0.52916667,0,1"
       unit="px"
       method="auto"
       mode="F"
       radius="2"
       chamfer_steps="1"
       flexible="false"
       use_knot_distance="true"
       apply_no_radius="true"
       apply_with_radius="true"
       only_selected="false"
       hide_knots="false" />
    <inkscape:path-effect
       effect="fillet_chamfer"
       id="path-effect24155"
       is_visible="true"
       lpeversion="1"
       satellites_param="F,0,0,1,0,0.52916667,0,1 @ F,0,0,1,0,0.52916667,0,1 @ F,0,0,1,0,0.52916667,0,1 @ F,0,0,1,0,0.52916667,0,1"
       unit="px"
       method="auto"
       mode="F"
       radius="2"
       chamfer_steps="1"
       flexible="false"
       use_knot_distance="true"
       apply_no_radius="true"
       apply_with_radius="true"
       only_selected="false"
       hide_knots="false" />
    <inkscape:path-effect
       effect="fillet_chamfer"
       id="path-effect11279"
       is_visible="true"
       lpeversion="1"
       satellites_param="F,0,0,1,0,1.5875,0,1 @ F,0,0,1,0,1.5875,0,1 @ F,0,0,1,0,1.5875,0,1 @ F,0,0,1,0,1.5875,0,1"
       unit="px"
       method="auto"
       mode="F"
       radius="6"
       chamfer_steps="1"
       flexible="false"
       use_knot_distance="true"
       apply_no_radius="true"
       apply_with_radius="true"
       only_selected="false"
       hide_knots="false" />
    <inkscape:path-effect
       effect="fillet_chamfer"
       id="path-effect5897"
       is_visible="true"
       lpeversion="1"
       satellites_param="F,0,0,1,0,0.52916667,0,1 @ F,0,0,1,0,0.52916667,0,1 @ F,0,0,1,0,0.52916667,0,1 @ F,0,0,1,0,0.52916667,0,1"
       unit="px"
       method="auto"
       mode="F"
       radius="2"
       chamfer_steps="1"
       flexible="false"
       use_knot_distance="true"
       apply_no_radius="true"
       apply_with_radius="true"
       only_selected="false"
       hide_knots="false" />
  </defs>
  <g
     inkscape:groupmode="layer"
     id="layer5"
     inkscape:label="background"
     style="display:inline">
    <rect
       style="display:inline;fill:#0b2027;fill-opacity:1;stroke-width:0.450825"
       id="rect846"
       width="152.39999"
       height="128.5"
       x="0"
       y="-2.7755576e-17" />
    <text
       xml:space="preserve"
       style="font-size:3.52777px;line-height:1.25;font-family:Arial;-inkscape-font-specification:Arial;stroke-width:0.264583"
       x="76.108833"
       y="85.196457"
       id="text2188"><tspan
         sodipodi:role="line"
         id="tspan2186"
         style="stroke-width:0.264583"
         x="76.108833"
         y="85.196457" /></text>
    <text
       xml:space="preserve"
       style="font-size:3.52777px;line-height:1.25;font-family:Arial;-inkscape-font-specification:Arial;stroke-width:0.264583"
       x="78.897079"
       y="89.017387"
       id="text14680"><tspan
         sodipodi:role="line"
         id="tspan14678"
         style="stroke-width:0.264583"
         x="78.897079"
         y="89.017387" /></text>
    <path
       style="fill:none;stroke:#9bc1bc;stroke-width:0.8;stroke-linecap:round;stroke-miterlimit:4;stroke-dasharray:none;stroke-opacity:1"
       id="rect9332"
       width="62.59124"
       height="18.194712"
       x="36.429733"
       y="5.3758059"
       sodipodi:type="rect"
       d="m 38.017233,5.3758059 h 59.41624 a 1.5875,1.5875 45 0 1 1.5875,1.5875 V 21.983018 a 1.5875,1.5875 135 0 1 -1.5875,1.5875 h -59.41624 a 1.5875,1.5875 45 0 1 -1.5875,-1.5875 V 6.9633059 a 1.5875,1.5875 135 0 1 1.5875,-1.5875 z"
       inkscape:path-effect="#path-effect9378" />
    <g
       aria-label="Pattern"
       id="text57582"
       style="font-weight:bold;font-size:3.52777px;line-height:1.25;font-family:Arial;-inkscape-font-specification:'Arial Bold';text-align:center;text-anchor:middle;fill:#9bc1bc;stroke-width:0.264583">
      <path
         d="M 54.725766,11.104961 V 8.5797119 h 0.818208 q 0.465087,0 0.606336,0.037896 0.21704,0.056844 0.363456,0.2480463 0.146417,0.1894799 0.146417,0.4909251 0,0.2325434 -0.08441,0.3910175 -0.0844,0.158474 -0.215318,0.2497688 -0.129191,0.089572 -0.263549,0.1188554 -0.18259,0.03617 -0.528821,0.03617 h -0.332451 v 0.952566 z m 0.509873,-2.0980582 v 0.7165783 h 0.279052 q 0.301445,0 0.403075,-0.039619 0.10163,-0.039618 0.158474,-0.1240231 0.05857,-0.084405 0.05857,-0.1963701 0,-0.1378035 -0.08096,-0.2273758 -0.08096,-0.089572 -0.204983,-0.1119653 -0.09129,-0.017225 -0.366901,-0.017225 z"
         id="path60920" />
      <path
         d="m 57.43705,9.8337239 -0.439249,-0.079237 q 0.07407,-0.2652717 0.254937,-0.39274 0.180867,-0.1274683 0.537434,-0.1274683 0.323838,0 0.482312,0.077514 0.158474,0.075792 0.222208,0.1946475 0.06546,0.117133 0.06546,0.4323585 l -0.0052,0.5649954 q 0,0.241156 0.02239,0.356566 0.02412,0.113688 0.08785,0.244601 h -0.478867 q -0.01895,-0.04823 -0.04651,-0.142971 -0.01206,-0.04306 -0.01723,-0.05684 -0.124023,0.120578 -0.265271,0.180867 -0.141249,0.06029 -0.301445,0.06029 -0.282498,0 -0.446139,-0.153306 -0.161919,-0.153306 -0.161919,-0.387572 0,-0.155029 0.07407,-0.275607 0.07407,-0.122302 0.206705,-0.186036 0.134359,-0.06546 0.38585,-0.113688 0.339341,-0.063734 0.470255,-0.1188551 v -0.048231 q 0,-0.1395261 -0.0689,-0.1980926 -0.0689,-0.060289 -0.260104,-0.060289 -0.129191,0 -0.201538,0.051676 -0.07235,0.049954 -0.117133,0.177422 z m 0.647677,0.3927401 q -0.09302,0.03101 -0.294555,0.07407 -0.201538,0.04306 -0.26355,0.08441 -0.09474,0.06718 -0.09474,0.170532 0,0.10163 0.07579,0.175699 0.07579,0.07407 0.192925,0.07407 0.130914,0 0.249769,-0.08613 0.08785,-0.06546 0.115411,-0.160197 0.01895,-0.06201 0.01895,-0.235989 z"
         id="path60922" />
      <path
         d="m 59.876172,9.2756197 v 0.3858499 h -0.330728 v 0.7372484 q 0,0.223931 0.0086,0.261827 0.01033,0.03617 0.04306,0.06029 0.03445,0.02412 0.08268,0.02412 0.06718,0 0.194648,-0.04651 l 0.04134,0.375515 q -0.168809,0.07235 -0.382405,0.07235 -0.130913,0 -0.235988,-0.04306 -0.105076,-0.04479 -0.155029,-0.113688 -0.04823,-0.07062 -0.06718,-0.18948 -0.0155,-0.08441 -0.0155,-0.341064 V 9.6614696 H 58.837478 V 9.2756197 h 0.222209 V 8.9121629 l 0.485757,-0.2824972 v 0.645954 z"
         id="path60924" />
      <path
         d="m 61.050948,9.2756197 v 0.3858499 h -0.330729 v 0.7372484 q 0,0.223931 0.0086,0.261827 0.01034,0.03617 0.04306,0.06029 0.03445,0.02412 0.08268,0.02412 0.06718,0 0.194647,-0.04651 l 0.04134,0.375515 q -0.168809,0.07235 -0.382405,0.07235 -0.130913,0 -0.235988,-0.04306 -0.105075,-0.04479 -0.155029,-0.113688 -0.04823,-0.07062 -0.06718,-0.18948 -0.0155,-0.08441 -0.0155,-0.341064 V 9.6614696 h -0.22219 V 9.2756197 h 0.222208 V 8.9121629 l 0.485757,-0.2824972 v 0.645954 z"
         id="path60926" />
      <path
         d="m 62.446208,10.522742 0.482312,0.08096 q -0.09302,0.265272 -0.294555,0.404798 -0.199815,0.137803 -0.50126,0.137803 -0.477145,0 -0.706243,-0.31178 -0.180867,-0.249769 -0.180867,-0.630451 0,-0.4547517 0.237711,-0.7114108 0.237711,-0.2583816 0.601168,-0.2583816 0.408242,0 0.644231,0.2704395 0.235989,0.2687168 0.225653,0.8250989 h -1.212671 q 0.0052,0.215318 0.117133,0.335896 0.111966,0.118855 0.279052,0.118855 0.113688,0 0.191203,-0.06201 0.07751,-0.06201 0.117133,-0.199815 z m 0.02756,-0.489203 q -0.0052,-0.2101503 -0.108521,-0.3186706 -0.103352,-0.1102428 -0.251491,-0.1102428 -0.158474,0 -0.261827,0.1154104 -0.103353,0.1154105 -0.10163,0.313503 z"
         id="path60928" />
      <path
         d="M 63.812185,11.104961 H 63.32815 V 9.2756197 h 0.449584 v 0.2601041 q 0.115411,-0.1843122 0.206705,-0.2428787 0.09302,-0.058566 0.210151,-0.058566 0.165364,0 0.31867,0.091295 l -0.149861,0.4220233 q -0.1223,-0.079237 -0.227376,-0.079237 -0.10163,0 -0.172254,0.056844 -0.07062,0.055121 -0.111965,0.2015376 -0.03962,0.146417 -0.03962,0.613226 z"
         id="path60930" />
      <path
         d="m 66.385666,11.104961 h -0.484035 v -0.933618 q 0,-0.296278 -0.03101,-0.3824052 -0.03101,-0.08785 -0.10163,-0.136081 -0.0689,-0.048231 -0.167087,-0.048231 -0.125745,0 -0.225653,0.068902 -0.09991,0.068902 -0.137803,0.1825896 -0.03617,0.1136879 -0.03617,0.4203006 v 0.828543 H 64.718243 V 9.2756197 h 0.449584 v 0.2687169 q 0.239434,-0.310058 0.602891,-0.310058 0.160196,0 0.292832,0.058566 0.132636,0.056844 0.199815,0.1464163 0.0689,0.089572 0.09474,0.2032602 0.02756,0.1136879 0.02756,0.3255608 z"
         id="path60932" />
    </g>
  </g>
  <g
     inkscape:groupmode="layer"
     id="layer3"
     inkscape:label="rainbow"
     style="display:inline">
    <g
       id="g130949"
       transform="translate(-65.457594,0.26417965)"
       style="display:inline">
      <rect
         style="display:inline;fill:#f4f1bb;fill-opacity:1;stroke-width:1.09761;stroke-miterlimit:4;stroke-dasharray:none"
         id="rect93213"
         width="3.5"
         height="131.71765"
         x="226.38889"
         y="-100.11375"
         transform="rotate(45)" />
      <rect
         style="display:inline;fill:#9bc1bc;fill-opacity:1;stroke-width:1.09761;stroke-miterlimit:4;stroke-dasharray:none"
         id="rect93233"
         width="3.5"
         height="131.71765"
         x="229.88889"
         y="-100.11375"
         transform="rotate(45)" />
      <rect
         style="display:inline;fill:#ed6a5a;fill-opacity:1;stroke-width:1.09761;stroke-miterlimit:4;stroke-dasharray:none"
         id="rect93109"
         width="3.5"
         height="131.71765"
         x="222.88844"
         y="-100.11375"
         transform="rotate(45)" />
    </g>
    <path
       id="rect25064"
       style="display:inline;opacity:1;fill:#0b2027;fill-opacity:1;stroke-width:0.799999;stroke-linecap:round"
       d="M 53.240236,2.2743382 H 82.21047 V 7.5616813 H 53.240236 Z" />
  </g>
  <g
     inkscape:label="Panel Graphics"
     inkscape:groupmode="layer"
     id="layer1"
     style="display:inline;opacity:1">
    <path
       style="display:inline;fill:#9bc1bc;fill-opacity:1;stroke-width:0.765;stroke-miterlimit:4;stroke-dasharray:none"
       id="path11275"
       width="23.671289"
       height="79.6175"
       x="123.184"
       y="30.410385"
       inkscape:path-effect="#path-effect11279"
       sodipodi:type="rect"
       d="m 124.7715,30.410385 h 20.49629 a 1.5875,1.5875 45 0 1 1.5875,1.5875 l 0,76.442505 a 1.5875,1.5875 135 0 1 -1.5875,1.5875 l -20.49629,0 a 1.5875,1.5875 45 0 1 -1.5875,-1.5875 V 31.997885 a 1.5875,1.5875 135 0 1 1.5875,-1.5875 z" />
    <g
       aria-label="Daniel Davies"
       id="text158043"
       style="font-size:4.93889px;line-height:1.25;display:inline;stroke-width:0.264583"
       transform="translate(-45.720003,-0.41992)">
      <path
         d="m 106.74159,123.09153 q 0,0.50161 -0.2291,0.89951 -0.22909,0.3955 -0.57877,0.60772 -0.26286,0.15916 -0.57637,0.22186 -0.3135,0.0627 -0.74276,0.0627 h -1.26607 v -3.59082 h 1.30224 q 0.43891,0 0.75724,0.0748 0.31832,0.0724 0.53536,0.20739 0.37139,0.22669 0.5836,0.61254 0.21463,0.38344 0.21463,0.90434 z m -0.95739,-0.007 q 0,-0.3545 -0.13022,-0.6053 -0.12782,-0.25321 -0.40756,-0.3955 -0.14228,-0.0699 -0.2918,-0.094 -0.1471,-0.0265 -0.44614,-0.0265 h -0.23392 v 2.24758 h 0.23392 q 0.33039,0 0.48473,-0.0289 0.15434,-0.0314 0.30144,-0.11093 0.25322,-0.1447 0.37138,-0.38586 0.11817,-0.24356 0.11817,-0.60048 z"
         style="fill:#ed6a5a"
         id="path170552" />
      <path
         d="m 109.03982,124.17673 v -0.5643 q -0.17605,0.0145 -0.38103,0.041 -0.20498,0.0241 -0.31109,0.0579 -0.13023,0.041 -0.20016,0.12058 -0.0675,0.0772 -0.0675,0.20498 0,0.0844 0.0145,0.13746 0.0145,0.0531 0.0724,0.10129 0.0555,0.0482 0.13264,0.0724 0.0772,0.0217 0.24115,0.0217 0.13023,0 0.26286,-0.053 0.13505,-0.0531 0.23634,-0.13988 z m 0,0.41962 q -0.0699,0.053 -0.17364,0.12781 -0.10369,0.0748 -0.19533,0.11817 -0.12782,0.0579 -0.26528,0.0844 -0.13745,0.0289 -0.30144,0.0289 -0.38585,0 -0.6463,-0.23874 -0.26045,-0.23875 -0.26045,-0.61013 0,-0.29662 0.13264,-0.48473 0.13263,-0.1881 0.3762,-0.29662 0.24116,-0.10852 0.59807,-0.15434 0.35691,-0.0458 0.74035,-0.0675 v -0.0145 q 0,-0.22428 -0.18328,-0.30868 -0.18328,-0.0868 -0.54019,-0.0868 -0.21463,0 -0.4582,0.0772 -0.24357,0.0748 -0.34968,0.11576 h -0.0796 v -0.65354 q 0.13746,-0.0362 0.44614,-0.0844 0.3111,-0.0507 0.62219,-0.0507 0.74035,0 1.06832,0.2291 0.33039,0.22669 0.33039,0.71383 v 1.84243 h -0.86093 z"
         style="fill:#ed6a5a"
         id="path170554" />
      <path
         d="m 113.41922,124.88332 h -0.87298 v -1.34324 q 0,-0.16399 -0.0169,-0.32556 -0.0169,-0.16399 -0.0579,-0.24116 -0.0482,-0.0892 -0.14229,-0.13022 -0.0916,-0.041 -0.25803,-0.041 -0.11817,0 -0.24116,0.0386 -0.12058,0.0386 -0.26286,0.12299 v 1.9196 h -0.86816 v -2.70819 h 0.86816 v 0.29904 q 0.23151,-0.18087 0.44373,-0.27733 0.21463,-0.0965 0.47508,-0.0965 0.4389,0 0.68488,0.25563 0.24839,0.25563 0.24839,0.76447 z"
         style="fill:#ed6a5a"
         id="path170556" />
      <path
         d="m 115.08562,124.88332 h -0.86817 v -2.70819 h 0.86817 z m 0.0241,-3.09404 h -0.91639 v -0.65836 h 0.91639 z"
         style="fill:#ed6a5a"
         id="path170558" />
      <path
         d="m 118.57274,123.6896 h -1.98713 q 0.0193,0.31832 0.24116,0.48713 0.22427,0.16881 0.65836,0.16881 0.27491,0 0.53295,-0.0989 0.25804,-0.0989 0.40756,-0.21222 h 0.0965 v 0.69694 q -0.29421,0.11817 -0.55466,0.17123 -0.26045,0.053 -0.57637,0.053 -0.81511,0 -1.24919,-0.36656 -0.43408,-0.36656 -0.43408,-1.04421 0,-0.67041 0.40997,-1.06109 0.41237,-0.39308 1.12861,-0.39308 0.66077,0 0.99357,0.33521 0.33279,0.33279 0.33279,0.9598 z m -0.86334,-0.50884 q -0.007,-0.27251 -0.13505,-0.40997 -0.12781,-0.13746 -0.3979,-0.13746 -0.25081,0 -0.41238,0.13023 -0.16158,0.13022 -0.18087,0.4172 z"
         style="fill:#ed6a5a"
         id="path170560" />
      <path
         d="m 120.05345,124.88332 h -0.86817 v -3.7524 h 0.86817 z"
         style="fill:#ed6a5a"
         id="path170562" />
      <path
         d="m 126.00278,123.09153 q 0,0.50161 -0.2291,0.89951 -0.2291,0.3955 -0.57877,0.60772 -0.26286,0.15916 -0.57637,0.22186 -0.3135,0.0627 -0.74276,0.0627 h -1.26607 v -3.59082 h 1.30224 q 0.43891,0 0.75723,0.0748 0.31833,0.0724 0.53537,0.20739 0.37138,0.22669 0.5836,0.61254 0.21463,0.38344 0.21463,0.90434 z m -0.95739,-0.007 q 0,-0.3545 -0.13023,-0.6053 -0.12781,-0.25321 -0.40755,-0.3955 -0.14228,-0.0699 -0.2918,-0.094 -0.14711,-0.0265 -0.44614,-0.0265 h -0.23392 v 2.24758 h 0.23392 q 0.33038,0 0.48473,-0.0289 0.15434,-0.0314 0.30144,-0.11093 0.25322,-0.1447 0.37138,-0.38586 0.11817,-0.24356 0.11817,-0.60048 z"
         style="fill:#9bc1bc"
         id="path170564" />
      <path
         d="m 128.30101,124.17673 v -0.5643 q -0.17605,0.0145 -0.38103,0.041 -0.20499,0.0241 -0.31109,0.0579 -0.13023,0.041 -0.20016,0.12058 -0.0675,0.0772 -0.0675,0.20498 0,0.0844 0.0145,0.13746 0.0145,0.0531 0.0724,0.10129 0.0555,0.0482 0.13263,0.0724 0.0772,0.0217 0.24116,0.0217 0.13023,0 0.26286,-0.053 0.13505,-0.0531 0.23634,-0.13988 z m 0,0.41962 q -0.0699,0.053 -0.17364,0.12781 -0.10369,0.0748 -0.19533,0.11817 -0.12782,0.0579 -0.26528,0.0844 -0.13746,0.0289 -0.30144,0.0289 -0.38585,0 -0.6463,-0.23874 -0.26045,-0.23875 -0.26045,-0.61013 0,-0.29662 0.13263,-0.48473 0.13264,-0.1881 0.37621,-0.29662 0.24116,-0.10852 0.59807,-0.15434 0.35691,-0.0458 0.74035,-0.0675 v -0.0145 q 0,-0.22428 -0.18328,-0.30868 -0.18328,-0.0868 -0.54019,-0.0868 -0.21463,0 -0.4582,0.0772 -0.24357,0.0748 -0.34968,0.11576 h -0.0796 v -0.65354 q 0.13746,-0.0362 0.44614,-0.0844 0.31109,-0.0507 0.62219,-0.0507 0.74035,0 1.06832,0.2291 0.33038,0.22669 0.33038,0.71383 v 1.84243 h -0.86092 z"
         style="fill:#9bc1bc"
         id="path170566" />
      <path
         d="m 132.68765,122.17513 -1.04421,2.70819 h -0.98392 l -1.03698,-2.70819 h 0.91881 l 0.62701,1.86173 0.61977,-1.86173 z"
         style="fill:#9bc1bc"
         id="path170568" />
      <path
         d="m 134.03812,124.88332 h -0.86816 v -2.70819 h 0.86816 z m 0.0241,-3.09404 h -0.9164 v -0.65836 h 0.9164 z"
         style="fill:#9bc1bc"
         id="path170570" />
      <path
         d="m 137.52525,123.6896 h -1.98713 q 0.0193,0.31832 0.24115,0.48713 0.22428,0.16881 0.65836,0.16881 0.27492,0 0.53296,-0.0989 0.25804,-0.0989 0.40755,-0.21222 h 0.0965 v 0.69694 q -0.29421,0.11817 -0.55466,0.17123 -0.26045,0.053 -0.57637,0.053 -0.81511,0 -1.24919,-0.36656 -0.43408,-0.36656 -0.43408,-1.04421 0,-0.67041 0.40996,-1.06109 0.41238,-0.39308 1.12862,-0.39308 0.66077,0 0.99356,0.33521 0.3328,0.33279 0.3328,0.9598 z m -0.86334,-0.50884 q -0.007,-0.27251 -0.13505,-0.40997 -0.12781,-0.13746 -0.39791,-0.13746 -0.2508,0 -0.41238,0.13023 -0.16157,0.13022 -0.18086,0.4172 z"
         style="fill:#9bc1bc"
         id="path170572" />
      <path
         d="m 140.49148,124.02481 q 0,0.41961 -0.37621,0.67765 -0.3762,0.25562 -1.02974,0.25562 -0.36173,0 -0.65594,-0.0675 -0.29421,-0.0675 -0.47267,-0.14952 v -0.71382 h 0.0796 q 0.0651,0.0458 0.14952,0.10128 0.0868,0.0531 0.24357,0.11576 0.13505,0.0555 0.30627,0.0965 0.17122,0.0386 0.36655,0.0386 0.25563,0 0.37862,-0.0555 0.12299,-0.0579 0.12299,-0.16881 0,-0.0989 -0.0724,-0.14228 -0.0723,-0.0458 -0.27491,-0.0868 -0.0965,-0.0217 -0.26287,-0.0458 -0.16398,-0.0265 -0.29903,-0.0627 -0.36897,-0.0965 -0.54743,-0.29903 -0.17845,-0.20499 -0.17845,-0.50884 0,-0.39068 0.36897,-0.64872 0.37138,-0.26045 1.01286,-0.26045 0.30385,0 0.58118,0.0627 0.27975,0.0603 0.4365,0.13022 v 0.68489 h -0.0748 q -0.19293,-0.13264 -0.44132,-0.21463 -0.24598,-0.0844 -0.49919,-0.0844 -0.20981,0 -0.3545,0.0579 -0.14229,0.0579 -0.14229,0.16399 0,0.0965 0.0651,0.1471 0.0651,0.0506 0.30627,0.10129 0.13263,0.0265 0.28456,0.053 0.15434,0.0241 0.30868,0.0627 0.34244,0.0892 0.50643,0.28216 0.16399,0.19051 0.16399,0.47749 z"
         style="fill:#9bc1bc"
         id="path170574" />
    </g>
    <g
       aria-label="Knot"
       id="text28564"
       style="font-weight:bold;font-size:10.5833px;line-height:1.25;font-family:Arial;-inkscape-font-specification:'Arial Bold';text-align:center;text-anchor:middle;fill:#ed6a5a;stroke-width:0.264583">
      <path
         d="m 5.762419,18.199018 v -7.57574 h 1.5296175 v 3.364125 l 3.0902405,-3.364125 h 2.056716 l -2.8525302,2.950715 3.0075592,4.625025 H 10.614821 L 8.5322669,14.643691 7.2920365,15.90976 v 2.289258 z"
         id="path38356" />
      <path
         d="m 18.366261,18.199018 h -1.452103 v -2.800853 q 0,-0.888832 -0.09302,-1.147213 -0.09302,-0.263549 -0.30489,-0.408243 -0.206705,-0.144693 -0.501259,-0.144693 -0.377237,0 -0.67696,0.206705 -0.299722,0.206705 -0.41341,0.547768 -0.10852,0.341063 -0.10852,1.260901 v 2.485628 h -1.452103 v -5.488019 h 1.348751 v 0.80615 q 0.7183,-0.930173 1.808669,-0.930173 0.480589,0 0.878497,0.175699 0.397907,0.170532 0.599444,0.439248 0.206705,0.268717 0.28422,0.60978 0.08268,0.341064 0.08268,0.976682 z"
         id="path38358" />
      <path
         d="m 19.503139,15.377494 q 0,-0.723467 0.356566,-1.400427 0.356566,-0.676959 1.007687,-1.033525 0.656289,-0.356566 1.462439,-0.356566 1.245398,0 2.041212,0.811317 0.795815,0.80615 0.795815,2.041213 0,1.245398 -0.80615,2.06705 -0.800982,0.816486 -2.020542,0.816486 -0.754474,0 -1.441768,-0.341064 -0.682127,-0.341063 -1.038693,-0.997352 -0.356566,-0.661456 -0.356566,-1.607132 z m 1.488276,0.07752 q 0,0.816485 0.387572,1.250565 0.387572,0.434081 0.956011,0.434081 0.568439,0 0.950843,-0.434081 0.387572,-0.43408 0.387572,-1.260901 0,-0.806149 -0.387572,-1.24023 -0.382404,-0.434081 -0.950843,-0.434081 -0.568439,0 -0.956011,0.434081 -0.387572,0.434081 -0.387572,1.250566 z"
         id="path38360" />
      <path
         d="m 28.82037,12.710999 v 1.157548 h -0.992184 v 2.211745 q 0,0.671791 0.02584,0.785479 0.03101,0.10852 0.129191,0.180867 0.103352,0.07235 0.248046,0.07235 0.201537,0 0.583942,-0.139525 l 0.124023,1.126542 q -0.506428,0.217041 -1.147213,0.217041 -0.39274,0 -0.707965,-0.129191 -0.315226,-0.134358 -0.465087,-0.341064 -0.144693,-0.211872 -0.201537,-0.568438 -0.04651,-0.253214 -0.04651,-1.023191 v -2.392611 h -0.666624 v -1.157548 h 0.666624 V 11.62063 l 1.457271,-0.847491 v 1.93786 z"
         id="path38362" />
    </g>
    <g
       aria-label="1/2"
       id="text40365"
       style="font-weight:bold;font-size:3.52777px;line-height:1.25;font-family:Arial;-inkscape-font-specification:'Arial Bold';text-align:center;text-anchor:middle;stroke-width:0.264583"
       transform="translate(0,4.7625002)">
      <path
         d="M 8.8819334,28.721447 H 8.3978986 v -1.824174 q -0.2652718,0.248046 -0.6252835,0.366902 v -0.439249 q 0.1894798,-0.06201 0.411688,-0.234266 0.2222082,-0.173977 0.3048903,-0.404798 h 0.39274 z"
         style="fill:#9bc1bc"
         id="path77492" />
      <path
         d="m 9.450373,28.764511 0.625283,-2.611377 h 0.363457 l -0.6321734,2.611377 z"
         style="fill:#9bc1bc"
         id="path77494" />
      <path
         d="m 12.220224,28.271863 v 0.449584 h -1.696706 q 0.02756,-0.254937 0.165364,-0.482312 0.137804,-0.229099 0.544324,-0.606336 0.327283,-0.30489 0.401353,-0.41341 0.09991,-0.149862 0.09991,-0.296278 0,-0.161919 -0.08785,-0.248046 -0.08613,-0.08785 -0.239433,-0.08785 -0.151584,0 -0.241156,0.09129 -0.08957,0.0913 -0.103353,0.303168 l -0.482312,-0.04823 q 0.04306,-0.39963 0.270439,-0.573607 0.227376,-0.173977 0.56844,-0.173977 0.373792,0 0.587387,0.201538 0.213596,0.201538 0.213596,0.50126 0,0.170532 -0.06201,0.325561 -0.06029,0.153306 -0.192925,0.322116 -0.08785,0.111965 -0.316948,0.322115 -0.229098,0.210151 -0.29111,0.279053 -0.06029,0.0689 -0.09819,0.134358 z"
         style="fill:#9bc1bc"
         id="path77496" />
    </g>
    <g
       aria-label="Preset Patterns"
       id="text26300"
       style="font-weight:bold;font-size:3.52777px;line-height:1.25;font-family:Arial;-inkscape-font-specification:'Arial Bold';text-align:center;text-anchor:middle;display:inline;opacity:1;fill:#9bc1bc;stroke-width:0.264583"
       transform="translate(7.2395927)">
      <path
         d="M 47.757882,6.2787204 V 3.7534709 h 0.818208 q 0.465087,0 0.606336,0.037896 0.21704,0.056844 0.363456,0.2480463 0.146417,0.1894799 0.146417,0.4909251 0,0.2325434 -0.0844,0.3910174 -0.08441,0.1584741 -0.215318,0.2497689 -0.129191,0.089572 -0.263549,0.1188555 -0.18259,0.036173 -0.528821,0.036173 H 48.26776 v 0.9525668 z m 0.509873,-2.0980586 v 0.7165783 h 0.279052 q 0.301445,0 0.403075,-0.039619 0.10163,-0.039618 0.158474,-0.1240232 0.05857,-0.084405 0.05857,-0.19637 0,-0.1378035 -0.08096,-0.2273758 -0.08096,-0.089572 -0.204982,-0.1119653 -0.09129,-0.017225 -0.366902,-0.017225 z"
         id="path32350" />
      <path
         d="M 50.570796,6.2787204 H 50.086761 V 4.4493787 h 0.449584 v 0.2601041 q 0.115411,-0.1843122 0.206706,-0.2428787 0.09302,-0.058566 0.21015,-0.058566 0.165364,0 0.318671,0.091295 L 51.12201,4.9213557 q -0.1223,-0.079237 -0.227375,-0.079237 -0.101631,0 -0.172255,0.056844 -0.07062,0.055121 -0.111965,0.2015376 -0.03962,0.1464162 -0.03962,0.6132257 z"
         id="path32352" />
      <path
         d="m 52.539664,5.6965005 0.482312,0.08096 q -0.09302,0.2652718 -0.294555,0.4047978 -0.199815,0.1378035 -0.50126,0.1378035 -0.477145,0 -0.706243,-0.3117804 -0.180867,-0.2497689 -0.180867,-0.6304511 0,-0.4547516 0.237711,-0.7114107 0.237711,-0.2583816 0.601168,-0.2583816 0.408243,0 0.644231,0.2704394 0.235989,0.2687169 0.225654,0.8250986 h -1.212671 q 0.0052,0.215318 0.117133,0.3358961 0.111965,0.1188555 0.279052,0.1188555 0.113688,0 0.191202,-0.062012 0.07751,-0.062012 0.117133,-0.1998151 z m 0.02756,-0.4892025 q -0.0052,-0.2101503 -0.108521,-0.3186706 -0.103352,-0.1102428 -0.251491,-0.1102428 -0.158474,0 -0.261827,0.1154104 -0.103352,0.1154105 -0.10163,0.313503 z"
         id="path32354" />
      <path
         d="m 53.271745,5.7567896 0.485758,-0.074069 q 0.03101,0.1412486 0.125745,0.215318 0.09474,0.072347 0.265272,0.072347 0.187758,0 0.282497,-0.068902 0.06374,-0.048231 0.06374,-0.1291908 0,-0.055122 -0.03445,-0.091295 -0.03617,-0.034451 -0.161919,-0.063734 -0.585665,-0.1291908 -0.742417,-0.2359885 -0.21704,-0.1481388 -0.21704,-0.411688 0,-0.2377111 0.187757,-0.3996302 0.187757,-0.1619192 0.58222,-0.1619192 0.375514,0 0.558104,0.1223007 0.18259,0.1223006 0.251491,0.3617342 l -0.456474,0.084405 q -0.02928,-0.1067977 -0.111965,-0.1636416 -0.08096,-0.056844 -0.232544,-0.056844 -0.191202,0 -0.273884,0.053399 -0.05512,0.037896 -0.05512,0.098185 0,0.051676 0.04823,0.08785 0.06546,0.048231 0.451306,0.136081 0.387573,0.08785 0.540879,0.215318 0.151584,0.1291908 0.151584,0.3600117 0,0.2514914 -0.21015,0.4323585 -0.210151,0.1808671 -0.621839,0.1808671 -0.373792,0 -0.592555,-0.1515838 -0.21704,-0.1515839 -0.28422,-0.411688 z"
         id="path32356" />
      <path
         d="m 56.463619,5.6965005 0.482313,0.08096 q -0.09302,0.2652718 -0.294555,0.4047978 -0.199816,0.1378035 -0.501261,0.1378035 -0.477144,0 -0.706243,-0.3117804 -0.180867,-0.2497689 -0.180867,-0.6304511 0,-0.4547516 0.237711,-0.7114107 0.237711,-0.2583816 0.601168,-0.2583816 0.408243,0 0.644231,0.2704394 0.235989,0.2687169 0.225654,0.8250986 h -1.212671 q 0.0052,0.215318 0.117133,0.3358961 0.111965,0.1188555 0.279052,0.1188555 0.113688,0 0.191202,-0.062012 0.07751,-0.062012 0.117133,-0.1998151 z M 56.49118,5.207298 Q 56.48598,4.9971477 56.38266,4.8886274 56.279307,4.7783846 56.131168,4.7783846 q -0.158474,0 -0.261826,0.1154104 -0.103353,0.1154105 -0.101631,0.313503 z"
         id="path32358" />
      <path
         d="m 58.205111,4.4493787 v 0.3858498 h -0.330728 v 0.7372489 q 0,0.2239307 0.0086,0.2618266 0.01034,0.036173 0.04306,0.060289 0.03445,0.024116 0.08268,0.024116 0.06718,0 0.194648,-0.046509 l 0.04134,0.3755146 q -0.16881,0.072347 -0.382405,0.072347 -0.130913,0 -0.235989,-0.043064 -0.105075,-0.044786 -0.155029,-0.1136879 -0.04823,-0.070624 -0.06718,-0.1894798 -0.0155,-0.084405 -0.0155,-0.3410637 V 4.8352285 H 57.166417 V 4.4493787 h 0.222208 V 4.0859219 l 0.485758,-0.2824972 v 0.645954 z"
         id="path32360" />
      <path
         d="M 59.52458,6.2787204 V 3.7534709 h 0.818208 q 0.465087,0 0.606336,0.037896 0.21704,0.056844 0.363456,0.2480463 0.146417,0.1894799 0.146417,0.4909251 0,0.2325434 -0.0844,0.3910174 -0.0844,0.1584741 -0.215318,0.2497689 -0.129191,0.089572 -0.263549,0.1188555 -0.18259,0.036173 -0.528821,0.036173 h -0.332451 v 0.9525668 z m 0.509873,-2.0980586 v 0.7165783 h 0.279052 q 0.301445,0 0.403075,-0.039619 0.10163,-0.039618 0.158474,-0.1240232 0.05857,-0.084405 0.05857,-0.19637 0,-0.1378035 -0.08096,-0.2273758 -0.08096,-0.089572 -0.204983,-0.1119653 -0.09129,-0.017225 -0.366901,-0.017225 z"
         id="path32362" />
      <path
         d="m 62.235864,5.0074829 -0.439249,-0.079237 q 0.07407,-0.2652718 0.254937,-0.39274 0.180867,-0.1274683 0.537433,-0.1274683 0.323839,0 0.482313,0.077514 0.158474,0.075792 0.222208,0.1946475 0.06546,0.117133 0.06546,0.4323585 l -0.0052,0.5649944 q 0,0.2411562 0.02239,0.3565666 0.02412,0.1136879 0.08785,0.2446013 H 62.98517 q -0.01895,-0.048231 -0.04651,-0.1429712 -0.01206,-0.043064 -0.01723,-0.056844 -0.124023,0.1205781 -0.265271,0.1808671 -0.141249,0.060289 -0.301446,0.060289 -0.282497,0 -0.446139,-0.1533064 -0.161919,-0.1533064 -0.161919,-0.3875724 0,-0.1550289 0.07407,-0.275607 0.07407,-0.1223006 0.206705,-0.1860348 0.134358,-0.065457 0.38585,-0.1136879 0.339341,-0.063734 0.470254,-0.1188555 v -0.048231 q 0,-0.1395261 -0.0689,-0.1980926 -0.0689,-0.060289 -0.260105,-0.060289 -0.12919,0 -0.201537,0.051676 -0.07235,0.049954 -0.117133,0.177422 z M 62.88354,5.400223 q -0.09302,0.031006 -0.294555,0.074069 -0.201537,0.043064 -0.263549,0.084405 -0.09474,0.067179 -0.09474,0.1705319 0,0.10163 0.07579,0.1756994 0.07579,0.074069 0.192925,0.074069 0.130913,0 0.249769,-0.086127 0.08785,-0.065457 0.11541,-0.1601966 0.01895,-0.062011 0.01895,-0.2359885 z"
         id="path32364" />
      <path
         d="m 64.674986,4.4493787 v 0.3858498 h -0.330728 v 0.7372489 q 0,0.2239307 0.0086,0.2618266 0.01034,0.036173 0.04306,0.060289 0.03445,0.024116 0.08268,0.024116 0.06718,0 0.194648,-0.046509 l 0.04134,0.3755146 q -0.168809,0.072347 -0.382405,0.072347 -0.130913,0 -0.235988,-0.043064 -0.105076,-0.044786 -0.155029,-0.1136879 -0.04823,-0.070624 -0.06718,-0.1894798 -0.0155,-0.084405 -0.0155,-0.3410637 V 4.8352285 H 63.636292 V 4.4493787 h 0.222209 V 4.0859219 l 0.485757,-0.2824972 v 0.645954 z"
         id="path32366" />
      <path
         d="m 65.849761,4.4493787 v 0.3858498 h -0.330729 v 0.7372489 q 0,0.2239307 0.0086,0.2618266 0.01033,0.036173 0.04306,0.060289 0.03445,0.024116 0.08268,0.024116 0.06718,0 0.194647,-0.046509 l 0.04134,0.3755146 q -0.168809,0.072347 -0.382405,0.072347 -0.130913,0 -0.235988,-0.043064 -0.105075,-0.044786 -0.155029,-0.1136879 -0.04823,-0.070624 -0.06718,-0.1894798 -0.0155,-0.084405 -0.0155,-0.3410637 V 4.8352285 h -0.22219 V 4.4493787 h 0.222208 V 4.0859219 l 0.485757,-0.2824972 v 0.645954 z"
         id="path32368" />
      <path
         d="m 67.245022,5.6965005 0.482313,0.08096 q -0.09302,0.2652718 -0.294555,0.4047978 -0.199815,0.1378035 -0.501261,0.1378035 -0.477144,0 -0.706243,-0.3117804 -0.180867,-0.2497689 -0.180867,-0.6304511 0,-0.4547516 0.237711,-0.7114107 0.237711,-0.2583816 0.601168,-0.2583816 0.408243,0 0.644232,0.2704394 0.235988,0.2687169 0.225653,0.8250986 h -1.212671 q 0.0052,0.215318 0.117133,0.3358961 0.111965,0.1188555 0.279052,0.1188555 0.113688,0 0.191202,-0.062012 0.07752,-0.062012 0.117133,-0.1998151 z m 0.02756,-0.4892025 q -0.0052,-0.2101503 -0.10852,-0.3186706 -0.103353,-0.1102428 -0.251492,-0.1102428 -0.158474,0 -0.261826,0.1154104 -0.103353,0.1154105 -0.10163,0.313503 z"
         id="path32370" />
      <path
         d="M 68.610999,6.2787204 H 68.126964 V 4.4493787 h 0.449584 v 0.2601041 q 0.115411,-0.1843122 0.206706,-0.2428787 0.09302,-0.058566 0.21015,-0.058566 0.165364,0 0.31867,0.091295 l -0.149861,0.4220232 q -0.1223,-0.079237 -0.227376,-0.079237 -0.10163,0 -0.172254,0.056844 -0.07062,0.055121 -0.111965,0.2015376 -0.03962,0.1464162 -0.03962,0.6132257 z"
         id="path32372" />
      <path
         d="M 71.18448,6.2787204 H 70.700445 V 5.3451015 q 0,-0.2962775 -0.03101,-0.3824047 -0.03101,-0.08785 -0.10163,-0.136081 -0.0689,-0.048231 -0.167087,-0.048231 -0.125745,0 -0.225653,0.068902 -0.09991,0.068902 -0.137803,0.1825897 -0.03617,0.1136879 -0.03617,0.4203007 V 6.2787204 H 69.517057 V 4.4493787 h 0.449584 v 0.2687168 q 0.239434,-0.3100579 0.602891,-0.3100579 0.160196,0 0.292832,0.058566 0.132636,0.056844 0.199815,0.1464163 0.0689,0.089572 0.09474,0.2032602 0.02756,0.1136879 0.02756,0.3255608 z"
         id="path32374" />
      <path
         d="m 71.504874,5.7567896 0.485757,-0.074069 q 0.03101,0.1412486 0.125746,0.215318 0.09474,0.072347 0.265272,0.072347 0.187757,0 0.282497,-0.068902 0.06373,-0.048231 0.06373,-0.1291908 0,-0.055122 -0.03445,-0.091295 Q 72.657256,5.6465467 72.53151,5.6172635 71.945845,5.4880727 71.789094,5.381275 71.572053,5.2331362 71.572053,4.969587 q 0,-0.2377111 0.187757,-0.3996302 0.187758,-0.1619192 0.58222,-0.1619192 0.375515,0 0.558105,0.1223007 0.182589,0.1223006 0.251491,0.3617342 l -0.456474,0.084405 q -0.02928,-0.1067977 -0.111966,-0.1636416 -0.08096,-0.056844 -0.232543,-0.056844 -0.191202,0 -0.273884,0.053399 -0.05512,0.037896 -0.05512,0.098185 0,0.051676 0.04823,0.08785 0.06546,0.048231 0.451307,0.136081 0.387572,0.08785 0.540879,0.215318 0.151584,0.1291908 0.151584,0.3600117 0,0.2514914 -0.210151,0.4323585 -0.21015,0.1808671 -0.621838,0.1808671 -0.373792,0 -0.592555,-0.1515838 -0.217041,-0.1515839 -0.28422,-0.411688 z"
         id="path32376" />
    </g>
    <g
       aria-label="OUT 4"
       id="text48850-4-9-5"
       style="font-weight:bold;font-size:3.52777px;line-height:1.25;font-family:Arial;-inkscape-font-specification:'Arial Bold';text-align:center;text-anchor:middle;display:inline;fill:#0b2027;stroke-width:0.264583;fill-opacity:1">
      <path
         d="m 124.79348,101.48287 q 0,-0.38585 0.11541,-0.64768 0.0861,-0.19293 0.23426,-0.34623 0.14987,-0.15331 0.32729,-0.22738 0.23599,-0.0999 0.54432,-0.0999 0.55811,0 0.89228,0.34623 0.3359,0.34623 0.3359,0.9629 0,0.6115 -0.33246,0.95773 -0.33245,0.34451 -0.88883,0.34451 -0.56327,0 -0.89572,-0.34278 -0.33245,-0.34451 -0.33245,-0.9474 z m 0.52537,-0.0172 q 0,0.42891 0.1981,0.65112 0.19809,0.22049 0.50298,0.22049 0.30489,0 0.49954,-0.21877 0.19637,-0.22048 0.19637,-0.65973 0,-0.43408 -0.19121,-0.64768 -0.18947,-0.21359 -0.5047,-0.21359 -0.31523,0 -0.50815,0.21704 -0.19293,0.21532 -0.19293,0.65112 z"
         id="path54499"
         style="fill:#0b2027;fill-opacity:1" />
      <path
         d="m 127.6374,100.20474 h 0.50987 v 1.3677 q 0,0.32556 0.019,0.42202 0.0327,0.15503 0.15503,0.24977 0.12402,0.093 0.33762,0.093 0.21704,0 0.32728,-0.0879 0.11024,-0.0896 0.13264,-0.21876 0.0224,-0.1292 0.0224,-0.42892 v -1.39698 h 0.50987 v 1.32636 q 0,0.45475 -0.0413,0.64251 -0.0413,0.18775 -0.15331,0.31694 -0.11024,0.1292 -0.29627,0.20671 -0.18604,0.0758 -0.48576,0.0758 -0.36173,0 -0.54949,-0.0827 -0.18604,-0.0844 -0.29456,-0.21704 -0.10852,-0.13436 -0.14297,-0.28078 -0.0499,-0.21704 -0.0499,-0.64078 z"
         id="path54501"
         style="fill:#0b2027;fill-opacity:1" />
      <path
         d="m 130.75693,102.72999 v -2.09806 h -0.74931 v -0.42719 h 2.00676 v 0.42719 h -0.74758 v 2.09806 z"
         id="path54503"
         style="fill:#0b2027;fill-opacity:1" />
      <path
         d="m 134.16584,102.72999 v -0.50815 h -1.03353 v -0.42375 l 1.09554,-1.60369 h 0.40652 v 1.60197 h 0.31351 v 0.42547 h -0.31351 v 0.50815 z m 0,-0.93362 v -0.863 l -0.5805,0.863 z"
         id="path54505"
         style="fill:#0b2027;fill-opacity:1" />
    </g>
    <g
       aria-label="OUT 3"
       id="text48850-4-9"
       style="font-weight:bold;font-size:3.52777px;line-height:1.25;font-family:Arial;-inkscape-font-specification:'Arial Bold';text-align:center;text-anchor:middle;display:inline;fill:#0b2027;stroke-width:0.264583;fill-opacity:1">
      <path
         d="m 124.79348,80.650705 q 0,-0.38585 0.11541,-0.647676 0.0861,-0.192925 0.23426,-0.346232 0.14987,-0.153306 0.32729,-0.227375 0.23599,-0.09991 0.54432,-0.09991 0.55811,0 0.89228,0.346231 0.3359,0.346232 0.3359,0.962903 0,0.611503 -0.33246,0.957734 -0.33245,0.344509 -0.88883,0.344509 -0.56327,0 -0.89572,-0.342787 -0.33245,-0.344508 -0.33245,-0.947399 z m 0.52537,-0.01722 q 0,0.428913 0.1981,0.651121 0.19809,0.220486 0.50298,0.220486 0.30489,0 0.49954,-0.218763 0.19637,-0.220486 0.19637,-0.659734 0,-0.434081 -0.19121,-0.647677 -0.18947,-0.213595 -0.5047,-0.213595 -0.31523,0 -0.50815,0.21704 -0.19293,0.215318 -0.19293,0.651122 z"
         id="path54472"
         style="fill:#0b2027;fill-opacity:1" />
      <path
         d="m 127.6374,79.372578 h 0.50987 v 1.3677 q 0,0.32556 0.019,0.422023 0.0327,0.155029 0.15503,0.249769 0.12402,0.09302 0.33762,0.09302 0.21704,0 0.32728,-0.08785 0.11024,-0.08957 0.13264,-0.218763 0.0224,-0.12919 0.0224,-0.428913 v -1.396983 h 0.50987 v 1.326359 q 0,0.454751 -0.0413,0.642508 -0.0413,0.187758 -0.15331,0.316949 -0.11024,0.12919 -0.29627,0.206705 -0.18604,0.07579 -0.48576,0.07579 -0.36173,0 -0.54949,-0.08268 -0.18604,-0.08441 -0.29456,-0.217041 -0.10852,-0.134358 -0.14297,-0.280775 -0.0499,-0.21704 -0.0499,-0.640786 z"
         id="path54474"
         style="fill:#0b2027;fill-opacity:1" />
      <path
         d="m 130.75693,81.897827 v -2.098058 h -0.74931 v -0.427191 h 2.00676 v 0.427191 h -0.74758 v 2.098058 z"
         id="path54476"
         style="fill:#0b2027;fill-opacity:1" />
      <path
         d="m 133.19949,81.227758 0.46854,-0.05684 q 0.0224,0.179144 0.12057,0.273884 0.0982,0.09474 0.23771,0.09474 0.14987,0 0.2515,-0.113688 0.10335,-0.113688 0.10335,-0.306613 0,-0.182589 -0.0982,-0.289387 -0.0982,-0.106798 -0.23943,-0.106798 -0.093,0 -0.22221,0.03617 l 0.0534,-0.394463 q 0.19637,0.0052 0.29972,-0.0844 0.10336,-0.09129 0.10336,-0.241156 0,-0.127468 -0.0758,-0.20326 -0.0758,-0.07579 -0.20153,-0.07579 -0.12403,0 -0.21188,0.08613 -0.0879,0.08613 -0.10679,0.251492 l -0.44614,-0.07579 q 0.0465,-0.229099 0.13952,-0.36518 0.0947,-0.137803 0.26183,-0.215318 0.16881,-0.07924 0.37724,-0.07924 0.35656,0 0.57188,0.227376 0.17742,0.186035 0.17742,0.420301 0,0.332451 -0.36345,0.530544 0.21704,0.04651 0.34623,0.208427 0.13091,0.161919 0.13091,0.391018 0,0.332451 -0.24288,0.566717 -0.24288,0.234266 -0.60461,0.234266 -0.34279,0 -0.56844,-0.19637 -0.22565,-0.198093 -0.26183,-0.516763 z"
         id="path54478"
         style="fill:#0b2027;fill-opacity:1" />
    </g>
    <g
       aria-label="OUT 2"
       id="text48850-4"
       style="font-weight:bold;font-size:3.52777px;line-height:1.25;font-family:Arial;-inkscape-font-specification:'Arial Bold';text-align:center;text-anchor:middle;display:inline;fill:#0b2027;stroke-width:0.264583;fill-opacity:1">
      <path
         d="m 124.79348,59.81856 q 0,-0.38585 0.11541,-0.647677 0.0861,-0.192925 0.23426,-0.346231 0.14987,-0.153307 0.32729,-0.227376 0.23599,-0.09991 0.54432,-0.09991 0.55811,0 0.89228,0.346232 0.3359,0.346231 0.3359,0.962902 0,0.611503 -0.33246,0.957734 -0.33245,0.344509 -0.88883,0.344509 -0.56327,0 -0.89572,-0.342786 -0.33245,-0.344509 -0.33245,-0.947399 z m 0.52537,-0.01723 q 0,0.428914 0.1981,0.651122 0.19809,0.220485 0.50298,0.220485 0.30489,0 0.49954,-0.218763 0.19637,-0.220485 0.19637,-0.659734 0,-0.434081 -0.19121,-0.647677 -0.18947,-0.213595 -0.5047,-0.213595 -0.31523,0 -0.50815,0.217041 -0.19293,0.215318 -0.19293,0.651121 z"
         id="path54445"
         style="fill:#0b2027;fill-opacity:1" />
      <path
         d="m 127.6374,58.540432 h 0.50987 v 1.3677 q 0,0.325561 0.019,0.422023 0.0327,0.155029 0.15503,0.249769 0.12402,0.09302 0.33762,0.09302 0.21704,0 0.32728,-0.08785 0.11024,-0.08957 0.13264,-0.218763 0.0224,-0.129191 0.0224,-0.428914 v -1.396983 h 0.50987 v 1.326359 q 0,0.454751 -0.0413,0.642509 -0.0413,0.187757 -0.15331,0.316948 -0.11024,0.129191 -0.29627,0.206705 -0.18604,0.07579 -0.48576,0.07579 -0.36173,0 -0.54949,-0.08268 -0.18604,-0.08441 -0.29456,-0.217041 -0.10852,-0.134358 -0.14297,-0.280774 -0.0499,-0.217041 -0.0499,-0.640787 z"
         id="path54447"
         style="fill:#0b2027;fill-opacity:1" />
      <path
         d="m 130.75693,61.065681 v -2.098058 h -0.74931 v -0.427191 h 2.00676 v 0.427191 h -0.74758 v 2.098058 z"
         id="path54449"
         style="fill:#0b2027;fill-opacity:1" />
      <path
         d="m 134.85141,60.616097 v 0.449584 h -1.6967 q 0.0276,-0.254936 0.16536,-0.482312 0.1378,-0.229098 0.54433,-0.606335 0.32728,-0.304891 0.40135,-0.413411 0.0999,-0.149861 0.0999,-0.296277 0,-0.16192 -0.0879,-0.248047 -0.0861,-0.08785 -0.23944,-0.08785 -0.15158,0 -0.24115,0.0913 -0.0896,0.09129 -0.10336,0.303168 l -0.48231,-0.04823 q 0.0431,-0.39963 0.27044,-0.573607 0.22738,-0.173977 0.56844,-0.173977 0.37379,0 0.58739,0.201537 0.21359,0.201538 0.21359,0.501261 0,0.170532 -0.062,0.32556 -0.0603,0.153307 -0.19292,0.322116 -0.0879,0.111966 -0.31695,0.322116 -0.2291,0.21015 -0.29111,0.279052 -0.0603,0.0689 -0.0982,0.134358 z"
         id="path54451"
         style="fill:#0b2027;fill-opacity:1" />
    </g>
    <g
       aria-label="OUT 1"
       id="text48850"
       style="font-weight:bold;font-size:3.52777px;line-height:1.25;font-family:Arial;-inkscape-font-specification:'Arial Bold';text-align:center;text-anchor:middle;display:inline;fill:#0b2027;stroke-width:0.264583;fill-opacity:1">
      <path
         d="m 124.79348,38.986406 q 0,-0.38585 0.11541,-0.647676 0.0861,-0.192925 0.23426,-0.346232 0.14987,-0.153306 0.32729,-0.227375 0.23599,-0.09991 0.54432,-0.09991 0.55811,0 0.89228,0.346231 0.3359,0.346232 0.3359,0.962902 0,0.611504 -0.33246,0.957735 -0.33245,0.344509 -0.88883,0.344509 -0.56327,0 -0.89572,-0.342787 -0.33245,-0.344508 -0.33245,-0.947399 z m 0.52537,-0.01723 q 0,0.428913 0.1981,0.651121 0.19809,0.220486 0.50298,0.220486 0.30489,0 0.49954,-0.218763 0.19637,-0.220486 0.19637,-0.659734 0,-0.434081 -0.19121,-0.647677 -0.18947,-0.213595 -0.5047,-0.213595 -0.31523,0 -0.50815,0.21704 -0.19293,0.215318 -0.19293,0.651122 z"
         id="path54418"
         style="fill:#0b2027;fill-opacity:1" />
      <path
         d="m 127.6374,37.708279 h 0.50987 v 1.3677 q 0,0.32556 0.019,0.422023 0.0327,0.155029 0.15503,0.249769 0.12402,0.09302 0.33762,0.09302 0.21704,0 0.32728,-0.08785 0.11024,-0.08957 0.13264,-0.218763 0.0224,-0.129191 0.0224,-0.428913 v -1.396983 h 0.50987 v 1.326359 q 0,0.454751 -0.0413,0.642508 -0.0413,0.187758 -0.15331,0.316949 -0.11024,0.12919 -0.29627,0.206705 -0.18604,0.07579 -0.48576,0.07579 -0.36173,0 -0.54949,-0.08268 -0.18604,-0.08441 -0.29456,-0.217041 -0.10852,-0.134358 -0.14297,-0.280775 -0.0499,-0.21704 -0.0499,-0.640786 z"
         id="path54420"
         style="fill:#0b2027;fill-opacity:1" />
      <path
         d="M 130.75693,40.233528 V 38.13547 h -0.74931 v -0.427191 h 2.00676 v 0.427191 h -0.74758 v 2.098058 z"
         id="path54422"
         style="fill:#0b2027;fill-opacity:1" />
      <path
         d="m 134.45523,40.233528 h -0.48404 v -1.824174 q -0.26527,0.248046 -0.62528,0.366902 v -0.439249 q 0.18948,-0.06201 0.41169,-0.234266 0.22221,-0.173977 0.30489,-0.404798 h 0.39274 z"
         id="path54424"
         style="fill:#0b2027;fill-opacity:1" />
    </g>
    <g
       aria-label="Select"
       id="text7340-2"
       style="font-weight:bold;font-size:3.52777px;line-height:1.25;font-family:Arial;-inkscape-font-specification:'Arial Bold';text-align:center;text-anchor:middle;display:inline;fill:#9bc1bc;stroke-width:0.264583"
       transform="translate(1.2675933,0.29057145)">
      <path
         d="m 39.129829,9.9892959 0.496093,-0.048231 q 0.04479,0.2497681 0.180867,0.3669011 0.137803,0.117133 0.370347,0.117133 0.246324,0 0.370347,-0.103352 0.125745,-0.105075 0.125745,-0.244601 0,-0.089573 -0.0534,-0.151584 -0.05168,-0.063734 -0.18259,-0.1102428 -0.08957,-0.031006 -0.408243,-0.1102428 -0.409965,-0.1016301 -0.57533,-0.2497689 -0.232543,-0.2084278 -0.232543,-0.5081504 0,-0.192925 0.10852,-0.3600117 0.110243,-0.1688093 0.315226,-0.2566591 0.206705,-0.08785 0.497815,-0.08785 0.475422,0 0.714856,0.2084278 0.241156,0.2084278 0.253214,0.5563817 l -0.509873,0.022393 q -0.03273,-0.1946475 -0.141249,-0.2790522 -0.106798,-0.086127 -0.322116,-0.086127 -0.222208,0 -0.347954,0.091295 -0.08096,0.058566 -0.08096,0.1567515 0,0.089572 0.07579,0.1533064 0.09646,0.08096 0.468532,0.1688093 0.372069,0.08785 0.549491,0.1825897 0.179145,0.093017 0.279052,0.256659 0.10163,0.1619191 0.10163,0.4013525 0,0.217041 -0.120578,0.40652 -0.120578,0.18948 -0.341063,0.282498 -0.220486,0.09129 -0.549492,0.09129 -0.478867,0 -0.735526,-0.220485 -0.256659,-0.222208 -0.306613,-0.6459539 z"
         id="path31960" />
      <path
         d="m 42.667934,10.228729 0.482313,0.08096 q -0.09302,0.265272 -0.294555,0.404798 -0.199815,0.137803 -0.501261,0.137803 -0.477144,0 -0.706243,-0.31178 -0.180867,-0.249769 -0.180867,-0.6304512 0,-0.4547516 0.237711,-0.7114106 0.237711,-0.2583816 0.601168,-0.2583816 0.408243,0 0.644232,0.2704394 0.235988,0.2687168 0.225653,0.825099 h -1.212671 q 0.0052,0.215318 0.117133,0.335896 0.111965,0.118855 0.279052,0.118855 0.113688,0 0.191202,-0.06201 0.07751,-0.06201 0.117133,-0.199817 z m 0.02756,-0.489202 q -0.0052,-0.2101504 -0.10852,-0.3186707 -0.103353,-0.1102428 -0.251492,-0.1102428 -0.158474,0 -0.261826,0.1154105 -0.103353,0.1154104 -0.10163,0.313503 z"
         id="path31962" />
      <path
         d="M 43.570548,10.810949 V 8.2856999 h 0.484035 v 2.5252491 z"
         id="path31964" />
      <path
         d="m 45.61004,10.228729 0.482312,0.08096 q -0.09302,0.265272 -0.294555,0.404798 -0.199815,0.137803 -0.50126,0.137803 -0.477145,0 -0.706243,-0.31178 -0.180868,-0.249769 -0.180868,-0.6304512 0,-0.4547516 0.237711,-0.7114106 0.237712,-0.2583816 0.601168,-0.2583816 0.408243,0 0.644232,0.2704394 0.235988,0.2687168 0.225653,0.825099 h -1.212671 q 0.0052,0.215318 0.117133,0.335896 0.111965,0.118855 0.279052,0.118855 0.113688,0 0.191203,-0.06201 0.07751,-0.06201 0.117133,-0.199817 z M 45.6376,9.739527 Q 45.6324,9.5293766 45.52908,9.4208563 45.425727,9.3106135 45.277589,9.3106135 q -0.158474,0 -0.261827,0.1154105 -0.103353,0.1154104 -0.10163,0.313503 z"
         id="path31966" />
      <path
         d="m 48.107728,9.5224864 -0.477144,0.086127 q -0.02412,-0.1429711 -0.110243,-0.215318 -0.08441,-0.072347 -0.220486,-0.072347 -0.180867,0 -0.289387,0.1257457 -0.106798,0.1240232 -0.106798,0.4168556 0,0.3255613 0.10852,0.4599193 0.110243,0.134359 0.294555,0.134359 0.137804,0 0.225654,-0.07752 0.08785,-0.07924 0.124023,-0.270439 l 0.475422,0.08096 q -0.07407,0.327284 -0.28422,0.494371 -0.21015,0.167086 -0.563272,0.167086 -0.401353,0 -0.640786,-0.253214 -0.237711,-0.253214 -0.237711,-0.7010754 0,-0.453029 0.239433,-0.7045205 0.239434,-0.2532139 0.647677,-0.2532139 0.334173,0 0.530543,0.1446937 0.198093,0.1429711 0.28422,0.4375261 z"
         id="path31968" />
      <path
         d="M 49.313509,8.9816076 V 9.3674575 H 48.98278 v 0.7372485 q 0,0.223931 0.0086,0.261827 0.01033,0.03617 0.04306,0.06029 0.03445,0.02412 0.08268,0.02412 0.06718,0 0.194647,-0.04651 l 0.04134,0.375515 q -0.168809,0.07235 -0.382404,0.07235 -0.130914,0 -0.235989,-0.04306 -0.105075,-0.04479 -0.155029,-0.113688 -0.04823,-0.07062 -0.06718,-0.18948 -0.0155,-0.08441 -0.0155,-0.341064 V 9.3674575 h -0.22219 V 8.9816076 h 0.222208 V 8.6181509 L 48.98278,8.3356536 v 0.645954 z"
         id="path31970" />
    </g>
    <g
       aria-label="Reset"
       id="text7340-2-1"
       style="font-weight:bold;font-size:3.52777px;line-height:1.25;font-family:Arial;-inkscape-font-specification:'Arial Bold';text-align:center;text-anchor:middle;display:inline;fill:#9bc1bc;stroke-width:0.264583"
       transform="translate(-0.47323645)">
      <path
         d="M 71.535666,11.065379 V 8.5401297 h 1.073144 q 0.404798,0 0.587388,0.068902 0.184312,0.067179 0.294555,0.2411562 0.110243,0.1739769 0.110243,0.3979077 0,0.2842197 -0.167087,0.4702545 -0.167087,0.1843122 -0.499538,0.2325434 0.165364,0.096463 0.272162,0.2118725 0.10852,0.115411 0.29111,0.409966 l 0.308335,0.492647 h -0.60978 l -0.368625,-0.549491 q -0.19637,-0.294555 -0.268716,-0.370347 -0.07235,-0.07752 -0.153307,-0.105076 -0.08096,-0.02928 -0.256659,-0.02928 h -0.103352 v 1.054197 z m 0.509873,-1.4572721 h 0.377237 q 0.366902,0 0.458196,-0.031006 0.0913,-0.031006 0.142972,-0.1067978 0.05168,-0.075792 0.05168,-0.1894798 0,-0.1274683 -0.0689,-0.2049827 -0.06718,-0.079237 -0.191202,-0.099908 -0.06201,-0.00861 -0.37207,-0.00861 h -0.397907 z"
         id="path31973" />
      <path
         d="m 75.137505,10.483159 0.482312,0.08096 q -0.09302,0.265272 -0.294555,0.404798 -0.199815,0.137803 -0.50126,0.137803 -0.477145,0 -0.706243,-0.31178 -0.180867,-0.249769 -0.180867,-0.630451 0,-0.454752 0.237711,-0.711411 0.237711,-0.2583816 0.601168,-0.2583816 0.408243,0 0.644231,0.2704394 0.235989,0.2687169 0.225653,0.8250982 h -1.212671 q 0.0052,0.215318 0.117133,0.335896 0.111966,0.118856 0.279053,0.118856 0.113687,0 0.191202,-0.06201 0.07751,-0.06201 0.117133,-0.199815 z m 0.02756,-0.4892022 q -0.0052,-0.2101504 -0.108521,-0.3186706 -0.103352,-0.1102429 -0.251491,-0.1102429 -0.158474,0 -0.261827,0.1154105 -0.103352,0.1154104 -0.10163,0.313503 z"
         id="path31975" />
      <path
         d="m 75.869586,10.543448 0.485758,-0.07407 q 0.031,0.141249 0.125745,0.215318 0.09474,0.07235 0.265272,0.07235 0.187757,0 0.282497,-0.0689 0.06373,-0.04823 0.06373,-0.129191 0,-0.05512 -0.03445,-0.0913 -0.03617,-0.03445 -0.16192,-0.06373 -0.585665,-0.129191 -0.742416,-0.235988 -0.217041,-0.148139 -0.217041,-0.4116883 0,-0.237711 0.187758,-0.3996302 0.187757,-0.1619191 0.58222,-0.1619191 0.375514,0 0.558104,0.1223006 0.182589,0.1223006 0.251491,0.3617343 l -0.456474,0.084405 q -0.02928,-0.1067977 -0.111965,-0.1636417 -0.08096,-0.056844 -0.232544,-0.056844 -0.191202,0 -0.273884,0.053399 -0.05512,0.037896 -0.05512,0.098185 0,0.051676 0.04823,0.08785 0.06546,0.048231 0.451306,0.136081 0.387573,0.08785 0.540879,0.2153184 0.151584,0.129191 0.151584,0.360012 0,0.251491 -0.210151,0.432358 -0.21015,0.180867 -0.621838,0.180867 -0.373792,0 -0.592555,-0.151584 -0.217041,-0.151584 -0.28422,-0.411688 z"
         id="path31977" />
      <path
         d="m 79.06146,10.483159 0.482312,0.08096 q -0.09302,0.265272 -0.294555,0.404798 -0.199815,0.137803 -0.50126,0.137803 -0.477145,0 -0.706243,-0.31178 -0.180867,-0.249769 -0.180867,-0.630451 0,-0.454752 0.237711,-0.711411 0.237711,-0.2583816 0.601168,-0.2583816 0.408243,0 0.644231,0.2704394 0.235989,0.2687169 0.225654,0.8250982 H 78.35694 q 0.0052,0.215318 0.117133,0.335896 0.111965,0.118856 0.279052,0.118856 0.113688,0 0.191202,-0.06201 0.07752,-0.06201 0.117133,-0.199815 z M 79.08902,9.9939568 Q 79.08382,9.7838064 78.9805,9.6752862 78.877147,9.5650433 78.729008,9.5650433 q -0.158474,0 -0.261827,0.1154105 -0.103352,0.1154104 -0.10163,0.313503 z"
         id="path31979" />
      <path
         d="m 80.802952,9.2360375 v 0.3858498 h -0.330728 v 0.7372487 q 0,0.223931 0.0086,0.261827 0.01034,0.03617 0.04306,0.06029 0.03445,0.02412 0.08268,0.02412 0.06718,0 0.194648,-0.04651 l 0.04134,0.375514 q -0.168809,0.07235 -0.382405,0.07235 -0.130913,0 -0.235988,-0.04306 -0.105076,-0.04479 -0.155029,-0.113688 -0.04823,-0.07062 -0.06718,-0.18948 -0.0155,-0.08441 -0.0155,-0.341064 V 9.6218873 H 79.764258 V 9.2360375 h 0.222209 V 8.8725807 l 0.485757,-0.2824972 v 0.645954 z"
         id="path31981" />
    </g>
    <g
       aria-label="Step"
       id="text36600"
       style="font-weight:bold;font-size:3.52777px;line-height:1.25;font-family:Arial;-inkscape-font-specification:'Arial Bold';text-align:center;text-anchor:middle;display:inline;fill:#9bc1bc;stroke-width:0.264583">
      <path
         d="m 87.126158,10.239257 0.496092,-0.04823 q 0.04479,0.249768 0.180867,0.366901 0.137804,0.117133 0.370347,0.117133 0.246324,0 0.370347,-0.103352 0.125746,-0.105075 0.125746,-0.244602 0,-0.08957 -0.0534,-0.151583 -0.05168,-0.06373 -0.18259,-0.110243 -0.08957,-0.03101 -0.408242,-0.110243 -0.409966,-0.1016301 -0.57533,-0.2497689 -0.232544,-0.2084278 -0.232544,-0.5081504 0,-0.192925 0.108521,-0.3600117 0.110243,-0.1688093 0.315225,-0.2566591 0.206706,-0.08785 0.497815,-0.08785 0.475423,0 0.714856,0.2084278 0.241156,0.2084278 0.253214,0.5563817 l -0.509873,0.022393 q -0.03273,-0.1946475 -0.141248,-0.2790522 -0.106798,-0.086127 -0.322116,-0.086127 -0.222208,0 -0.347954,0.091295 -0.08096,0.058566 -0.08096,0.1567515 0,0.089572 0.07579,0.1533064 0.09646,0.08096 0.468532,0.1688093 0.37207,0.08785 0.549492,0.1825897 0.179144,0.093017 0.279052,0.256659 0.10163,0.1619189 0.10163,0.4013529 0,0.21704 -0.120578,0.40652 -0.120578,0.18948 -0.341064,0.282498 -0.220485,0.09129 -0.549491,0.09129 -0.478868,0 -0.735527,-0.220485 Q 87.176108,10.663 87.126155,10.239254 Z"
         id="path55429" />
      <path
         d="m 90.443777,9.2315685 v 0.3858499 h -0.330728 v 0.7372486 q 0,0.223931 0.0086,0.261827 0.01033,0.03617 0.04306,0.06029 0.03445,0.02412 0.08268,0.02412 0.06718,0 0.194648,-0.04651 l 0.04134,0.375514 q -0.168809,0.07235 -0.382405,0.07235 -0.130913,0 -0.235988,-0.04306 -0.105076,-0.04479 -0.155029,-0.113688 -0.04823,-0.07062 -0.06718,-0.18948 -0.0155,-0.08441 -0.0155,-0.341064 V 9.6174184 H 89.405083 V 9.2315685 h 0.222209 V 8.8681118 l 0.485757,-0.2824973 v 0.645954 z"
         id="path55431" />
      <path
         d="m 91.839038,10.47869 0.482312,0.08096 q -0.09302,0.265272 -0.294555,0.404798 -0.199815,0.137803 -0.50126,0.137803 -0.477145,0 -0.706243,-0.31178 -0.180867,-0.249769 -0.180867,-0.630451 0,-0.4547519 0.237711,-0.7114109 0.237711,-0.2583816 0.601168,-0.2583816 0.408243,0 0.644231,0.2704394 0.235989,0.2687168 0.225653,0.8250981 h -1.212671 q 0.0052,0.215318 0.117133,0.335897 0.111966,0.118855 0.279053,0.118855 0.113687,0 0.191202,-0.06201 0.07751,-0.06201 0.117133,-0.199815 z m 0.02756,-0.4892021 q -0.0052,-0.2101504 -0.108521,-0.3186707 -0.103352,-0.1102428 -0.251491,-0.1102428 -0.158474,0 -0.261827,0.1154105 -0.103352,0.1154104 -0.10163,0.313503 z"
         id="path55433" />
      <path
         d="m 92.727871,9.2315685 h 0.451306 v 0.2687169 q 0.08785,-0.1378035 0.237712,-0.2239307 0.149861,-0.086127 0.332451,-0.086127 0.31867,0 0.540878,0.2497689 0.222209,0.2497688 0.222209,0.6959074 0,0.458197 -0.223931,0.713133 -0.223931,0.253214 -0.542602,0.253214 -0.151583,0 -0.275607,-0.06029 -0.1223,-0.06029 -0.258381,-0.206705 v 0.921561 h -0.484035 z m 0.478867,0.8836655 q 0,0.308335 0.122301,0.456474 0.1223,0.146416 0.298,0.146416 0.168809,0 0.280775,-0.134358 0.111965,-0.136081 0.111965,-0.444417 0,-0.2876646 -0.115411,-0.4271907 -0.11541,-0.1395261 -0.285942,-0.1395261 -0.177422,0 -0.294555,0.1378036 -0.117133,0.1360809 -0.117133,0.4047982 z"
         id="path55435" />
    </g>
    <g
       aria-label="undo"
       id="text40365-2-0-3-7-4-9"
       style="font-weight:bold;font-size:3.52777px;line-height:1.25;font-family:Arial;-inkscape-font-specification:'Arial Bold';text-align:center;text-anchor:middle;display:inline;stroke-width:0.264583"
       transform="translate(-8.4666725,4.7625003)">
      <path
         d="m 46.618601,49.554871 v -0.273885 q -0.09991,0.146416 -0.263549,0.230821 -0.161919,0.08441 -0.342786,0.08441 -0.184312,0 -0.330729,-0.08096 -0.146416,-0.08096 -0.211872,-0.227376 -0.06546,-0.146416 -0.06546,-0.404798 v -1.157549 h 0.484035 v 0.840601 q 0,0.38585 0.02584,0.4737 0.02756,0.08613 0.09818,0.137803 0.07062,0.04995 0.179144,0.04995 0.124024,0 0.222209,-0.06718 0.09819,-0.0689 0.134358,-0.168809 0.03617,-0.10163 0.03617,-0.49437 v -0.7717 h 0.484035 v 1.829342 z"
         style="fill:#9bc1bc"
         id="path77529" />
      <path
         d="m 49.233423,49.554871 h -0.484035 v -0.933619 q 0,-0.296278 -0.03101,-0.382405 -0.03101,-0.08785 -0.10163,-0.136081 -0.0689,-0.04823 -0.167086,-0.04823 -0.125746,0 -0.225654,0.0689 -0.09991,0.0689 -0.137803,0.182589 -0.03617,0.113688 -0.03617,0.420301 v 0.828544 h -0.484034 v -1.829342 h 0.449583 v 0.268717 q 0.239434,-0.310058 0.602891,-0.310058 0.160196,0 0.292832,0.05857 0.132636,0.05684 0.199815,0.146417 0.0689,0.08957 0.09474,0.20326 0.02756,0.113688 0.02756,0.325561 z"
         style="fill:#9bc1bc"
         id="path77531" />
      <path
         d="m 51.402106,49.554871 h -0.449584 v -0.268717 q -0.111965,0.156751 -0.265272,0.234266 -0.151584,0.07579 -0.306613,0.07579 -0.315225,0 -0.540878,-0.253214 -0.223931,-0.254937 -0.223931,-0.709688 0,-0.465087 0.218763,-0.706243 0.218763,-0.242879 0.552936,-0.242879 0.306613,0 0.530544,0.254936 v -0.909503 h 0.484035 z m -1.291908,-0.95429 q 0,0.292833 0.08096,0.423746 0.117133,0.18948 0.327284,0.18948 0.167087,0 0.28422,-0.141249 0.117133,-0.142971 0.117133,-0.425468 0,-0.315226 -0.113688,-0.453029 -0.113688,-0.139526 -0.29111,-0.139526 -0.172255,0 -0.289388,0.137803 -0.11541,0.136081 -0.115411,0.408243 z"
         style="fill:#9bc1bc"
         id="path77533" />
      <path
         d="m 51.767285,48.614362 q 0,-0.241157 0.118856,-0.46681 0.118855,-0.225653 0.335896,-0.344509 0.218763,-0.118855 0.48748,-0.118855 0.415133,0 0.680405,0.270439 0.265271,0.268717 0.265271,0.680405 0,0.415133 -0.268717,0.689018 -0.266994,0.272162 -0.673514,0.272162 -0.251492,0 -0.48059,-0.113688 -0.227376,-0.113688 -0.346231,-0.332451 -0.118856,-0.220486 -0.118856,-0.535711 z m 0.496093,0.02584 q 0,0.272162 0.129191,0.416855 0.12919,0.144694 0.31867,0.144694 0.18948,0 0.316948,-0.144694 0.129191,-0.144693 0.129191,-0.4203 0,-0.268717 -0.129191,-0.413411 -0.127468,-0.144694 -0.316948,-0.144694 -0.18948,0 -0.31867,0.144694 -0.129191,0.144694 -0.129191,0.416856 z"
         style="fill:#9bc1bc"
         id="path77535" />
    </g>
    <g
       aria-label="redo"
       id="text40365-2-0-3-7-4-9-6"
       style="font-weight:bold;font-size:3.52777px;line-height:1.25;font-family:Arial;-inkscape-font-specification:'Arial Bold';text-align:center;text-anchor:middle;display:inline;stroke-width:0.264583"
       transform="translate(-8.4666751,4.7625003)">
      <path
         d="M 46.370556,70.386871 H 45.886521 V 68.55753 h 0.449584 v 0.260104 q 0.115411,-0.184312 0.206706,-0.242879 0.09302,-0.05857 0.21015,-0.05857 0.165364,0 0.318671,0.09129 l -0.149862,0.422024 q -0.1223,-0.07924 -0.227375,-0.07924 -0.10163,0 -0.172255,0.05684 -0.07062,0.05512 -0.111965,0.201537 -0.03962,0.146417 -0.03962,0.613226 z"
         style="fill:#9bc1bc"
         id="path77550" />
      <path
         d="m 48.339424,69.804651 0.482312,0.08096 q -0.09302,0.265272 -0.294555,0.404798 -0.199815,0.137803 -0.50126,0.137803 -0.477145,0 -0.706243,-0.31178 -0.180867,-0.249769 -0.180867,-0.630451 0,-0.454752 0.237711,-0.711411 0.237711,-0.258381 0.601168,-0.258381 0.408243,0 0.644231,0.270439 0.235989,0.268717 0.225654,0.825099 h -1.212671 q 0.0052,0.215318 0.117133,0.335896 0.111965,0.118855 0.279052,0.118855 0.113688,0 0.191202,-0.06201 0.07751,-0.06201 0.117133,-0.199816 z m 0.02756,-0.489202 q -0.0052,-0.21015 -0.10852,-0.318671 -0.103353,-0.110242 -0.251492,-0.110242 -0.158474,0 -0.261827,0.11541 -0.103352,0.11541 -0.10163,0.313503 z"
         style="fill:#9bc1bc"
         id="path77552" />
      <path
         d="m 50.919795,70.386871 h -0.449584 v -0.268717 q -0.111965,0.156752 -0.265272,0.234266 -0.151584,0.07579 -0.306613,0.07579 -0.315225,0 -0.540878,-0.253214 -0.223931,-0.254936 -0.223931,-0.709688 0,-0.465087 0.218763,-0.706243 0.218763,-0.242878 0.552936,-0.242878 0.306613,0 0.530544,0.254936 V 67.86162 h 0.484035 z m -1.291908,-0.954289 q 0,0.292832 0.08096,0.423746 0.117133,0.18948 0.327284,0.18948 0.167087,0 0.28422,-0.141249 0.117133,-0.142971 0.117133,-0.425468 0,-0.315226 -0.113688,-0.453029 -0.113688,-0.139526 -0.29111,-0.139526 -0.172255,0 -0.289388,0.137803 -0.11541,0.136081 -0.115411,0.408243 z"
         style="fill:#9bc1bc"
         id="path77554" />
      <path
         d="m 51.284974,69.446362 q 0,-0.241156 0.118856,-0.466809 0.118855,-0.225653 0.335896,-0.344509 0.218763,-0.118855 0.48748,-0.118855 0.415133,0 0.680405,0.270439 0.265271,0.268717 0.265271,0.680405 0,0.415133 -0.268717,0.689017 -0.266994,0.272162 -0.673514,0.272162 -0.251492,0 -0.48059,-0.113688 -0.227376,-0.113687 -0.346231,-0.33245 -0.118856,-0.220486 -0.118856,-0.535712 z m 0.496093,0.02584 q 0,0.272162 0.129191,0.416856 0.12919,0.144694 0.31867,0.144694 0.18948,0 0.316948,-0.144694 0.129191,-0.144694 0.129191,-0.420301 0,-0.268716 -0.129191,-0.41341 -0.127468,-0.144694 -0.316948,-0.144694 -0.18948,0 -0.31867,0.144694 -0.129191,0.144694 -0.129191,0.416855 z"
         style="fill:#9bc1bc"
         id="path77556" />
    </g>
    <g
       aria-label="reset"
       id="text40365-2-0-3-7-4-9-6-7"
       style="font-weight:bold;font-size:3.52777px;line-height:1.25;font-family:Arial;-inkscape-font-specification:'Arial Bold';text-align:center;text-anchor:middle;display:inline;stroke-width:0.264583"
       transform="translate(-8.4666635,4.7625003)">
      <path
         d="M 45.93475,91.218872 H 45.450715 V 89.38953 h 0.449584 v 0.260105 q 0.115411,-0.184313 0.206705,-0.242879 0.09302,-0.05857 0.210151,-0.05857 0.165364,0 0.31867,0.09129 l -0.149861,0.422023 q -0.1223,-0.07924 -0.227376,-0.07924 -0.10163,0 -0.172254,0.05684 -0.07062,0.05512 -0.111965,0.201538 -0.03962,0.146416 -0.03962,0.613226 z"
         style="fill:#9bc1bc"
         id="path77571" />
      <path
         d="m 47.903618,90.636652 0.482312,0.08096 q -0.09302,0.265272 -0.294555,0.404798 -0.199815,0.137803 -0.50126,0.137803 -0.477145,0 -0.706243,-0.31178 -0.180867,-0.249769 -0.180867,-0.630451 0,-0.454752 0.237711,-0.711411 0.237711,-0.258382 0.601168,-0.258382 0.408243,0 0.644231,0.27044 0.235989,0.268717 0.225653,0.825098 h -1.212671 q 0.0052,0.215318 0.117133,0.335896 0.111966,0.118856 0.279052,0.118856 0.113688,0 0.191203,-0.06201 0.07751,-0.06201 0.117133,-0.199815 z m 0.02756,-0.489202 q -0.0052,-0.210151 -0.108521,-0.318671 -0.103352,-0.110243 -0.251491,-0.110243 -0.158474,0 -0.261827,0.115411 -0.103352,0.11541 -0.10163,0.313503 z"
         style="fill:#9bc1bc"
         id="path77573" />
      <path
         d="m 48.635699,90.696941 0.485757,-0.07407 q 0.03101,0.141248 0.125746,0.215318 0.09474,0.07235 0.265272,0.07235 0.187757,0 0.282497,-0.0689 0.06373,-0.04823 0.06373,-0.129191 0,-0.05512 -0.03445,-0.0913 -0.03617,-0.03445 -0.161919,-0.06373 -0.585665,-0.129191 -0.742416,-0.235988 -0.217041,-0.148139 -0.217041,-0.411688 0,-0.237711 0.187757,-0.399631 0.187758,-0.161919 0.58222,-0.161919 0.375515,0 0.558105,0.122301 0.182589,0.122301 0.251491,0.361734 l -0.456474,0.08441 q -0.02928,-0.106798 -0.111966,-0.163642 -0.08096,-0.05684 -0.232543,-0.05684 -0.191202,0 -0.273884,0.0534 -0.05512,0.0379 -0.05512,0.09819 0,0.05168 0.04823,0.08785 0.06546,0.04823 0.451307,0.136081 0.387572,0.08785 0.540879,0.215318 0.151584,0.129191 0.151584,0.360011 0,0.251492 -0.210151,0.432359 -0.21015,0.180867 -0.621838,0.180867 -0.373792,0 -0.592555,-0.151584 -0.217041,-0.151584 -0.28422,-0.411688 z"
         style="fill:#9bc1bc"
         id="path77575" />
      <path
         d="m 51.827573,90.636652 0.482312,0.08096 q -0.09302,0.265272 -0.294555,0.404798 -0.199815,0.137803 -0.50126,0.137803 -0.477145,0 -0.706243,-0.31178 -0.180867,-0.249769 -0.180867,-0.630451 0,-0.454752 0.237711,-0.711411 0.237711,-0.258382 0.601168,-0.258382 0.408243,0 0.644231,0.27044 0.235989,0.268717 0.225653,0.825098 h -1.212671 q 0.0052,0.215318 0.117133,0.335896 0.111966,0.118856 0.279052,0.118856 0.113688,0 0.191203,-0.06201 0.07751,-0.06201 0.117133,-0.199815 z m 0.02756,-0.489202 q -0.0052,-0.210151 -0.108521,-0.318671 -0.103352,-0.110243 -0.251491,-0.110243 -0.158474,0 -0.261827,0.115411 -0.103352,0.11541 -0.10163,0.313503 z"
         style="fill:#9bc1bc"
         id="path77577" />
      <path
         d="m 53.569065,89.38953 v 0.38585 h -0.330728 v 0.737249 q 0,0.223931 0.0086,0.261827 0.01034,0.03617 0.04306,0.06029 0.03445,0.02412 0.08268,0.02412 0.06718,0 0.194648,-0.04651 l 0.04134,0.375514 q -0.16881,0.07235 -0.382405,0.07235 -0.130913,0 -0.235989,-0.04306 -0.105075,-0.04479 -0.155029,-0.113688 -0.04823,-0.07062 -0.06718,-0.18948 -0.0155,-0.08441 -0.0155,-0.341064 V 89.77538 h -0.222208 v -0.38585 h 0.222208 v -0.363456 l 0.485758,-0.282498 v 0.645954 z"
         style="fill:#9bc1bc"
         id="path77579" />
    </g>
    <g
       aria-label="rand"
       id="text40365-2-0-3-7-4"
       style="font-weight:bold;font-size:3.52777px;line-height:1.25;font-family:Arial;-inkscape-font-specification:'Arial Bold';text-align:center;text-anchor:middle;display:inline;stroke-width:0.264583"
       transform="translate(-8.4666746,4.7625003)">
      <path
         d="m 46.419648,28.723169 h -0.484035 v -1.829341 h 0.449584 v 0.260104 q 0.11541,-0.184312 0.206705,-0.242879 0.09302,-0.05857 0.21015,-0.05857 0.165365,0 0.318671,0.09129 l -0.149861,0.422024 q -0.122301,-0.07924 -0.227376,-0.07924 -0.10163,0 -0.172254,0.05684 -0.07062,0.05512 -0.111966,0.201537 -0.03962,0.146416 -0.03962,0.613226 z"
         style="fill:#9bc1bc"
         id="path77506" />
      <path
         d="m 47.690885,27.451932 -0.439249,-0.07924 q 0.07407,-0.265272 0.254937,-0.39274 0.180867,-0.127468 0.537434,-0.127468 0.323838,0 0.482312,0.07751 0.158474,0.07579 0.222208,0.194648 0.06546,0.117133 0.06546,0.432358 l -0.0052,0.564994 q 0,0.241157 0.02239,0.356567 0.02412,0.113688 0.08785,0.244601 H 48.44016 q -0.01895,-0.04823 -0.04651,-0.142971 -0.01206,-0.04306 -0.01723,-0.05684 -0.124024,0.120578 -0.265272,0.180867 -0.141249,0.06029 -0.301445,0.06029 -0.282498,0 -0.446139,-0.153306 -0.161919,-0.153306 -0.161919,-0.387572 0,-0.155029 0.07407,-0.275607 0.07407,-0.122301 0.206705,-0.186035 0.134359,-0.06546 0.38585,-0.113688 0.339341,-0.06373 0.470255,-0.118856 v -0.04823 q 0,-0.139526 -0.0689,-0.198092 -0.0689,-0.06029 -0.260104,-0.06029 -0.129191,0 -0.201538,0.05168 -0.07235,0.04995 -0.117133,0.177422 z m 0.647677,0.39274 q -0.09302,0.03101 -0.294555,0.07407 -0.201538,0.04306 -0.26355,0.08441 -0.09474,0.06718 -0.09474,0.170532 0,0.10163 0.07579,0.175699 0.07579,0.07407 0.192925,0.07407 0.130914,0 0.249769,-0.08613 0.08785,-0.06546 0.115411,-0.160196 0.01895,-0.06201 0.01895,-0.235989 z"
         style="fill:#9bc1bc"
         id="path77508" />
      <path
         d="M 50.955106,28.723169 H 50.471071 V 27.78955 q 0,-0.296277 -0.03101,-0.382404 -0.03101,-0.08785 -0.10163,-0.136081 -0.0689,-0.04823 -0.167087,-0.04823 -0.125745,0 -0.225653,0.0689 -0.09991,0.0689 -0.137803,0.18259 -0.03617,0.113688 -0.03617,0.420301 v 0.828543 h -0.484035 v -1.829341 h 0.449584 v 0.268716 q 0.239434,-0.310057 0.602891,-0.310057 0.160196,0 0.292832,0.05857 0.132636,0.05684 0.199815,0.146416 0.0689,0.08957 0.09474,0.20326 0.02756,0.113688 0.02756,0.325561 z"
         style="fill:#9bc1bc"
         id="path77510" />
      <path
         d="m 53.123789,28.723169 h -0.449584 v -0.268717 q -0.111966,0.156752 -0.265272,0.234266 -0.151584,0.07579 -0.306613,0.07579 -0.315225,0 -0.540879,-0.253214 -0.22393,-0.254936 -0.22393,-0.709688 0,-0.465087 0.218763,-0.706243 0.218763,-0.242878 0.552936,-0.242878 0.306613,0 0.530544,0.254936 V 26.19792 h 0.484035 z M 51.831881,27.76888 q 0,0.292832 0.08096,0.423746 0.117133,0.18948 0.327284,0.18948 0.167086,0 0.284219,-0.141249 0.117133,-0.142971 0.117133,-0.425468 0,-0.315226 -0.113688,-0.453029 -0.113687,-0.139526 -0.291109,-0.139526 -0.172255,0 -0.289388,0.137803 -0.11541,0.136081 -0.115411,0.408243 z"
         style="fill:#9bc1bc"
         id="path77512" />
    </g>
    <g
       aria-label="+1"
       id="text40365-2-0-3-7-3-5"
       style="font-weight:bold;font-size:3.52777px;line-height:1.25;font-family:Arial;-inkscape-font-specification:'Arial Bold';text-align:center;text-anchor:middle;display:inline;stroke-width:0.264583"
       transform="translate(-4.2333384,4.7625003)">
      <path
         d="m 28.773461,70.064751 v -0.65629 h -0.661457 v -0.453029 h 0.661457 v -0.656289 h 0.440971 v 0.656289 h 0.66318 v 0.453029 h -0.66318 v 0.65629 z"
         style="fill:#9bc1bc"
         id="path77545" />
      <path
         d="m 31.414121,70.428207 h -0.484035 v -1.824174 q -0.265272,0.248047 -0.625284,0.366902 v -0.439249 q 0.18948,-0.06201 0.411688,-0.234265 0.222209,-0.173977 0.304891,-0.404798 h 0.39274 z"
         style="fill:#9bc1bc"
         id="path77547" />
    </g>
    <g
       aria-label="-1"
       id="text40365-2-0-3-7-3-5-1"
       style="font-weight:bold;font-size:3.52777px;line-height:1.25;font-family:Arial;-inkscape-font-specification:'Arial Bold';text-align:center;text-anchor:middle;display:inline;stroke-width:0.264583"
       transform="translate(-4.2333373,4.7625003)">
      <path
         d="m 28.580535,90.586693 v -0.484034 h 0.950845 v 0.484034 z"
         style="fill:#9bc1bc"
         id="path77566" />
      <path
         d="m 30.945588,91.260208 h -0.484035 v -1.824174 q -0.265271,0.248046 -0.625283,0.366902 v -0.439249 q 0.18948,-0.06201 0.411688,-0.234266 0.222208,-0.173977 0.30489,-0.404798 h 0.39274 z"
         style="fill:#9bc1bc"
         id="path77568" />
    </g>
    <g
       aria-label="1/3"
       id="text40365-2-0-3-7"
       style="font-weight:bold;font-size:3.52777px;line-height:1.25;font-family:Arial;-inkscape-font-specification:'Arial Bold';text-align:center;text-anchor:middle;display:inline;stroke-width:0.264583"
       transform="translate(-4.2333373,4.7625003)">
      <path
         d="m 28.635657,28.721447 h -0.484035 v -1.824174 q -0.265272,0.248046 -0.625284,0.366902 v -0.439249 q 0.18948,-0.06201 0.411688,-0.234266 0.222208,-0.173977 0.304891,-0.404798 h 0.39274 z"
         style="fill:#9bc1bc"
         id="path77499" />
      <path
         d="m 29.204096,28.764511 0.625284,-2.611377 h 0.363456 l -0.632173,2.611377 z"
         style="fill:#9bc1bc"
         id="path77501" />
      <path
         d="m 30.322027,28.051377 0.468532,-0.05684 q 0.02239,0.179145 0.120578,0.273885 0.09819,0.09474 0.237711,0.09474 0.149862,0 0.251492,-0.113688 0.103352,-0.113688 0.103352,-0.306613 0,-0.18259 -0.09819,-0.289387 -0.09819,-0.106798 -0.239433,-0.106798 -0.09302,0 -0.222209,0.03617 l 0.0534,-0.394462 q 0.19637,0.0052 0.299723,-0.08441 0.103353,-0.0913 0.103353,-0.241156 0,-0.127468 -0.07579,-0.20326 -0.07579,-0.07579 -0.201538,-0.07579 -0.124023,0 -0.211873,0.08613 -0.08785,0.08613 -0.106798,0.251492 L 30.3582,26.845597 q 0.04651,-0.229099 0.139527,-0.36518 0.09474,-0.137803 0.261826,-0.215318 0.16881,-0.07924 0.377237,-0.07924 0.356567,0 0.571885,0.227376 0.177422,0.186035 0.177422,0.420301 0,0.332451 -0.363457,0.530543 0.217041,0.04651 0.346232,0.208428 0.130913,0.161919 0.130913,0.391018 0,0.332451 -0.242879,0.566717 -0.242879,0.234266 -0.604613,0.234266 -0.342786,0 -0.568439,-0.19637 -0.225654,-0.198093 -0.261827,-0.516764 z"
         style="fill:#9bc1bc"
         id="path77503" />
    </g>
    <g
       aria-label="2/4"
       id="text40365-2-0-3-7-3"
       style="font-weight:bold;font-size:3.52777px;line-height:1.25;font-family:Arial;-inkscape-font-specification:'Arial Bold';text-align:center;text-anchor:middle;display:inline;stroke-width:0.264583"
       transform="translate(-4.2333378,4.7625003)">
      <path
         d="m 29.092131,49.103562 v 0.449584 h -1.696706 q 0.02756,-0.254936 0.165364,-0.482312 0.137804,-0.229098 0.544324,-0.606335 0.327284,-0.304891 0.401353,-0.413411 0.09991,-0.149861 0.09991,-0.296278 0,-0.161919 -0.08785,-0.248046 -0.08613,-0.08785 -0.239434,-0.08785 -0.151584,0 -0.241156,0.0913 -0.08957,0.09129 -0.103352,0.303168 l -0.482313,-0.04823 q 0.04306,-0.39963 0.27044,-0.573607 0.227375,-0.173977 0.568439,-0.173977 0.373792,0 0.587388,0.201537 0.213595,0.201538 0.213595,0.501261 0,0.170531 -0.06201,0.32556 -0.06029,0.153307 -0.192924,0.322116 -0.08785,0.111965 -0.316949,0.322116 -0.229098,0.21015 -0.291109,0.279052 -0.06029,0.0689 -0.09819,0.134358 z"
         style="fill:#9bc1bc"
         id="path77522" />
      <path
         d="m 29.264385,49.59621 0.625284,-2.611377 h 0.363457 l -0.632174,2.611377 z"
         style="fill:#9bc1bc"
         id="path77524" />
      <path
         d="m 31.348664,49.553146 v -0.50815 H 30.315137 V 48.62125 l 1.095538,-1.603688 h 0.406521 v 1.601966 h 0.313503 v 0.425468 h -0.313503 v 0.50815 z m 0,-0.933618 v -0.862995 l -0.580498,0.862995 z"
         style="fill:#9bc1bc"
         id="path77526" />
    </g>
    <g
       aria-label="2/3"
       id="text40365-2-0"
       style="font-weight:bold;font-size:3.52777px;line-height:1.25;font-family:Arial;-inkscape-font-specification:'Arial Bold';text-align:center;text-anchor:middle;display:inline;stroke-width:0.264583"
       transform="translate(0,4.7625003)">
      <path
         d="m 9.3608002,69.935563 v 0.449584 H 7.6640944 q 0.027561,-0.254936 0.1653642,-0.482312 0.1378035,-0.229099 0.5443239,-0.606336 0.3272834,-0.30489 0.4013527,-0.41341 0.099908,-0.149862 0.099908,-0.296278 0,-0.161919 -0.08785,-0.248046 -0.086127,-0.08785 -0.2394337,-0.08785 -0.1515838,0 -0.2411561,0.09129 -0.089572,0.0913 -0.1033527,0.303168 l -0.4823123,-0.04823 q 0.043064,-0.39963 0.2704394,-0.573607 0.2273758,-0.173977 0.5684395,-0.173977 0.3737921,0 0.5873875,0.201538 0.2135955,0.201538 0.2135955,0.50126 0,0.170532 -0.062012,0.325561 -0.060289,0.153307 -0.1929249,0.322116 -0.08785,0.111965 -0.3169481,0.322116 -0.2290984,0.21015 -0.2911099,0.279052 -0.060289,0.0689 -0.098185,0.134358 z"
         style="fill:#9bc1bc"
         id="path77538" />
      <path
         d="m 9.5330546,70.428211 0.6252834,-2.611377 h 0.363457 l -0.6321738,2.611377 z"
         style="fill:#9bc1bc"
         id="path77540" />
      <path
         d="m 10.650986,69.715077 0.468532,-0.05684 q 0.02239,0.179144 0.120578,0.273884 0.09819,0.09474 0.237711,0.09474 0.149861,0 0.251491,-0.113688 0.103353,-0.113688 0.103353,-0.306613 0,-0.182589 -0.09819,-0.289387 -0.09818,-0.106798 -0.239434,-0.106798 -0.09302,0 -0.222208,0.03617 l 0.0534,-0.394463 q 0.19637,0.0052 0.299722,-0.0844 0.103353,-0.0913 0.103353,-0.241156 0,-0.127468 -0.07579,-0.20326 -0.07579,-0.07579 -0.201537,-0.07579 -0.124024,0 -0.211873,0.08613 -0.08785,0.08613 -0.106798,0.251492 l -0.446139,-0.07579 q 0.04651,-0.229099 0.139526,-0.36518 0.09474,-0.137803 0.261827,-0.215318 0.168809,-0.07924 0.377237,-0.07924 0.356566,0 0.571884,0.227376 0.177423,0.186035 0.177423,0.420301 0,0.332451 -0.363457,0.530543 0.21704,0.04651 0.346231,0.208428 0.130913,0.161919 0.130913,0.391018 0,0.332451 -0.242878,0.566717 -0.242879,0.234266 -0.604613,0.234266 -0.342786,0 -0.56844,-0.19637 -0.225653,-0.198093 -0.261826,-0.516764 z"
         style="fill:#9bc1bc"
         id="path77542" />
    </g>
    <g
       aria-label="1/4"
       id="text40365-2-0-3"
       style="font-weight:bold;font-size:3.52777px;line-height:1.25;font-family:Arial;-inkscape-font-specification:'Arial Bold';text-align:center;text-anchor:middle;display:inline;stroke-width:0.264583"
       transform="translate(0,4.7625003)">
      <path
         d="M 8.8337013,91.217148 H 8.3496665 V 89.392974 Q 8.0843947,89.64102 7.724383,89.759876 v -0.439249 q 0.1894799,-0.06201 0.411688,-0.234266 0.2222082,-0.173977 0.3048903,-0.404798 h 0.39274 z"
         style="fill:#9bc1bc"
         id="path77559" />
      <path
         d="m 9.4021409,91.260211 0.6252831,-2.611376 h 0.363457 l -0.6321735,2.611376 z"
         style="fill:#9bc1bc"
         id="path77561" />
      <path
         d="m 11.486419,91.217148 v -0.508151 h -1.033526 v -0.423745 l 1.095538,-1.603689 h 0.40652 v 1.601966 h 0.313503 v 0.425468 h -0.313503 v 0.508151 z m 0,-0.933619 v -0.862995 l -0.580497,0.862995 z"
         style="fill:#9bc1bc"
         id="path77563" />
    </g>
    <rect
       style="display:inline;fill:#9bc1bc;fill-opacity:1;stroke-width:13.4573;stroke-linecap:round"
       id="rect78342"
       width="0.88675934"
       height="79.295998"
       x="50.561775"
       y="30.732836" />
    <g
       aria-label="In 4"
       id="text6374-3-8"
       style="font-weight:bold;font-size:3.52777px;line-height:1.25;font-family:Arial;-inkscape-font-specification:'Arial Bold';text-align:center;text-anchor:middle;display:inline;opacity:1;fill:#9bc1bc;stroke-width:0.264583"
       transform="translate(50.8,4.504899)">
      <path
         d="m 5.7590003,98.230255 v -2.525249 h 0.5098731 v 2.525249 z"
         id="path26580" />
      <path
         d="M 8.4151631,98.230255 H 7.9311283 v -0.933619 q 0,-0.296277 -0.031006,-0.382404 -0.031006,-0.08785 -0.1016301,-0.136081 -0.068902,-0.04823 -0.1670868,-0.04823 -0.1257457,0 -0.2256532,0.0689 -0.099908,0.0689 -0.1378035,0.18259 -0.036174,0.113688 -0.036174,0.4203 v 0.828544 H 6.7477406 v -1.829342 h 0.449584 v 0.268717 q 0.2394336,-0.310058 0.6028903,-0.310058 0.1601966,0 0.2928325,0.05857 0.1326359,0.05684 0.1998151,0.146416 0.068902,0.08957 0.09474,0.20326 0.027561,0.113688 0.027561,0.325561 z"
         id="path26582" />
      <path
         d="m 10.731985,98.230255 v -0.50815 H 9.6984585 V 97.298359 L 10.793996,95.69467 h 0.406521 v 1.601966 h 0.313503 v 0.425469 h -0.313503 v 0.50815 z m 0,-0.933619 v -0.862994 l -0.580497,0.862994 z"
         id="path26584" />
    </g>
    <g
       aria-label="In 3"
       id="text6374-3-8-7"
       style="font-weight:bold;font-size:3.52777px;line-height:1.25;font-family:Arial;-inkscape-font-specification:'Arial Bold';text-align:center;text-anchor:middle;display:inline;opacity:1;fill:#9bc1bc;stroke-width:0.264583"
       transform="translate(50.8,4.5049009)">
      <path
         d="m 5.7590003,77.376564 v -2.525249 h 0.5098731 v 2.525249 z"
         id="path26573" />
      <path
         d="M 8.4151631,77.376564 H 7.9311283 v -0.933619 q 0,-0.296277 -0.031006,-0.382405 -0.031006,-0.08785 -0.1016301,-0.136081 -0.068902,-0.04823 -0.1670868,-0.04823 -0.1257457,0 -0.2256532,0.0689 -0.099908,0.0689 -0.1378035,0.18259 -0.036174,0.113688 -0.036174,0.4203 v 0.828544 H 6.7477406 v -1.829342 h 0.449584 v 0.268717 q 0.2394336,-0.310058 0.6028903,-0.310058 0.1601966,0 0.2928325,0.05857 0.1326359,0.05684 0.1998151,0.146416 0.068902,0.08957 0.09474,0.20326 0.027561,0.113688 0.027561,0.325561 z"
         id="path26575" />
      <path
         d="M 9.7656377,76.706494 10.23417,76.64965 q 0.02239,0.179145 0.120578,0.273885 0.09818,0.09474 0.237711,0.09474 0.149861,0 0.251491,-0.113688 0.103353,-0.113688 0.103353,-0.306613 0,-0.18259 -0.09818,-0.289387 -0.09819,-0.106798 -0.239434,-0.106798 -0.09302,0 -0.222208,0.03617 l 0.0534,-0.394462 q 0.19637,0.0052 0.299723,-0.08441 0.103352,-0.0913 0.103352,-0.241156 0,-0.127468 -0.07579,-0.20326 -0.07579,-0.07579 -0.201537,-0.07579 -0.124024,0 -0.211873,0.08613 -0.08785,0.08613 -0.106798,0.251492 l -0.4461389,-0.07579 q 0.046509,-0.229099 0.1395261,-0.36518 0.09474,-0.137803 0.2618268,-0.215318 0.168809,-0.07924 0.377237,-0.07924 0.356567,0 0.571885,0.227376 0.177422,0.186035 0.177422,0.420301 0,0.332451 -0.363457,0.530543 0.21704,0.04651 0.346231,0.208428 0.130913,0.161919 0.130913,0.391018 0,0.332451 -0.242878,0.566717 -0.242879,0.234266 -0.604613,0.234266 -0.342786,0 -0.56844,-0.19637 Q 9.8018191,77.025161 9.7656457,76.70649 Z"
         id="path26577" />
    </g>
    <g
       aria-label="In 2"
       id="text6374-3-8-78"
       style="font-weight:bold;font-size:3.52777px;line-height:1.25;font-family:Arial;-inkscape-font-specification:'Arial Bold';text-align:center;text-anchor:middle;display:inline;opacity:1;fill:#9bc1bc;stroke-width:0.264583"
       transform="translate(50.8,4.5048956)">
      <path
         d="m 5.7590003,56.565952 v -2.525249 h 0.5098731 v 2.525249 z"
         id="path26566" />
      <path
         d="M 8.4151631,56.565952 H 7.9311283 v -0.933619 q 0,-0.296277 -0.031006,-0.382404 -0.031006,-0.08785 -0.1016301,-0.136081 -0.068902,-0.04823 -0.1670868,-0.04823 -0.1257457,0 -0.2256532,0.0689 -0.099908,0.0689 -0.1378035,0.18259 -0.036174,0.113688 -0.036174,0.420301 v 0.828543 H 6.7477406 v -1.829341 h 0.449584 v 0.268716 q 0.2394336,-0.310057 0.6028903,-0.310057 0.1601966,0 0.2928325,0.05857 0.1326359,0.05684 0.1998151,0.146416 0.068902,0.08957 0.09474,0.20326 0.027561,0.113688 0.027561,0.325561 z"
         id="path26568" />
      <path
         d="m 11.417557,56.116368 v 0.449584 H 9.7208515 q 0.027561,-0.254936 0.1653643,-0.482312 0.1378032,-0.229098 0.5443242,-0.606335 0.327283,-0.304891 0.401352,-0.413411 0.09991,-0.149861 0.09991,-0.296278 0,-0.161919 -0.08785,-0.248046 -0.08613,-0.08785 -0.239433,-0.08785 -0.151584,0 -0.241157,0.0913 -0.08957,0.0913 -0.103352,0.303168 l -0.4823125,-0.04823 q 0.043064,-0.399631 0.2704395,-0.573607 0.227376,-0.173977 0.568439,-0.173977 0.373792,0 0.587388,0.201537 0.213595,0.201538 0.213595,0.501261 0,0.170531 -0.06201,0.32556 -0.06029,0.153307 -0.192925,0.322116 -0.08785,0.111965 -0.316948,0.322116 -0.229099,0.21015 -0.29111,0.279052 -0.06029,0.0689 -0.09818,0.134358 z"
         id="path26570" />
    </g>
    <g
       aria-label="In 1"
       id="text6374-3-8-5"
       style="font-weight:bold;font-size:3.52777px;line-height:1.25;font-family:Arial;-inkscape-font-specification:'Arial Bold';text-align:center;text-anchor:middle;display:inline;opacity:1;fill:#9bc1bc;stroke-width:0.264583"
       transform="translate(50.8,4.5048988)">
      <path
         d="M 5.7590003,35.733799 V 33.20855 h 0.5098731 v 2.525249 z"
         id="path26559" />
      <path
         d="M 8.4151631,35.733799 H 7.9311283 V 34.80018 q 0,-0.296277 -0.031006,-0.382405 -0.031006,-0.08785 -0.1016301,-0.136081 -0.068902,-0.04823 -0.1670868,-0.04823 -0.1257457,0 -0.2256532,0.0689 -0.099908,0.0689 -0.1378035,0.18259 -0.036174,0.113688 -0.036174,0.4203 v 0.828544 H 6.7477406 v -1.829342 h 0.449584 v 0.268717 q 0.2394336,-0.310058 0.6028903,-0.310058 0.1601966,0 0.2928325,0.05857 0.1326359,0.05684 0.1998151,0.146416 0.068902,0.08957 0.09474,0.20326 0.027561,0.113688 0.027561,0.325561 z"
         id="path26561" />
      <path
         d="m 11.021372,35.733799 h -0.484035 v -1.824174 q -0.265271,0.248046 -0.6252831,0.366902 v -0.439249 q 0.1894801,-0.06201 0.4116881,-0.234266 0.222208,-0.173977 0.30489,-0.404798 h 0.39274 z"
         id="path26563"
         style="fill:#9bc1bc;fill-opacity:1" />
    </g>
    <g
       aria-label="3/4"
       id="text40365-2"
       style="font-weight:bold;font-size:3.52777px;line-height:1.25;font-family:Arial;-inkscape-font-specification:'Arial Bold';text-align:center;text-anchor:middle;display:inline;opacity:1;stroke-width:0.264583"
       transform="translate(0,4.7625003)">
      <path
         d="m 7.6511756,48.883077 0.468532,-0.05684 q 0.022393,0.179144 0.120578,0.273884 0.098185,0.09474 0.2377111,0.09474 0.1498613,0 0.2514914,-0.113688 0.1033527,-0.113688 0.1033527,-0.306613 0,-0.182589 -0.098185,-0.289387 -0.098185,-0.106798 -0.2394337,-0.106798 -0.093017,0 -0.2222081,0.03617 l 0.053399,-0.394463 q 0.1963701,0.0052 0.2997227,-0.0844 0.1033526,-0.0913 0.1033526,-0.241157 0,-0.127468 -0.075792,-0.20326 -0.075792,-0.07579 -0.2015377,-0.07579 -0.1240231,0 -0.2118729,0.08613 -0.08785,0.08613 -0.1067977,0.251492 l -0.446139,-0.0758 q 0.046509,-0.229098 0.1395261,-0.365179 0.09474,-0.137804 0.2618267,-0.215318 0.1688093,-0.07924 0.3772371,-0.07924 0.3565666,0 0.5718846,0.227375 0.177422,0.186035 0.177422,0.420301 0,0.332451 -0.3634568,0.530544 0.2170406,0.04651 0.3462314,0.208428 0.1309133,0.161919 0.1309133,0.391017 0,0.332451 -0.2428787,0.566717 -0.2428787,0.234266 -0.6046129,0.234266 -0.3427863,0 -0.5684395,-0.19637 -0.2256533,-0.19809 -0.2618267,-0.516761 z"
         style="fill:#9bc1bc"
         id="path77515" />
      <path
         d="M 9.4753497,49.59621 10.100633,46.984833 H 10.46409 L 9.8319163,49.59621 Z"
         style="fill:#9bc1bc"
         id="path77517" />
      <path
         d="m 11.559628,49.553146 v -0.50815 H 10.526101 V 48.62125 l 1.095538,-1.603688 h 0.406521 v 1.601966 h 0.313503 v 0.425468 H 12.02816 v 0.50815 z m 0,-0.933618 v -0.862995 l -0.580497,0.862995 z"
         style="fill:#9bc1bc"
         id="path77519" />
    </g>
  </g>
  <g
     inkscape:groupmode="layer"
     id="layer6"
     inkscape:label="screen"
     style="display:inline">
    <path
       style="display:inline;fill:#000000;fill-opacity:1;stroke:none;stroke-width:0.799999;stroke-linecap:round;stroke-miterlimit:4;stroke-dasharray:none;stroke-opacity:1"
       id="rect34080"
       width="44.715515"
       height="79.352303"
       x="-120.4057"
       y="30.728809"
       transform="scale(-1,1)"
       inkscape:path-effect="#path-effect34466"
       d="m -120.27341,30.728809 h 44.450933 a 0.13229167,0.13229167 45 0 1 0.132291,0.132292 l 0,79.087719 a 0.13229167,0.13229167 135 0 1 -0.132291,0.13229 h -44.450933 a 0.13229167,0.13229167 45 0 1 -0.13229,-0.13229 V 30.861101 a 0.13229167,0.13229167 135 0 1 0.13229,-0.132292 z"
       sodipodi:type="rect" />
  </g>
  <g
     inkscape:groupmode="layer"
     id="layer4"
     inkscape:label="components"
     style="display:none">
    <g
       id="g32589"
       transform="translate(3.0900023,-0.89194748)"
       style="display:inline;fill:#000000">
      <path
         style="display:inline;fill:#000000;fill-opacity:1;stroke-width:0.264583"
         id="rect5716"
         width="12.232584"
         height="7.0776062"
         x="51.349422"
         y="13.018433"
         inkscape:path-effect="#path-effect5897"
         sodipodi:type="rect"
         d="M 51.878589,13.018433 H 63.05284 a 0.52916667,0.52916667 45 0 1 0.529166,0.529166 v 6.019273 A 0.52916667,0.52916667 135 0 1 63.05284,20.096039 H 51.878589 a 0.52916667,0.52916667 45 0 1 -0.529167,-0.529167 v -6.019273 a 0.52916667,0.52916667 135 0 1 0.529167,-0.529166 z" />
      <g
         aria-label="88"
         id="text32882"
         style="font-size:6.76269px;line-height:1.25;font-family:Arial;-inkscape-font-specification:Arial;display:inline;fill:#000000;fill-opacity:1;stroke-width:0.169067"
         transform="translate(31.902547,-22.832606)">
        <path
           d="m 23.404178,39.056545 -0.290291,0.225781 -0.263411,-0.21503 v -1.392318 l 0.263411,-0.21503 0.290291,0.231157 z m -0.403181,-1.714863 -0.263412,0.231157 h -1.860008 l -0.252661,-0.225782 0.263412,-0.241908 h 1.843881 z m 0.403181,3.746895 -0.290291,0.225782 -0.263411,-0.21503 v -1.381567 l 0.263411,-0.21503 0.290291,0.231157 z m -0.403181,-1.687984 -0.263412,0.225781 h -1.860008 l -0.252661,-0.220406 0.268788,-0.247284 h 1.843881 z m -2.187929,-0.344048 -0.290291,0.225781 -0.263411,-0.21503 v -1.392318 l 0.263411,-0.21503 0.290291,0.231157 z m 2.187929,2.37608 -0.263412,0.241909 h -1.843881 l -0.268788,-0.241909 0.252661,-0.231157 h 1.860008 z m -2.187929,-0.344048 -0.290291,0.225782 -0.263411,-0.21503 v -1.381567 l 0.263411,-0.21503 0.290291,0.231157 z"
           style="font-family:'Digital Display';-inkscape-font-specification:'Digital Display';fill:#000000;fill-opacity:1"
           id="path37702" />
        <path
           d="m 27.163682,39.056545 -0.29029,0.225781 -0.263411,-0.21503 v -1.392318 l 0.263411,-0.21503 0.29029,0.231157 z m -0.403181,-1.714863 -0.263411,0.231157 h -1.860009 l -0.25266,-0.225782 0.263412,-0.241908 h 1.843881 z m 0.403181,3.746895 -0.29029,0.225782 -0.263411,-0.21503 v -1.381567 l 0.263411,-0.21503 0.29029,0.231157 z m -0.403181,-1.687984 -0.263411,0.225781 h -1.860009 l -0.25266,-0.220406 0.268788,-0.247284 h 1.843881 z m -2.187929,-0.344048 -0.29029,0.225781 -0.263412,-0.21503 v -1.392318 l 0.263412,-0.21503 0.29029,0.231157 z m 2.187929,2.37608 -0.263411,0.241909 h -1.843881 l -0.268788,-0.241909 0.25266,-0.231157 h 1.860009 z m -2.187929,-0.344048 -0.29029,0.225782 -0.263412,-0.21503 v -1.381567 l 0.263412,-0.21503 0.29029,0.231157 z"
           style="font-family:'Digital Display';-inkscape-font-specification:'Digital Display';fill:#000000;fill-opacity:1"
           id="path37704" />
        <path
           d="m 30.923188,39.056545 -0.29029,0.225781 -0.263411,-0.21503 v -1.392318 l 0.263411,-0.21503 0.29029,0.231157 z m -0.403181,-1.714863 -0.263411,0.231157 h -1.860009 l -0.25266,-0.225782 0.263412,-0.241908 h 1.843881 z m 0.403181,3.746895 -0.29029,0.225782 -0.263411,-0.21503 v -1.381567 l 0.263411,-0.21503 0.29029,0.231157 z m -0.403181,-1.687984 -0.263411,0.225781 h -1.860009 l -0.25266,-0.220406 0.268788,-0.247284 h 1.843881 z m -2.187929,-0.344048 -0.29029,0.225781 -0.263412,-0.21503 v -1.392318 l 0.263412,-0.21503 0.29029,0.231157 z m 2.187929,2.37608 -0.263411,0.241909 h -1.843881 l -0.268788,-0.241909 0.25266,-0.231157 h 1.860009 z m -2.187929,-0.344048 -0.29029,0.225782 -0.263412,-0.21503 v -1.381567 l 0.263412,-0.21503 0.29029,0.231157 z"
           style="font-size:6.76269px;line-height:1.25;font-family:'Digital Display';-inkscape-font-specification:'Digital Display';display:inline;fill:#000000;fill-opacity:1;stroke-width:0.169067"
           id="path37704-8" />
      </g>
    </g>
    <circle
       style="display:inline;fill:#ff0000;fill-opacity:1;stroke-width:0.765;stroke-miterlimit:4;stroke-dasharray:none"
       id="circle81683-1"
       cx="45.50906"
       cy="16.557236"
       r="4.1341147"
       inkscape:label="knob_pattern_select" />
    <ellipse
       style="display:inline;fill:#00ff00;fill-opacity:1;stroke-width:0.493086"
       id="path846-6-3-9-8-5"
       cx="75.715874"
       cy="16.557236"
       inkscape:label="INPUT_PATTERN_RESET"
       rx="4.2340002"
       ry="4.2340055" />
    <ellipse
       style="display:inline;fill:#00ff00;fill-opacity:1;stroke-width:0.493086"
       id="path846-6-3-9-8-5-6"
       cx="90.81929"
       cy="16.557236"
       inkscape:label="INPUT_PATTERN_STEP"
       rx="4.2340002"
       ry="4.2340055" />
    <circle
       style="display:inline;fill:#0000ff;fill-opacity:1;stroke-width:0.765;stroke-miterlimit:4;stroke-dasharray:none"
       id="OUTPUT_GATE_OUT"
       cx="140.36633"
       cy="80.635201"
       r="4.1341147"
       inkscape:label="OUTPUT_OUT_3" />
    <circle
       style="display:inline;fill:#0000ff;fill-opacity:1;stroke-width:0.765;stroke-miterlimit:4;stroke-dasharray:none"
       id="OUTPUT_GATE_OUT-7"
       cx="140.36633"
       cy="59.803059"
       r="4.1341147"
       inkscape:label="OUTPUT_OUT_2" />
    <circle
       style="display:inline;fill:#0000ff;fill-opacity:1;stroke-width:0.765;stroke-miterlimit:4;stroke-dasharray:none"
       id="OUTPUT_GATE_OUT-0"
       cx="140.36633"
       cy="38.970905"
       r="4.1341147"
       inkscape:label="OUTPUT_OUT_1" />
    <circle
       style="display:inline;fill:#0000ff;fill-opacity:1;stroke-width:0.765;stroke-miterlimit:4;stroke-dasharray:none"
       id="OUT_END"
       cx="140.36633"
       cy="101.46736"
       r="4.1341147"
       inkscape:label="OUTPUT_OUT_4" />
    <ellipse
       style="display:inline;fill:#00ff00;fill-opacity:1;stroke-width:0.493086"
       id="path846-6"
       cx="68.06282"
       cy="38.970905"
       inkscape:label="INPUT_IN_1"
       rx="4.2340002"
       ry="4.2340055" />
    <circle
       style="display:inline;fill:#00ff00;fill-opacity:1;stroke-width:0.493086"
       id="path846-1-0"
       cx="68.063004"
       cy="59.803059"
       r="4.2340055"
       inkscape:label="INPUT_IN_2" />
    <circle
       style="display:inline;fill:#00ff00;fill-opacity:1;stroke-width:0.493086"
       id="path846-1-0-2"
       cx="68.06282"
       cy="80.635201"
       r="4.2340055"
       inkscape:label="INPUT_IN_3" />
    <circle
       style="display:inline;fill:#00ff00;fill-opacity:1;stroke-width:0.493086"
       id="path846-1-0-0"
       cx="68.06282"
       cy="101.46736"
       r="4.2340055"
       inkscape:label="INPUT_IN_4" />
    <ellipse
       style="display:inline;fill:#00ff00;fill-opacity:1;stroke-width:0.493086"
       id="path846-6-3-9-8"
       cx="41.063026"
       cy="38.970905"
       inkscape:label="INPUT_CONTROL_RANDOM"
       rx="4.2340002"
       ry="4.2340055" />
    <ellipse
       style="display:inline;fill:#00ff00;fill-opacity:1;stroke-width:0.493086"
       id="path846-6-3-9-2"
       cx="41.063026"
       cy="59.803059"
       inkscape:label="INPUT_CONTROL_UNDO"
       rx="4.2340002"
       ry="4.2340055" />
    <ellipse
       style="display:inline;fill:#00ff00;fill-opacity:1;stroke-width:0.493086"
       id="path846-6-3-9-2-5"
       cx="41.063026"
       cy="80.635201"
       inkscape:label="INPUT_CONTROL_REDO"
       rx="4.2340002"
       ry="4.2340055" />
    <ellipse
       style="display:inline;fill:#00ff00;fill-opacity:1;stroke-width:0.493086"
       id="path846-6-3-9-2-8"
       cx="41.063026"
       cy="101.46736"
       inkscape:label="INPUT_CONTROL_RESET"
       rx="4.2340002"
       ry="4.2340055" />
    <ellipse
       style="display:inline;fill:#00ff00;fill-opacity:1;stroke-width:0.493086"
       id="path846-6-3-9"
       cx="25.529724"
       cy="38.970905"
       inkscape:label="INPUT_CONTROL_1_3"
       rx="4.2340002"
       ry="4.2340055" />
    <ellipse
       style="display:inline;fill:#00ff00;fill-opacity:1;stroke-width:0.493086"
       id="path846-6-3-4"
       cx="25.529724"
       cy="59.803059"
       inkscape:label="INPUT_CONTROL_2_4"
       rx="4.2340002"
       ry="4.2340055" />
    <ellipse
       style="display:inline;fill:#00ff00;fill-opacity:1;stroke-width:0.493086"
       id="path846-6-3-6"
       cx="9.996419"
       cy="80.635201"
       inkscape:label="INPUT_CONTROL_2_3"
       rx="4.2340002"
       ry="4.2340055" />
    <ellipse
       style="display:inline;fill:#00ff00;fill-opacity:1;stroke-width:0.493086"
       id="path846-6-3-5"
       cx="9.996419"
       cy="101.46736"
       inkscape:label="INPUT_CONTROL_1_4"
       rx="4.2340002"
       ry="4.2340055" />
    <ellipse
       style="display:inline;fill:#00ff00;fill-opacity:1;stroke-width:0.493086"
       id="path846-6-3-8"
       cx="9.996419"
       cy="59.803059"
       inkscape:label="INPUT_CONTROL_3_4"
       rx="4.2340002"
       ry="4.2340055" />
    <ellipse
       style="display:inline;fill:#00ff00;fill-opacity:1;stroke-width:0.493086"
       id="path846-6-3"
       cx="9.996419"
       cy="38.970905"
       inkscape:label="INPUT_CONTROL_1_2"
       rx="4.2340002"
       ry="4.2340055" />
    <ellipse
       style="display:inline;fill:#00ff00;fill-opacity:1;stroke-width:0.493086"
       id="path846-6-3-9-0"
       cx="25.529724"
       cy="80.635201"
       inkscape:label="INPUT_CONTROL_SHIFT_UP"
       rx="4.2340002"
       ry="4.2340055" />
    <ellipse
       style="display:inline;fill:#00ff00;fill-opacity:1;stroke-width:0.493086"
       id="path846-6-3-9-3"
       cx="25.529724"
       cy="101.46736"
       inkscape:label="INPUT_CONTROL_SHIFT_DOWN"
       rx="4.2340002"
       ry="4.2340055" />
  </g>
</svg>
