<?xml version="1.0" encoding="UTF-8" standalone="no"?>
<!-- Created with Inkscape (http://www.inkscape.org/) -->

<svg
   width="66.040001mm"
   height="128.5mm"
   viewBox="0 0 66.040002 128.5"
   version="1.1"
   id="svg5"
   inkscape:version="1.1.1 (3bf5ae0d25, 2021-09-20)"
   sodipodi:docname="SequelSave.svg"
   xmlns:inkscape="http://www.inkscape.org/namespaces/inkscape"
   xmlns:sodipodi="http://sodipodi.sourceforge.net/DTD/sodipodi-0.dtd"
   xmlns="http://www.w3.org/2000/svg"
   xmlns:svg="http://www.w3.org/2000/svg">
  <sodipodi:namedview
     id="namedview7"
     pagecolor="#000015"
     bordercolor="#666666"
     borderopacity="1.0"
     inkscape:pageshadow="2"
     inkscape:pageopacity="0.14901961"
     inkscape:pagecheckerboard="0"
     inkscape:document-units="mm"
     showgrid="false"
     inkscape:zoom="1.2810466"
     inkscape:cx="113.57901"
     inkscape:cy="245.50239"
     inkscape:window-width="1920"
     inkscape:window-height="1009"
     inkscape:window-x="1912"
     inkscape:window-y="-8"
     inkscape:window-maximized="1"
     inkscape:current-layer="layer3"
     width="91.44mm"
     height="128.5mm"
     showguides="false"
     inkscape:guide-bbox="true">
    <inkscape:grid
       type="xygrid"
       id="grid937" />
    <sodipodi:guide
       position="44.405424,117.88917"
       orientation="0,-1"
       id="guide2270" />
  </sodipodi:namedview>
  <defs
     id="defs2">
    <inkscape:path-effect
       effect="skeletal"
       id="path-effect1216"
       is_visible="true"
       lpeversion="1"
       pattern="m -52.046825,-40.142229 h 1.212436"
       copytype="single_stretched"
       prop_scale="4"
       scale_y_rel="false"
       spacing="0"
       normal_offset="0"
       tang_offset="0"
       prop_units="false"
       vertical_pattern="false"
       hide_knot="false"
       fuse_tolerance="0" />
    <inkscape:path-effect
       effect="skeletal"
       id="path-effect1195"
       is_visible="true"
       lpeversion="1"
       pattern="M 0,0 H 1"
       copytype="single_stretched"
       prop_scale="4"
       scale_y_rel="false"
       spacing="0"
       normal_offset="0"
       tang_offset="0"
       prop_units="false"
       vertical_pattern="false"
       hide_knot="false"
       fuse_tolerance="0" />
  </defs>
  <g
     inkscape:groupmode="layer"
     id="layer3"
     inkscape:label="background"
     style="display:inline;opacity:1">
    <rect
       style="opacity:1;fill:#0b2027;stroke-width:0.557795;fill-opacity:1"
       id="rect1018"
       width="66.040001"
       height="128.5"
       x="2.220446e-16"
       y="0" />
    <g
       id="g130949"
       transform="matrix(0.99999624,0,0,1,-151.81709,0.26417965)"
       style="display:inline">
      <rect
         style="display:inline;fill:#f4f1bb;fill-opacity:1;stroke-width:1.09761;stroke-miterlimit:4;stroke-dasharray:none"
         id="rect93213"
         width="3.5"
         height="131.71765"
         x="226.38889"
         y="-100.11375"
         transform="rotate(45)" />
      <rect
         style="display:inline;fill:#9bc1bc;fill-opacity:1;stroke-width:1.09761;stroke-miterlimit:4;stroke-dasharray:none"
         id="rect93233"
         width="3.5"
         height="131.71765"
         x="229.88889"
         y="-100.11375"
         transform="rotate(45)" />
      <rect
         style="display:inline;fill:#ed6a5a;fill-opacity:1;stroke-width:1.09761;stroke-miterlimit:4;stroke-dasharray:none"
         id="rect93109"
         width="3.5"
         height="131.71765"
         x="222.88844"
         y="-100.11375"
         transform="rotate(45)" />
    </g>
    <g
       aria-label="Daniel Davies"
       id="text158043"
       style="font-size:4.93889px;line-height:1.25;display:inline;stroke-width:0.264583"
       transform="translate(-88.9,-0.41992)">
      <g
         id="g46703"
         transform="translate(14.95093)">
        <path
           d="m 106.74159,123.09153 q 0,0.50161 -0.2291,0.89951 -0.22909,0.3955 -0.57877,0.60772 -0.26286,0.15916 -0.57637,0.22186 -0.3135,0.0627 -0.74276,0.0627 h -1.26607 v -3.59082 h 1.30224 q 0.43891,0 0.75724,0.0748 0.31832,0.0724 0.53536,0.20739 0.37139,0.22669 0.5836,0.61254 0.21463,0.38344 0.21463,0.90434 z m -0.95739,-0.007 q 0,-0.3545 -0.13022,-0.6053 -0.12782,-0.25321 -0.40756,-0.3955 -0.14228,-0.0699 -0.2918,-0.094 -0.1471,-0.0265 -0.44614,-0.0265 h -0.23392 v 2.24758 h 0.23392 q 0.33039,0 0.48473,-0.0289 0.15434,-0.0314 0.30144,-0.11093 0.25322,-0.1447 0.37138,-0.38586 0.11817,-0.24356 0.11817,-0.60048 z"
           style="fill:#ed6a5a"
           id="path170552" />
        <path
           d="m 110.58962,123.09153 q 0,0.50161 -0.2291,0.89951 -0.2291,0.3955 -0.57877,0.60772 -0.26286,0.15916 -0.57637,0.22186 -0.3135,0.0627 -0.74276,0.0627 h -1.26607 v -3.59082 h 1.30224 q 0.43891,0 0.75723,0.0748 0.31833,0.0724 0.53537,0.20739 0.37138,0.22669 0.5836,0.61254 0.21463,0.38344 0.21463,0.90434 z m -0.95739,-0.007 q 0,-0.3545 -0.13023,-0.6053 -0.12781,-0.25321 -0.40755,-0.3955 -0.14228,-0.0699 -0.2918,-0.094 -0.14711,-0.0265 -0.44614,-0.0265 h -0.23392 v 2.24758 h 0.23392 q 0.33038,0 0.48473,-0.0289 0.15434,-0.0314 0.30144,-0.11093 0.25322,-0.1447 0.37138,-0.38586 0.11817,-0.24356 0.11817,-0.60048 z"
           style="fill:#9bc1bc"
           id="path170564" />
      </g>
    </g>
    <g
       id="g935"
       transform="matrix(0.01543538,0,0,0.01543538,40.652439,11.868014)">
      <g
         id="g880"
         style="fill:#9bc1bc;fill-opacity:1">
        <path
           id="polygon876"
           d="M 288.12939,231.35339 V -81.448102 h -7e-5 -5e-5 -86.25855 -1e-4 V 231.35339 l -3e-5,-4e-5 L 96.014084,97.725355 v 0 l -9e-5,8e-5 v 0 l -67.61288,53.573185 216.598896,273.37555 6e-5,-8e-5 216.59881,-273.37547 -67.61297,-53.573265 z"
           sodipodi:nodetypes="cccccccccccc"
           style="fill:#9bc1bc;fill-opacity:1;stroke-width:1.87772" />
        <path
           id="rect878"
           d="M 15.999036,470.2225 H 473.97285 v 74.34711 2e-5 h -457.973761 -5.3e-5 z"
           style="fill:#9bc1bc;fill-opacity:1" />
      </g>
      <g
         id="g882" />
      <g
         id="g884" />
      <g
         id="g886" />
      <g
         id="g888" />
      <g
         id="g890" />
      <g
         id="g892" />
      <g
         id="g894" />
      <g
         id="g896" />
      <g
         id="g898" />
      <g
         id="g900" />
      <g
         id="g902" />
      <g
         id="g904" />
      <g
         id="g906" />
      <g
         id="g908" />
      <g
         id="g910" />
    </g>
  </g>
  <g
     inkscape:label="Layer 1"
     inkscape:groupmode="layer"
     id="layer1"
     style="display:inline">
    <g
       aria-label="Load"
       id="text14059-0"
       style="font-size:3.52777px;line-height:1.25;font-family:Arial;-inkscape-font-specification:Arial;display:inline;stroke-width:0.264583"
       transform="translate(8.6841052,4.2334339)">
      <path
         d="m 36.962979,28.043818 v -2.504579 h 0.509873 v 2.07911 h 1.267792 v 0.425469 z"
         style="font-weight:bold;fill:#9bc1bc"
         id="path24810" />
      <path
         d="m 38.98869,27.103309 q 0,-0.241157 0.118856,-0.46681 0.118855,-0.225653 0.335896,-0.344509 0.218763,-0.118855 0.48748,-0.118855 0.415133,0 0.680405,0.270439 0.265271,0.268717 0.265271,0.680405 0,0.415133 -0.268716,0.689018 -0.266995,0.272162 -0.673515,0.272162 -0.251492,0 -0.48059,-0.113688 Q 39.226401,27.857783 39.107546,27.63902 38.98869,27.418534 38.98869,27.103309 Z m 0.496093,0.02584 q 0,0.272162 0.129191,0.416855 0.129191,0.144694 0.31867,0.144694 0.18948,0 0.316948,-0.144694 0.129191,-0.144693 0.129191,-0.4203 0,-0.268717 -0.129191,-0.413411 -0.127468,-0.144694 -0.316948,-0.144694 -0.189479,0 -0.31867,0.144694 -0.129191,0.144694 -0.129191,0.416856 z"
         style="font-weight:bold;fill:#9bc1bc"
         id="path24812" />
      <path
         d="m 41.617292,26.77258 -0.439248,-0.07924 q 0.07407,-0.265272 0.254936,-0.39274 0.180867,-0.127468 0.537434,-0.127468 0.323838,0 0.482312,0.07751 0.158474,0.07579 0.222208,0.194648 0.06546,0.117133 0.06546,0.432358 l -0.0052,0.564995 q 0,0.241156 0.02239,0.356566 0.02412,0.113688 0.08785,0.244602 h -0.478867 q -0.01895,-0.04823 -0.04651,-0.142972 -0.01206,-0.04306 -0.01723,-0.05684 -0.124023,0.120578 -0.265272,0.180868 -0.141249,0.06029 -0.301445,0.06029 -0.282497,0 -0.446139,-0.153307 -0.161919,-0.153306 -0.161919,-0.387572 0,-0.155029 0.07407,-0.275607 0.07407,-0.122301 0.206706,-0.186035 0.134358,-0.06546 0.385849,-0.113688 0.339342,-0.06373 0.470255,-0.118855 v -0.04823 q 0,-0.139526 -0.0689,-0.198092 -0.0689,-0.06029 -0.260104,-0.06029 -0.129191,0 -0.201538,0.05168 -0.07235,0.04995 -0.117133,0.177422 z m 0.647677,0.39274 q -0.09302,0.03101 -0.294555,0.07407 -0.201538,0.04306 -0.263549,0.08441 -0.09474,0.06718 -0.09474,0.170532 0,0.10163 0.07579,0.175699 0.07579,0.07407 0.192925,0.07407 0.130913,0 0.249768,-0.08613 0.08785,-0.06546 0.115411,-0.160197 0.01895,-0.06201 0.01895,-0.235988 z"
         style="font-weight:bold;fill:#9bc1bc"
         id="path24814" />
      <path
         d="m 44.895293,28.043818 h -0.449584 v -0.268717 q -0.111965,0.156751 -0.265271,0.234266 -0.151584,0.07579 -0.306613,0.07579 -0.315226,0 -0.540879,-0.253214 -0.223931,-0.254937 -0.223931,-0.709689 0,-0.465086 0.218763,-0.706243 0.218763,-0.242878 0.552937,-0.242878 0.306613,0 0.530544,0.254936 v -0.909503 h 0.484034 z m -1.291908,-0.95429 q 0,0.292833 0.08096,0.423746 0.117133,0.18948 0.327283,0.18948 0.167087,0 0.28422,-0.141249 0.117133,-0.142971 0.117133,-0.425468 0,-0.315226 -0.113688,-0.453029 -0.113688,-0.139526 -0.29111,-0.139526 -0.172254,0 -0.289387,0.137803 -0.115411,0.136081 -0.115411,0.408243 z"
         style="font-weight:bold;fill:#9bc1bc"
         id="path24816" />
    </g>
    <rect
       style="display:inline;fill:#5d576b;fill-opacity:1;stroke-width:0.644835;stroke-miterlimit:4;stroke-dasharray:none"
       id="rect104115-4-9-6"
       width="2.1515198"
       height="17.081532"
       x="59.411407"
       y="-58.637291"
       transform="rotate(90)" />
    <rect
       style="display:inline;fill:#5d576b;fill-opacity:1;stroke-width:0.644835;stroke-miterlimit:4;stroke-dasharray:none"
       id="rect104115-4-9-0"
       width="2.1515198"
       height="17.081532"
       x="80.233772"
       y="-58.637291"
       transform="rotate(90)" />
    <rect
       style="display:inline;fill:#5d576b;fill-opacity:1;stroke-width:0.644835;stroke-miterlimit:4;stroke-dasharray:none"
       id="rect104115-4-9-3"
       width="2.1515198"
       height="17.081532"
       x="101.05615"
       y="-58.637295"
       transform="rotate(90)" />
    <g
       aria-label="Save"
       id="text14059"
       style="font-size:3.52777px;line-height:1.25;font-family:Arial;-inkscape-font-specification:Arial;display:inline;stroke-width:0.264583"
       transform="translate(0.32564492,4.2333336)">
      <path
         d="m 12.115738,27.218719 0.496093,-0.04823 q 0.04479,0.249769 0.180867,0.366902 0.137803,0.117133 0.370347,0.117133 0.246324,0 0.370347,-0.103353 0.125745,-0.105075 0.125745,-0.244601 0,-0.08957 -0.0534,-0.151584 -0.05168,-0.06373 -0.18259,-0.110243 -0.08957,-0.03101 -0.408243,-0.110242 -0.409965,-0.10163 -0.57533,-0.249769 -0.232543,-0.208428 -0.232543,-0.508151 0,-0.192925 0.10852,-0.360011 0.110243,-0.16881 0.315226,-0.256659 0.206705,-0.08785 0.497815,-0.08785 0.475422,0 0.714856,0.208428 0.241156,0.208427 0.253214,0.556381 l -0.509873,0.02239 q -0.03273,-0.194647 -0.141249,-0.279052 -0.106798,-0.08613 -0.322116,-0.08613 -0.222208,0 -0.347954,0.0913 -0.08096,0.05857 -0.08096,0.156751 0,0.08957 0.07579,0.153307 0.09646,0.08096 0.468532,0.168809 0.372069,0.08785 0.549491,0.18259 0.179145,0.09302 0.279052,0.256659 0.10163,0.161919 0.10163,0.401353 0,0.21704 -0.120578,0.40652 -0.120578,0.18948 -0.341063,0.282497 -0.220486,0.0913 -0.549492,0.0913 -0.478867,0 -0.735526,-0.220486 -0.256659,-0.222208 -0.306613,-0.645954 z"
         style="font-weight:bold;fill:#9bc1bc"
         id="path24819" />
      <path
         d="m 14.956213,26.769135 -0.439249,-0.07924 q 0.07407,-0.265271 0.254937,-0.39274 0.180867,-0.127468 0.537434,-0.127468 0.323838,0 0.482312,0.07752 0.158474,0.07579 0.222208,0.194647 0.06546,0.117133 0.06546,0.432359 l -0.0052,0.564994 q 0,0.241156 0.02239,0.356567 0.02412,0.113688 0.08785,0.244601 H 15.70552 q -0.01895,-0.04823 -0.04651,-0.142971 -0.01206,-0.04306 -0.01722,-0.05684 -0.124024,0.120578 -0.265272,0.180867 -0.141249,0.06029 -0.301445,0.06029 -0.282498,0 -0.446139,-0.153307 -0.161919,-0.153306 -0.161919,-0.387572 0,-0.155029 0.07407,-0.275607 0.07407,-0.122301 0.206705,-0.186035 0.134359,-0.06546 0.38585,-0.113688 0.339341,-0.06373 0.470255,-0.118855 v -0.04823 q 0,-0.139526 -0.0689,-0.198093 -0.0689,-0.06029 -0.260104,-0.06029 -0.129191,0 -0.201538,0.05168 -0.07235,0.04995 -0.117133,0.177422 z m 0.647677,0.39274 q -0.09302,0.03101 -0.294555,0.07407 -0.201538,0.04306 -0.26355,0.0844 -0.09474,0.06718 -0.09474,0.170532 0,0.10163 0.07579,0.1757 0.07579,0.07407 0.192925,0.07407 0.130914,0 0.249769,-0.08613 0.08785,-0.06546 0.115411,-0.160197 0.01895,-0.06201 0.01895,-0.235988 z"
         style="font-weight:bold;fill:#9bc1bc"
         id="path24821" />
      <path
         d="m 17.059439,28.040373 -0.737248,-1.829342 h 0.50815 l 0.344509,0.933619 0.09991,0.31178 q 0.03962,-0.118855 0.04995,-0.156751 0.02412,-0.07752 0.05168,-0.155029 l 0.347953,-0.933619 h 0.497816 l -0.726914,1.829342 z"
         style="font-weight:bold;fill:#9bc1bc"
         id="path24823" />
      <path
         d="m 19.577799,27.458153 0.482312,0.08096 q -0.09302,0.265271 -0.294555,0.404797 -0.199815,0.137804 -0.50126,0.137804 -0.477145,0 -0.706243,-0.311781 -0.180867,-0.249768 -0.180867,-0.630451 0,-0.454751 0.237711,-0.71141 0.237711,-0.258382 0.601167,-0.258382 0.408243,0 0.644232,0.27044 0.235988,0.268716 0.225653,0.825098 h -1.212671 q 0.0052,0.215318 0.117133,0.335896 0.111966,0.118856 0.279052,0.118856 0.113688,0 0.191203,-0.06201 0.07751,-0.06201 0.117133,-0.199815 z m 0.02756,-0.489202 q -0.0052,-0.210151 -0.10852,-0.318671 -0.103353,-0.110243 -0.251491,-0.110243 -0.158474,0 -0.261827,0.11541 -0.103353,0.115411 -0.10163,0.313504 z"
         style="font-weight:bold;fill:#9bc1bc"
         id="path24825" />
    </g>
    <rect
       style="display:inline;fill:#5d576b;fill-opacity:1;stroke-width:0.66532;stroke-miterlimit:4;stroke-dasharray:none"
       id="rect104115-4-2"
       width="2.1515198"
       height="18.184055"
       x="59.411308"
       y="-24.828308"
       transform="rotate(90)" />
    <rect
       style="display:inline;fill:#5d576b;fill-opacity:1;stroke-width:0.66532;stroke-miterlimit:4;stroke-dasharray:none"
       id="rect104115-4-5"
       width="2.1515198"
       height="18.184055"
       x="80.233673"
       y="-24.828308"
       transform="rotate(90)" />
    <rect
       style="display:inline;fill:#5d576b;fill-opacity:1;stroke-width:0.66532;stroke-miterlimit:4;stroke-dasharray:none"
       id="rect104115-4-25"
       width="2.1515198"
       height="18.184055"
       x="101.05605"
       y="-24.828308"
       transform="rotate(90)" />
    <rect
       style="display:inline;fill:#5d576b;fill-opacity:1;stroke-width:0.66532;stroke-miterlimit:4;stroke-dasharray:none"
       id="rect104115-4"
       width="2.1515198"
       height="18.184055"
       x="38.588943"
       y="-24.828308"
       transform="rotate(90)" />
    <rect
       style="display:inline;fill:#5d576b;fill-opacity:1;stroke-width:0.644835;stroke-miterlimit:4;stroke-dasharray:none"
       id="rect104115-4-9"
       width="2.1515198"
       height="17.081532"
       x="38.589043"
       y="-58.637295"
       transform="rotate(90)" />
    <g
       aria-label="Sequel_s"
       id="text5666"
       style="font-size:10.5833px;line-height:1.25;font-family:Arial;-inkscape-font-specification:Arial;display:inline;opacity:1;stroke-width:0.264583">
      <path
         d="m 3.9960001,15.720974 1.4882765,-0.144693 q 0.1343583,0.749306 0.5426008,1.100704 0.4134102,0.351399 1.1110398,0.351399 0.7389706,0 1.1110397,-0.310058 0.3772368,-0.315225 0.3772368,-0.733803 0,-0.268716 -0.1601964,-0.454751 Q 8.3109685,15.33857 7.9182288,15.199044 7.6495122,15.106027 6.6935013,14.868316 5.4636061,14.563426 4.9675139,14.11901 4.2698843,13.493727 4.2698843,12.59456 q 0,-0.578774 0.3255605,-1.080034 0.3307281,-0.506427 0.9456757,-0.769976 0.6201152,-0.263549 1.4934441,-0.263549 1.426265,0 2.1445652,0.625282 0.7234677,0.625283 0.7596411,1.669144 l -1.5296175,0.06718 Q 8.3109685,12.258664 7.985408,12.005451 7.6650151,11.747069 7.0190618,11.747069 q -0.6666239,0 -1.0438606,0.273884 -0.2428785,0.1757 -0.2428785,0.470254 0,0.268717 0.2273756,0.459919 0.2893871,0.242879 1.4055945,0.506428 1.1162073,0.263549 1.6484729,0.547768 0.5374332,0.279052 0.8371555,0.769976 0.3048898,0.485757 0.3048898,1.204058 0,0.65112 -0.3617337,1.219559 -0.3617338,0.568439 -1.0231901,0.847491 -0.6614562,0.273884 -1.6484729,0.273884 -1.4366002,0 -2.2065766,-0.661456 -0.7699764,-0.666624 -0.9198376,-1.93786 z"
         style="fill:#ed6a5a"
         id="path11655" />
      <path
         d="m 14.610305,16.439274 1.446936,0.242879 q -0.279052,0.795814 -0.883664,1.214392 -0.599445,0.41341 -1.50378,0.41341 -1.431432,0 -2.118727,-0.93534 -0.5426,-0.749306 -0.5426,-1.891352 0,-1.364253 0.713132,-2.13423 0.713133,-0.775144 1.803502,-0.775144 1.224727,0 1.932692,0.811318 0.707965,0.80615 0.676959,2.475293 h -3.638009 q 0.0155,0.645953 0.351399,1.007687 0.335895,0.356567 0.837155,0.356567 0.341064,0 0.573607,-0.186035 0.232543,-0.186035 0.351398,-0.599445 z m 0.08268,-1.467606 q -0.0155,-0.63045 -0.32556,-0.956011 -0.310058,-0.330728 -0.754474,-0.330728 -0.475421,0 -0.785479,0.346231 -0.310057,0.346231 -0.30489,0.940508 z"
         style="fill:#ed6a5a"
         id="path11657" />
      <path
         d="m 20.904474,20.273653 v -2.759512 q -0.284219,0.366901 -0.707965,0.583942 -0.423745,0.211872 -0.91467,0.211872 -0.93534,0 -1.539952,-0.702797 -0.713133,-0.821653 -0.713133,-2.227247 0,-1.322913 0.666624,-2.061883 0.671791,-0.744139 1.663976,-0.744139 0.547768,0 0.945675,0.232544 0.403075,0.232543 0.713133,0.702797 v -0.811317 h 1.338415 v 7.57574 z m 0.04651,-4.89891 q 0,-0.842323 -0.346231,-1.250565 -0.341064,-0.413411 -0.857826,-0.413411 -0.527098,0 -0.883664,0.418578 -0.351399,0.418578 -0.351399,1.32808 0,0.904335 0.341063,1.30741 0.341064,0.397907 0.842324,0.397907 0.501259,0 0.878496,-0.449583 0.377237,-0.449584 0.377237,-1.338416 z"
         style="fill:#ed6a5a"
         id="path11659" />
      <path
         d="M 27.395015,18.185932 V 17.36428 q -0.299722,0.439248 -0.790647,0.692461 -0.485757,0.253214 -1.028358,0.253214 -0.552936,0 -0.992184,-0.242878 -0.439248,-0.242879 -0.635618,-0.682127 -0.19637,-0.439248 -0.19637,-1.214392 v -3.472645 h 1.452103 v 2.521801 q 0,1.157549 0.07751,1.421098 0.08268,0.258381 0.294554,0.41341 0.211873,0.149861 0.537433,0.149861 0.37207,0 0.666624,-0.201537 0.294555,-0.206705 0.403075,-0.506428 0.10852,-0.30489 0.10852,-1.483109 v -2.315096 h 1.452103 v 5.488019 z"
         style="fill:#ed6a5a"
         id="path11661" />
      <path
         d="m 33.425635,16.439274 1.446935,0.242879 q -0.279051,0.795814 -0.883664,1.214392 -0.599444,0.41341 -1.503779,0.41341 -1.431433,0 -2.118727,-0.93534 -0.542601,-0.749306 -0.542601,-1.891352 0,-1.364253 0.713133,-2.13423 0.713132,-0.775144 1.803501,-0.775144 1.224728,0 1.932693,0.811318 0.707965,0.80615 0.676959,2.475293 h -3.638009 q 0.0155,0.645953 0.351398,1.007687 0.335896,0.356567 0.837156,0.356567 0.341063,0 0.573606,-0.186035 0.232544,-0.186035 0.351399,-0.599445 z m 0.08268,-1.467606 q -0.0155,-0.63045 -0.32556,-0.956011 -0.310058,-0.330728 -0.754474,-0.330728 -0.475422,0 -0.785479,0.346231 -0.310058,0.346231 -0.30489,0.940508 z"
         style="fill:#ed6a5a"
         id="path11663" />
      <path
         d="m 36.133472,18.185932 v -7.575741 h 1.452103 v 7.575741 z"
         style="fill:#ed6a5a"
         id="path11665" />
    </g>
    <path
       d="m 59.252526,5.9497334 q 0,0.2619847 -0.102443,0.500458 -0.102442,0.2384735 -0.275419,0.4114504 -0.172978,0.1729773 -0.411451,0.2754201 -0.238473,0.1024427 -0.500458,0.1024427 -0.261985,0 -0.500458,-0.1024427 Q 57.223824,7.0346191 57.050846,6.8616418 56.877869,6.6886649 56.775427,6.4501914 56.672984,6.2117181 56.672984,5.9497334 q 0,-0.305649 0.135191,-0.5760306 0.13519,-0.2703818 0.380381,-0.4534353 0.07221,-0.053741 0.160382,-0.041985 0.08817,0.011755 0.140229,0.083969 0.05374,0.070534 0.04114,0.1587023 -0.01259,0.088168 -0.08313,0.1419085 -0.16458,0.1242748 -0.254427,0.3039694 -0.08985,0.1796948 -0.08985,0.3829009 0,0.1746565 0.06802,0.3333588 0.06802,0.1587024 0.183894,0.2745804 0.115877,0.1158778 0.27458,0.183893 0.158702,0.068015 0.333359,0.068015 0.174656,0 0.333358,-0.068015 0.158703,-0.068015 0.27458,-0.183893 0.115879,-0.115878 0.183894,-0.2745804 0.06802,-0.1587023 0.06802,-0.3333588 0,-0.2032061 -0.08985,-0.3829009 -0.08985,-0.1796946 -0.254428,-0.3039694 -0.07053,-0.053741 -0.08313,-0.1419085 -0.01259,-0.088168 0.04114,-0.1587023 0.05206,-0.072214 0.141069,-0.083969 0.08901,-0.011755 0.159542,0.041985 0.245191,0.1830535 0.380382,0.4534353 0.13519,0.2703816 0.13519,0.5760306 z M 58.177717,4.6599621 v 1.0748094 q 0,0.087328 -0.06382,0.1511451 -0.06382,0.063817 -0.151145,0.063817 -0.08733,0 -0.151145,-0.063817 -0.06382,-0.063817 -0.06382,-0.1511451 V 4.6599621 q 0,-0.087328 0.06382,-0.1511451 Q 57.875427,4.445 57.962752,4.445 q 0.08733,0 0.151145,0.063817 0.06382,0.063817 0.06382,0.1511451 z"
       id="path6"
       inkscape:connector-curvature="0"
       style="display:inline;opacity:1;fill:#9bc1bc;fill-opacity:1;stroke-width:0.00167938" />
  </g>
  <g
     inkscape:groupmode="layer"
     id="layer2"
     inkscape:label="components"
     style="display:none">
    <ellipse
       style="display:inline;fill:#00ff00;fill-opacity:1;stroke-width:0.765;stroke-miterlimit:4;stroke-dasharray:none"
       id="path81437"
       cx="24.723381"
       cy="39.664703"
       inkscape:label="in_save_0"
       rx="4.1339998"
       ry="4.1341147" />
    <circle
       style="display:inline;fill:#ff0000;fill-opacity:1;stroke-width:0.765;stroke-miterlimit:4;stroke-dasharray:none"
       id="circle81878"
       cx="8.1301394"
       cy="39.664703"
       r="4.1341147"
       inkscape:label="switch_save_0" />
    <circle
       style="display:inline;fill:#00ff00;fill-opacity:1;stroke-width:0.765;stroke-miterlimit:4;stroke-dasharray:none"
       id="path81437-1"
       cx="57.909863"
       cy="39.664803"
       r="4.1341147"
       inkscape:label="in_load_0" />
    <circle
       style="display:inline;fill:#ff0000;fill-opacity:1;stroke-width:0.765;stroke-miterlimit:4;stroke-dasharray:none"
       id="circle81878-1"
       cx="41.31662"
       cy="39.664803"
       r="4.1341147"
       inkscape:label="switch_load_0" />
    <circle
       style="display:inline;fill:#00ff00;fill-opacity:1;stroke-width:0.765;stroke-miterlimit:4;stroke-dasharray:none"
       id="path81437-1-1"
       cx="57.909859"
       cy="60.487167"
       r="4.1341147"
       inkscape:label="in_load_1" />
    <circle
       style="display:inline;fill:#ff0000;fill-opacity:1;stroke-width:0.765;stroke-miterlimit:4;stroke-dasharray:none"
       id="circle81878-1-9"
       cx="41.316616"
       cy="60.487167"
       r="4.1341147"
       inkscape:label="switch_load_1" />
    <circle
       style="display:inline;fill:#00ff00;fill-opacity:1;stroke-width:0.765;stroke-miterlimit:4;stroke-dasharray:none"
       id="path81437-1-4"
       cx="57.909863"
       cy="81.309532"
       r="4.1341147"
       inkscape:label="in_load_2" />
    <circle
       style="display:inline;fill:#ff0000;fill-opacity:1;stroke-width:0.765;stroke-miterlimit:4;stroke-dasharray:none"
       id="circle81878-1-1"
       cx="41.31662"
       cy="81.309532"
       r="4.1341147"
       inkscape:label="switch_load_2" />
    <circle
       style="display:inline;fill:#00ff00;fill-opacity:1;stroke-width:0.765;stroke-miterlimit:4;stroke-dasharray:none"
       id="path81437-1-48"
       cx="57.909863"
       cy="102.13189"
       r="4.1341147"
       inkscape:label="in_load_3" />
    <circle
       style="display:inline;fill:#ff0000;fill-opacity:1;stroke-width:0.765;stroke-miterlimit:4;stroke-dasharray:none"
       id="circle81878-1-0"
       cx="41.31662"
       cy="102.13189"
       r="4.1341147"
       inkscape:label="switch_load_3" />
    <ellipse
       style="display:inline;fill:#00ff00;fill-opacity:1;stroke-width:0.765;stroke-miterlimit:4;stroke-dasharray:none"
       id="path81437-6"
       cx="24.723377"
       cy="60.487068"
       inkscape:label="in_save_1"
       rx="4.1339998"
       ry="4.1341147" />
    <circle
       style="display:inline;fill:#ff0000;fill-opacity:1;stroke-width:0.765;stroke-miterlimit:4;stroke-dasharray:none"
       id="circle81878-13"
       cx="8.1301394"
       cy="60.487068"
       r="4.1341147"
       inkscape:label="switch_save_1" />
    <ellipse
       style="display:inline;fill:#00ff00;fill-opacity:1;stroke-width:0.765;stroke-miterlimit:4;stroke-dasharray:none"
       id="path81437-8"
       cx="24.723381"
       cy="81.309433"
       inkscape:label="in_save_2"
       rx="4.1339998"
       ry="4.1341147" />
    <circle
       style="display:inline;fill:#ff0000;fill-opacity:1;stroke-width:0.765;stroke-miterlimit:4;stroke-dasharray:none"
       id="circle81878-16"
       cx="8.1301394"
       cy="81.309433"
       r="4.1341147"
       inkscape:label="switch_save_2" />
    <ellipse
       style="display:inline;fill:#00ff00;fill-opacity:1;stroke-width:0.765;stroke-miterlimit:4;stroke-dasharray:none"
       id="path81437-11"
       cx="24.723381"
       cy="102.13179"
       inkscape:label="in_save_3"
       rx="4.1339998"
       ry="4.1341147" />
    <circle
       style="display:inline;fill:#ff0000;fill-opacity:1;stroke-width:0.765;stroke-miterlimit:4;stroke-dasharray:none"
       id="circle81878-5"
       cx="8.1301394"
       cy="102.13179"
       r="4.1341147"
       inkscape:label="switch_save_3" />
    <circle
       style="display:inline;fill:#ff00ff;fill-opacity:1;stroke-width:0.28503;stroke-miterlimit:4;stroke-dasharray:none"
       id="circle92796"
       cx="57.909863"
       cy="13.551324"
       inkscape:label="light_connected"
       r="1.5403237" />
  </g>
</svg>
