<?xml version="1.0" encoding="UTF-8" standalone="no"?>
<!-- Created with Inkscape (http://www.inkscape.org/) -->

<svg
   width="66.040001mm"
   height="128.5mm"
   viewBox="0 0 66.040002 128.5"
   version="1.1"
   id="svg5"
   inkscape:version="1.1.1 (3bf5ae0d25, 2021-09-20)"
   sodipodi:docname="Bend.svg"
   xmlns:inkscape="http://www.inkscape.org/namespaces/inkscape"
   xmlns:sodipodi="http://sodipodi.sourceforge.net/DTD/sodipodi-0.dtd"
   xmlns="http://www.w3.org/2000/svg"
   xmlns:svg="http://www.w3.org/2000/svg">
  <sodipodi:namedview
     id="namedview7"
     pagecolor="#000000"
     bordercolor="#666666"
     borderopacity="1.0"
     inkscape:pageshadow="2"
     inkscape:pageopacity="0"
     inkscape:pagecheckerboard="false"
     inkscape:document-units="mm"
     showgrid="false"
     inkscape:zoom="1.2810466"
     inkscape:cx="82.744843"
     inkscape:cy="339.95641"
     inkscape:window-width="1920"
     inkscape:window-height="1017"
     inkscape:window-x="-8"
     inkscape:window-y="-8"
     inkscape:window-maximized="1"
     inkscape:current-layer="layer2"
     width="50.8mm"
     showguides="false"
     inkscape:guide-bbox="true">
    <sodipodi:guide
       position="33.149166,51.151948"
       orientation="1,0"
       id="guide14764" />
    <sodipodi:guide
       position="4.4792681,110.37317"
       orientation="0,-1"
       id="guide853" />
    <sodipodi:guide
       position="33.168948,104.95537"
       orientation="1,0"
       id="guide26096" />
    <sodipodi:guide
       position="55.971487,110.37317"
       orientation="1,0"
       id="guide26098" />
    <sodipodi:guide
       position="4.0892211,85.271093"
       orientation="1,0"
       id="guide41232" />
    <sodipodi:guide
       position="-5.0601529,63.234356"
       orientation="0,-1"
       id="guide21555" />
  </sodipodi:namedview>
  <defs
     id="defs2">
    <inkscape:path-effect
       effect="fillet_chamfer"
       id="path-effect10031"
       is_visible="true"
       lpeversion="1"
       satellites_param="F,0,0,1,0,1.5875,0,1 @ F,0,0,1,0,1.5875,0,1 @ F,0,0,1,0,1.5875,0,1 @ F,0,0,1,0,1.5875,0,1"
       unit="px"
       method="auto"
       mode="F"
       radius="6"
       chamfer_steps="1"
       flexible="false"
       use_knot_distance="true"
       apply_no_radius="true"
       apply_with_radius="true"
       only_selected="false"
       hide_knots="false" />
    <inkscape:path-effect
       effect="fillet_chamfer"
       id="path-effect10002"
       is_visible="true"
       lpeversion="1"
       satellites_param="F,0,0,1,0,1.5875,0,1 @ F,0,0,1,0,1.5875,0,1 @ F,0,0,1,0,1.5875,0,1 @ F,0,0,1,0,1.5875,0,1"
       unit="px"
       method="auto"
       mode="F"
       radius="6"
       chamfer_steps="1"
       flexible="false"
       use_knot_distance="true"
       apply_no_radius="true"
       apply_with_radius="true"
       only_selected="false"
       hide_knots="false" />
    <inkscape:path-effect
       effect="fillet_chamfer"
       id="path-effect9973"
       is_visible="true"
       lpeversion="1"
       satellites_param="F,0,0,1,0,1.5875,0,1 @ F,0,0,1,0,1.5875,0,1 @ F,0,0,1,0,1.5875,0,1 @ F,0,0,1,0,1.5875,0,1"
       unit="px"
       method="auto"
       mode="F"
       radius="6"
       chamfer_steps="1"
       flexible="false"
       use_knot_distance="true"
       apply_no_radius="true"
       apply_with_radius="true"
       only_selected="false"
       hide_knots="false" />
    <inkscape:path-effect
       effect="fillet_chamfer"
       id="path-effect9864"
       is_visible="true"
       lpeversion="1"
       satellites_param="F,0,0,1,0,1.5875,0,1 @ F,0,0,1,0,1.5875,0,1 @ F,0,0,1,0,1.5875,0,1 @ F,0,0,1,0,1.5875,0,1"
       unit="px"
       method="auto"
       mode="F"
       radius="6"
       chamfer_steps="1"
       flexible="false"
       use_knot_distance="true"
       apply_no_radius="true"
       apply_with_radius="true"
       only_selected="false"
       hide_knots="false" />
    <inkscape:path-effect
       effect="fillet_chamfer"
       id="path-effect11279"
       is_visible="true"
       lpeversion="1"
       satellites_param="F,0,0,1,0,1.5875,0,1 @ F,0,0,1,0,1.5875,0,1 @ F,0,0,1,0,1.5875,0,1 @ F,0,0,1,0,1.5875,0,1"
       unit="px"
       method="auto"
       mode="F"
       radius="6"
       chamfer_steps="1"
       flexible="false"
       use_knot_distance="true"
       apply_no_radius="true"
       apply_with_radius="true"
       only_selected="false"
       hide_knots="false" />
  </defs>
  <g
     inkscape:label="Layer 1"
     inkscape:groupmode="layer"
     id="layer1"
     style="display:inline;opacity:1">
    <rect
       style="opacity:1;fill:#f9fafb;fill-opacity:1;stroke-width:0.247774"
       id="rect846"
       width="66.040001"
       height="128.5"
       x="0"
       y="1.110223e-16" />
    <g
       aria-label="Bend"
       id="text4058"
       style="font-size:10.5833px;line-height:1.25;font-family:Arial;-inkscape-font-specification:Arial;display:inline;stroke-width:0.264583"
       transform="translate(0,3.7546985)">
      <path
         d="m 3.996,6.6753015 h 3.0282293 q 0.899167,0 1.3384153,0.077514 0.4444159,0.072347 0.7906469,0.3100576 0.3513986,0.2377109 0.5839418,0.6356181 0.2325432,0.3927396 0.2325432,0.8836642 0,0.5322656 -0.2893871,0.9766815 -0.2842195,0.4444161 -0.775144,0.6666241 0.692462,0.201538 1.0645311,0.687294 0.3720695,0.485757 0.3720695,1.142046 0,0.516763 -0.242879,1.007687 -0.2377106,0.485757 -0.6562884,0.780312 -0.4134102,0.289387 -1.0231901,0.356566 -0.3824044,0.04134 -1.8448428,0.05168 H 3.996 Z m 1.5296175,1.2609009 v 1.7518255 h 1.0025196 q 0.8939994,0 1.1110397,-0.025838 Q 8.0319165,9.6156811 8.2541244,9.3934732 8.4815,9.1660976 8.4815,8.7991961 8.4815,8.4477975 8.2851302,8.2307572 8.093928,8.0085492 7.7115236,7.9620406 7.484148,7.9362024 6.404114,7.9362024 Z m 0,3.0127266 v 2.02571 h 1.4159297 q 0.8268203,0 1.0490283,-0.04651 0.3410633,-0.06201 0.552936,-0.299722 0.2170404,-0.242879 0.2170404,-0.645954 0,-0.341063 -0.1653641,-0.578774 -0.1653641,-0.237711 -0.4805893,-0.346231 -0.3100576,-0.10852 -1.3539182,-0.10852 z"
         style="font-weight:bold;fill:#ed6a5a"
         id="path16132" />
      <path
         d="m 14.801508,12.504385 1.446935,0.242878 q -0.279052,0.795814 -0.883664,1.214392 -0.599445,0.41341 -1.50378,0.41341 -1.431432,0 -2.118726,-0.93534 -0.542601,-0.749306 -0.542601,-1.891351 0,-1.364254 0.713132,-2.1342303 0.713133,-0.775144 1.803502,-0.775144 1.224727,0 1.932692,0.8113174 0.707965,0.8061499 0.676959,2.4752929 h -3.638009 q 0.0155,0.645954 0.351399,1.007688 0.335896,0.356566 0.837155,0.356566 0.341064,0 0.573607,-0.186035 0.232543,-0.186034 0.351399,-0.599444 z m 0.08268,-1.467606 q -0.0155,-0.630451 -0.325561,-0.956011 -0.310057,-0.3307286 -0.754473,-0.3307286 -0.475422,0 -0.78548,0.3462306 -0.310057,0.346231 -0.30489,0.940509 z"
         style="font-weight:bold;fill:#ed6a5a"
         id="path16134" />
      <path
         d="m 22.501271,14.251042 h -1.452103 v -2.800853 q 0,-0.888832 -0.09302,-1.147213 -0.09302,-0.263549 -0.30489,-0.408243 -0.206705,-0.1446936 -0.50126,-0.1446936 -0.377237,0 -0.676959,0.2067051 -0.299722,0.2067055 -0.41341,0.5477685 -0.10852,0.341063 -0.10852,1.260901 v 2.485628 h -1.4521 V 8.7630227 h 1.34875 v 0.8061498 q 0.7183,-0.9301728 1.80867,-0.9301728 0.480589,0 0.878496,0.1756993 0.397907,0.1705317 0.599445,0.4392483 0.206705,0.2687166 0.284219,0.6097799 0.08268,0.3410638 0.08268,0.9766818 z"
         style="font-weight:bold;fill:#ed6a5a"
         id="path16136" />
      <path
         d="m 29.007313,14.251042 h -1.348751 v -0.806149 q -0.335895,0.470254 -0.795814,0.702797 -0.454751,0.227375 -0.919838,0.227375 -0.945675,0 -1.622634,-0.759641 -0.671792,-0.764808 -0.671792,-2.129062 0,-1.395259 0.656289,-2.1187269 0.656288,-0.7286354 1.658808,-0.7286354 0.919837,0 1.591629,0.7648088 v -2.728507 h 1.452103 z m -3.87572,-2.862865 q 0,0.878497 0.242878,1.271236 0.351399,0.568439 0.981849,0.568439 0.50126,0 0.852659,-0.423745 0.351399,-0.428913 0.351399,-1.276404 0,-0.945676 -0.341064,-1.359086 -0.341063,-0.4185776 -0.873329,-0.4185776 -0.516762,0 -0.868161,0.4134106 -0.346231,0.408242 -0.346231,1.224727 z"
         style="font-weight:bold;fill:#ed6a5a"
         id="path16138" />
    </g>
    <rect
       style="display:inline;fill:#5d576b;fill-opacity:1;stroke-width:0.563337;stroke-miterlimit:4;stroke-dasharray:none"
       id="rect104115-4"
       width="2.1515198"
       height="13.036647"
       x="-55.406761"
       y="-95.490273"
       transform="scale(-1)" />
    <rect
       style="display:inline;fill:#5d576b;fill-opacity:1;stroke-width:0.563337;stroke-miterlimit:4;stroke-dasharray:none"
       id="rect104115-4-7"
       width="2.1515198"
       height="13.036647"
       x="-41.33276"
       y="-95.490273"
       transform="scale(-1)" />
    <g
       id="g130949"
       transform="matrix(0.99999624,0,0,1,-151.81709,0.26417965)"
       style="display:inline">
      <rect
         style="display:inline;fill:#f4f1bb;fill-opacity:1;stroke-width:1.09761;stroke-miterlimit:4;stroke-dasharray:none"
         id="rect93213"
         width="3.5"
         height="131.71765"
         x="226.38889"
         y="-100.11375"
         transform="rotate(45)" />
      <rect
         style="display:inline;fill:#9bc1bc;fill-opacity:1;stroke-width:1.09761;stroke-miterlimit:4;stroke-dasharray:none"
         id="rect93233"
         width="3.5"
         height="131.71765"
         x="229.88889"
         y="-100.11375"
         transform="rotate(45)" />
      <rect
         style="display:inline;fill:#ed6a5a;fill-opacity:1;stroke-width:1.09761;stroke-miterlimit:4;stroke-dasharray:none"
         id="rect93109"
         width="3.5"
         height="131.71765"
         x="222.88844"
         y="-100.11375"
         transform="rotate(45)" />
    </g>
    <g
       aria-label="Daniel Davies"
       id="text158043"
       style="font-size:4.93889px;line-height:1.25;display:inline;stroke-width:0.264583"
       transform="translate(-88.90045,-0.4195)">
      <g
         id="g46703"
         transform="translate(14.95093)">
        <path
           d="m 106.74159,123.09153 q 0,0.50161 -0.2291,0.89951 -0.22909,0.3955 -0.57877,0.60772 -0.26286,0.15916 -0.57637,0.22186 -0.3135,0.0627 -0.74276,0.0627 h -1.26607 v -3.59082 h 1.30224 q 0.43891,0 0.75724,0.0748 0.31832,0.0724 0.53536,0.20739 0.37139,0.22669 0.5836,0.61254 0.21463,0.38344 0.21463,0.90434 z m -0.95739,-0.007 q 0,-0.3545 -0.13022,-0.6053 -0.12782,-0.25321 -0.40756,-0.3955 -0.14228,-0.0699 -0.2918,-0.094 -0.1471,-0.0265 -0.44614,-0.0265 h -0.23392 v 2.24758 h 0.23392 q 0.33039,0 0.48473,-0.0289 0.15434,-0.0314 0.30144,-0.11093 0.25322,-0.1447 0.37138,-0.38586 0.11817,-0.24356 0.11817,-0.60048 z"
           style="fill:#ed6a5a"
           id="path170552" />
        <path
           d="m 110.58962,123.09153 q 0,0.50161 -0.2291,0.89951 -0.2291,0.3955 -0.57877,0.60772 -0.26286,0.15916 -0.57637,0.22186 -0.3135,0.0627 -0.74276,0.0627 h -1.26607 v -3.59082 h 1.30224 q 0.43891,0 0.75723,0.0748 0.31833,0.0724 0.53537,0.20739 0.37138,0.22669 0.5836,0.61254 0.21463,0.38344 0.21463,0.90434 z m -0.95739,-0.007 q 0,-0.3545 -0.13023,-0.6053 -0.12781,-0.25321 -0.40755,-0.3955 -0.14228,-0.0699 -0.2918,-0.094 -0.14711,-0.0265 -0.44614,-0.0265 h -0.23392 v 2.24758 h 0.23392 q 0.33038,0 0.48473,-0.0289 0.15434,-0.0314 0.30144,-0.11093 0.25322,-0.1447 0.37138,-0.38586 0.11817,-0.24356 0.11817,-0.60048 z"
           style="fill:#9bc1bc"
           id="path170564" />
      </g>
    </g>
    <path
       style="color:#000000;fill:#9bc1bc;stroke-dasharray:3.09445, 1.54723;-inkscape-stroke:none"
       d="m 31.830078,31.702346 0.103516,1.542969 c 0.982657,-0.06537 1.970685,-0.04143 2.949218,0.07031 l 0.175782,-1.53711 c -1.071032,-0.122304 -2.152838,-0.147732 -3.228516,-0.07617 z m -1.605469,0.179688 c -1.066182,0.167893 -2.115845,0.434582 -3.132812,0.794922 l 0.515625,1.457031 c 0.927458,-0.328624 1.885813,-0.571609 2.857422,-0.724609 z m 6.431641,0.152344 -0.314453,1.515625 c 0.963007,0.199797 1.907732,0.490216 2.818359,0.863281 l 0.585938,-1.431641 c -0.99827,-0.40897 -2.032939,-0.727987 -3.089844,-0.947265 z m -11.060547,1.25 c -0.22495,0.102775 -0.445157,0.210518 -0.660156,0.320312 l -0.0039,0.002 -0.376954,0.199219 -0.375,0.208984 -0.36914,0.21875 -0.363281,0.226563 -0.357422,0.234375 -0.291016,0.203125 0.882813,1.271484 0.27539,-0.191406 0.326172,-0.214844 0.332031,-0.207031 0.335938,-0.199219 0.341797,-0.191406 0.355468,-0.1875 -0.0078,0.0059 c 0.200223,-0.102247 0.398517,-0.200032 0.597656,-0.291015 z m 15.621094,0.380859 -0.722656,1.367187 0.251953,0.132813 0.341797,0.191406 0.33789,0.199219 0.332031,0.207031 0.326172,0.214844 0.320313,0.222656 0.314453,0.228516 0.265625,0.205078 0.941406,-1.228516 -0.28125,-0.214843 -0.34375,-0.251954 -0.351562,-0.24414 -0.357422,-0.234375 -0.363281,-0.226563 -0.369141,-0.21875 -0.375,-0.208984 z m -19.697266,2.224609 -0.121094,0.103516 -0.318359,0.283203 -0.3125,0.289063 -0.304687,0.296875 -0.296875,0.30664 -0.291016,0.310547 -0.283203,0.318359 -0.275391,0.326172 -0.0625,0.08008 1.205078,0.96875 0.05078,-0.06445 0.251953,-0.296875 0.257812,-0.291015 0.265625,-0.285157 0.271485,-0.277343 0.279296,-0.271485 0.285157,-0.265625 0.291015,-0.257812 0.105469,-0.0918 z m 23.638672,0.56836 -1.054687,1.132812 0.101562,0.0957 0.277344,0.271485 0.271484,0.277343 0.265625,0.285157 0.257813,0.291015 0.251953,0.296875 0.24414,0.304688 0.236329,0.308594 0.05078,0.06641 1.25,-0.910156 -0.06055,-0.08398 -0.259766,-0.33789 -0.267578,-0.332032 -0.27539,-0.326172 -0.283204,-0.318359 -0.289062,-0.310547 -0.298828,-0.30664 -0.304688,-0.296875 z m -26.871094,3.046875 -0.226562,0.34375 -0.226563,0.363281 -0.21875,0.369141 -0.207031,0.36914 -0.002,0.0059 c -0.24295,0.447425 -0.468228,0.905347 -0.671875,1.373046 l 1.419922,0.617188 c 0.184211,-0.423064 0.386984,-0.83766 0.607422,-1.244141 v -0.002 c 0.0011,-0.002 0.0028,-0.0038 0.0039,-0.0059 l 0.191406,-0.341797 0.199219,-0.337891 0.207031,-0.332031 0.214844,-0.328125 z m 29.925782,0.71875 -1.332032,0.787109 0.203125,0.341797 0.191407,0.341797 0.18164,0.345703 c 0.270742,0.528629 0.514044,1.071999 0.72461,1.626953 l 1.445312,-0.548828 c -0.230969,-0.608727 -0.494397,-1.204048 -0.791016,-1.783203 l -0.0039,-0.0039 -0.197265,-0.376954 -0.208985,-0.373046 z m -32.054688,3.615234 c -0.339701,1.0246 -0.584414,2.079599 -0.730469,3.148438 l 1.533203,0.208984 c 0.133233,-0.975009 0.356527,-1.937619 0.666016,-2.871094 z m 33.972656,0.816406 -1.490234,0.416016 c 0.263988,0.947091 0.440492,1.919463 0.527344,2.900391 l 1.541015,-0.136719 c -0.09508,-1.073858 -0.288209,-2.139578 -0.578125,-3.179688 z M 15.28125,48.596878 c -0.04961,1.076552 -0.0027,2.157556 0.142578,3.226562 l 1.533203,-0.207031 C 16.824518,50.641315 16.780824,49.6532 16.826172,48.669143 Z m 33.949219,0.824218 c -9.4e-5,0.985561 -0.08781,1.97031 -0.265625,2.9375 l 1.521484,0.279297 c 0.195212,-1.061831 0.290913,-2.139498 0.291016,-3.216797 z m -32.009766,3.646485 -1.507812,0.347656 c 0.241608,1.05146 0.579469,2.080467 1.009765,3.070312 l 1.419922,-0.617187 c -0.392133,-0.902056 -0.701504,-1.841744 -0.921875,-2.800781 z m 31.412109,0.730468 c -0.264445,0.947425 -0.61693,1.869043 -1.050781,2.751954 l 1.388672,0.683593 c 0.4759,-0.968484 0.862203,-1.982 1.152344,-3.021484 z m -29.84375,3.390625 -1.351562,0.753907 0.177734,0.318359 0.21875,0.369141 0.226563,0.363281 0.234375,0.355469 0.24414,0.351562 0.251954,0.345703 0.259765,0.337891 0.185547,0.230469 1.205078,-0.970703 -0.175781,-0.214844 -0.236328,-0.310547 -0.230469,-0.314453 -0.220703,-0.320313 -0.214844,-0.326172 -0.207031,-0.332031 -0.199219,-0.335937 z m 28.087891,0.650391 -0.199219,0.318359 -0.214843,0.326172 -0.222657,0.320313 -0.230468,0.314453 -0.236329,0.310547 -0.24414,0.302734 -0.251953,0.296875 -0.166016,0.1875 1.158203,1.027344 0.177735,-0.201172 0.27539,-0.326172 0.267578,-0.332031 0.259766,-0.337891 0.251953,-0.345703 0.242188,-0.351562 0.236328,-0.355469 0.208984,-0.335938 z m -25.455078,2.904297 -1.107422,1.082031 0.148438,0.152344 0.304687,0.296875 0.3125,0.291016 0.318359,0.283203 0.326172,0.273437 0.332032,0.267578 0.33789,0.259766 0.345703,0.251953 0.03516,0.02539 0.882812,-1.271485 -0.02148,-0.01563 -0.314453,-0.228515 -0.310547,-0.238282 -0.302735,-0.24414 -0.296875,-0.25 -0.291015,-0.259766 -0.285157,-0.263672 -0.279296,-0.271484 z m 22.660156,0.525391 -0.162109,0.15039 -0.291016,0.259766 -0.296875,0.25 -0.304687,0.24414 -0.308594,0.238282 -0.314453,0.228515 -0.320313,0.222657 -0.324218,0.21289 0.820312,1.3125 0.01172,-0.0078 0.357422,-0.234375 0.351562,-0.244141 0.34375,-0.251953 0.339844,-0.259766 0.332031,-0.267578 0.326172,-0.273437 0.318359,-0.283203 0.175782,-0.164063 z M 24.912109,63.460159 24.125,64.79219 l 0.05469,0.0332 0.371094,0.207031 0.0039,0.002 c 0.805071,0.437171 1.645254,0.812084 2.509766,1.11914 L 27.582028,64.69653 C 26.797534,64.417894 26.0337,64.076435 25.300778,63.678952 l -0.0039,-0.002 c -0.0013,-6.95e-4 -0.0026,-0.0013 -0.0039,-0.002 l -0.341797,-0.191407 z m 15.560547,0.359375 c -0.841049,0.438539 -1.724613,0.801002 -2.632812,1.083984 l -0.0957,0.0293 0.451171,1.478516 0.103516,-0.03125 h 0.002 c 0.993666,-0.309612 1.961256,-0.706899 2.886719,-1.189453 z m -11.478515,1.308594 -0.382813,1.498046 c 1.045306,0.267382 2.113081,0.439466 3.189453,0.511719 l 0.103516,-1.544922 c -0.981884,-0.06591 -1.956909,-0.221009 -2.910156,-0.464843 z m 7.320312,0.167968 c -0.963613,0.199115 -1.947309,0.309101 -2.931641,0.330078 l 0.0332,1.546875 c 1.07807,-0.02297 2.154304,-0.142992 3.210937,-0.361328 z"
       id="path14007" />
    <g
       aria-label="v/oct"
       id="text2702-7-8-3"
       style="font-size:3.52777px;line-height:0.95;font-family:Arial;-inkscape-font-specification:Arial;display:inline;stroke-width:0.264583"
       transform="translate(-4.1678283e-7,2.499612)">
      <path
         d="m 29.671371,41.208313 -0.737249,-1.829342 h 0.508151 l 0.344509,0.933619 0.09991,0.311781 q 0.03962,-0.118856 0.04995,-0.156752 0.02412,-0.07751 0.05168,-0.155029 l 0.347954,-0.933619 h 0.497815 l -0.726913,1.829342 z"
         style="font-weight:bold;fill:#9bc1bc"
         id="path24828" />
      <path
         d="M 30.871984,41.251377 31.497268,38.64 h 0.363457 l -0.632174,2.611377 z"
         style="font-weight:bold;fill:#9bc1bc"
         id="path24830" />
      <path
         d="m 31.998528,40.267804 q 0,-0.241156 0.118856,-0.466809 0.118855,-0.225654 0.335896,-0.344509 0.218763,-0.118856 0.48748,-0.118856 0.415133,0 0.680405,0.27044 0.265271,0.268717 0.265271,0.680405 0,0.415133 -0.268717,0.689017 -0.266994,0.272162 -0.673514,0.272162 -0.251492,0 -0.48059,-0.113688 -0.227376,-0.113688 -0.346231,-0.332451 -0.118856,-0.220485 -0.118856,-0.535711 z m 0.496093,0.02584 q 0,0.272162 0.129191,0.416856 0.12919,0.144693 0.31867,0.144693 0.18948,0 0.316948,-0.144693 0.129191,-0.144694 0.129191,-0.420301 0,-0.268717 -0.129191,-0.41341 -0.127468,-0.144694 -0.316948,-0.144694 -0.18948,0 -0.31867,0.144694 -0.129191,0.144693 -0.129191,0.416855 z"
         style="font-weight:bold;fill:#9bc1bc"
         id="path24832" />
      <path
         d="m 35.860472,39.91985 -0.477145,0.08613 q -0.02412,-0.142971 -0.110243,-0.215318 -0.0844,-0.07235 -0.220485,-0.07235 -0.180867,0 -0.289388,0.125746 -0.106797,0.124023 -0.106797,0.416856 0,0.325561 0.10852,0.459919 0.110243,0.134358 0.294555,0.134358 0.137803,0 0.225653,-0.07751 0.08785,-0.07924 0.124023,-0.270439 l 0.475423,0.08096 q -0.07407,0.327284 -0.28422,0.49437 -0.210151,0.167087 -0.563272,0.167087 -0.401353,0 -0.640786,-0.253214 -0.237712,-0.253214 -0.237712,-0.701075 0,-0.453029 0.239434,-0.704521 0.239434,-0.253214 0.647677,-0.253214 0.334173,0 0.530543,0.144694 0.198093,0.142971 0.28422,0.437526 z"
         style="font-weight:bold;fill:#9bc1bc"
         id="path24834" />
      <path
         d="m 37.066253,39.378971 v 0.38585 h -0.330729 v 0.737249 q 0,0.223931 0.0086,0.261827 0.01033,0.03617 0.04306,0.06029 0.03445,0.02412 0.08268,0.02412 0.06718,0 0.194647,-0.04651 l 0.04134,0.375514 q -0.168809,0.07235 -0.382405,0.07235 -0.130913,0 -0.235988,-0.04306 -0.105075,-0.04479 -0.155029,-0.113687 -0.04823,-0.07062 -0.06718,-0.18948 -0.0155,-0.0844 -0.0155,-0.341064 v -0.797538 h -0.222208 v -0.38585 h 0.222208 v -0.363456 l 0.485757,-0.282498 v 0.645954 z"
         style="font-weight:bold;fill:#9bc1bc"
         id="path24836" />
    </g>
    <g
       aria-label="Bend"
       id="text2702-7-8-3-5"
       style="font-size:3.52777px;line-height:0.95;font-family:Arial;-inkscape-font-specification:Arial;display:inline;stroke-width:0.264583"
       transform="translate(-15.024021,-25.446914)">
      <path
         d="m 28.857442,56.497623 h 1.00941 q 0.299723,0 0.446139,0.02584 0.148139,0.02411 0.26355,0.103352 0.117133,0.07924 0.194647,0.211873 0.07751,0.130914 0.07751,0.294555 0,0.177422 -0.09646,0.325561 -0.09474,0.148139 -0.258382,0.222208 0.230821,0.06718 0.354844,0.229099 0.124024,0.161919 0.124024,0.380682 0,0.172254 -0.08096,0.335896 -0.07924,0.161919 -0.218763,0.260104 -0.137804,0.09646 -0.341064,0.118855 -0.127468,0.01378 -0.614948,0.01723 H 28.85744 Z m 0.509873,0.420301 v 0.583943 h 0.334173 q 0.298,0 0.370347,-0.0086 0.130913,-0.0155 0.204983,-0.08957 0.07579,-0.07579 0.07579,-0.198093 0,-0.117133 -0.06546,-0.18948 -0.06373,-0.07407 -0.191202,-0.08957 -0.07579,-0.0086 -0.435804,-0.0086 z m 0,1.004243 v 0.675238 h 0.471977 q 0.275607,0 0.349676,-0.0155 0.113688,-0.02067 0.184312,-0.09991 0.07235,-0.08096 0.07235,-0.215318 0,-0.113688 -0.05512,-0.192925 -0.05512,-0.07924 -0.160197,-0.11541 -0.103352,-0.03617 -0.451306,-0.03617 z"
         style="font-weight:bold;fill:#9bc1bc"
         id="path23745" />
      <path
         d="m 32.459281,58.440653 0.482312,0.08096 q -0.09302,0.265271 -0.294555,0.404797 -0.199815,0.137804 -0.50126,0.137804 -0.477145,0 -0.706243,-0.31178 -0.180867,-0.249769 -0.180867,-0.630452 0,-0.454751 0.237711,-0.71141 0.237711,-0.258382 0.601168,-0.258382 0.408243,0 0.644231,0.27044 0.235989,0.268716 0.225654,0.825098 h -1.212671 q 0.0052,0.215318 0.117133,0.335896 0.111965,0.118856 0.279052,0.118856 0.113688,0 0.191202,-0.06201 0.07751,-0.06201 0.117133,-0.199815 z m 0.02756,-0.489202 q -0.0052,-0.210151 -0.108521,-0.318671 -0.103352,-0.110243 -0.251491,-0.110243 -0.158474,0 -0.261827,0.115411 -0.103352,0.11541 -0.10163,0.313503 z"
         style="font-weight:bold;fill:#9bc1bc"
         id="path23747" />
      <path
         d="m 35.025872,59.022873 h -0.484035 v -0.933619 q 0,-0.296277 -0.03101,-0.382405 -0.03101,-0.08785 -0.10163,-0.136081 -0.0689,-0.04823 -0.167087,-0.04823 -0.125746,0 -0.225653,0.0689 -0.09991,0.0689 -0.137804,0.18259 -0.03617,0.113687 -0.03617,0.4203 v 0.828544 H 33.358448 V 57.19353 h 0.449584 v 0.268717 q 0.239434,-0.310058 0.60289,-0.310058 0.160197,0 0.292833,0.05857 0.132636,0.05684 0.199815,0.146416 0.0689,0.08957 0.09474,0.20326 0.02756,0.113688 0.02756,0.325561 z"
         style="font-weight:bold;fill:#9bc1bc"
         id="path23749" />
      <path
         d="m 37.194554,59.022873 h -0.449583 v -0.268717 q -0.111966,0.156752 -0.265272,0.234266 -0.151584,0.07579 -0.306613,0.07579 -0.315226,0 -0.540879,-0.253214 -0.223931,-0.254936 -0.223931,-0.709688 0,-0.465087 0.218763,-0.706243 0.218764,-0.242879 0.552937,-0.242879 0.306613,0 0.530544,0.254937 v -0.909504 h 0.484034 z m -1.291907,-0.954289 q 0,0.292832 0.08096,0.423745 0.117133,0.18948 0.327283,0.18948 0.167087,0 0.28422,-0.141248 0.117133,-0.142972 0.117133,-0.425469 0,-0.315225 -0.113688,-0.453029 -0.113688,-0.139526 -0.29111,-0.139526 -0.172254,0 -0.289387,0.137804 -0.11541,0.136081 -0.115411,0.408243 z"
         style="font-weight:bold;fill:#9bc1bc"
         id="path23751" />
    </g>
    <g
       aria-label="Amp"
       id="text28709"
       style="font-size:3.52777px;line-height:1.25;font-family:Arial;-inkscape-font-specification:Arial;stroke-width:0.264583"
       transform="translate(-4.1678283e-7,1.899612)">
      <path
         d="m 46.574866,31.349064 h -0.554659 l -0.220485,-0.573607 h -1.009411 l -0.208428,0.573607 h -0.540879 l 0.983573,-2.52525 h 0.539156 z m -0.938786,-0.999076 -0.347954,-0.937064 -0.341064,0.937064 z"
         style="font-weight:bold;fill:#9bc1bc"
         id="path40889" />
      <path
         d="m 46.805687,29.519722 h 0.446139 v 0.249769 q 0.239434,-0.29111 0.570162,-0.29111 0.1757,0 0.30489,0.07235 0.129191,0.07235 0.211873,0.218763 0.120578,-0.146416 0.260104,-0.218763 0.139527,-0.07235 0.298001,-0.07235 0.201537,0 0.341063,0.08268 0.139526,0.08096 0.208428,0.239434 0.04995,0.117133 0.04995,0.37896 v 1.169607 H 49.012266 V 30.30348 q 0,-0.272162 -0.04995,-0.351399 -0.06718,-0.103353 -0.206705,-0.103353 -0.10163,0 -0.191202,0.06201 -0.08957,0.06201 -0.129191,0.182589 -0.03962,0.118856 -0.03962,0.377237 v 0.878498 H 47.91156 v -1.002521 q 0,-0.266994 -0.02584,-0.344509 -0.02584,-0.07751 -0.08096,-0.11541 -0.0534,-0.0379 -0.146417,-0.0379 -0.111965,0 -0.201537,0.06029 -0.08957,0.06029 -0.129191,0.173977 -0.0379,0.113688 -0.0379,0.377237 v 0.888833 H 46.80568 Z"
         style="font-weight:bold;fill:#9bc1bc"
         id="path40891" />
      <path
         d="m 49.964833,29.519722 h 0.451306 v 0.268717 q 0.08785,-0.137803 0.237711,-0.223931 0.149862,-0.08613 0.332451,-0.08613 0.318671,0 0.540879,0.249769 0.222208,0.249769 0.222208,0.695908 0,0.458196 -0.223931,0.713133 -0.22393,0.253214 -0.542601,0.253214 -0.151584,0 -0.275607,-0.06029 -0.122301,-0.06029 -0.258382,-0.206705 v 0.921561 h -0.484034 z m 0.478867,0.883665 q 0,0.308336 0.1223,0.456474 0.122301,0.146417 0.298001,0.146417 0.168809,0 0.280774,-0.134359 0.111966,-0.136081 0.111966,-0.444416 0,-0.287665 -0.115411,-0.427191 -0.11541,-0.139526 -0.285942,-0.139526 -0.177422,0 -0.294555,0.137803 Q 50.4437,30.13467 50.4437,30.403387 Z"
         style="font-weight:bold;fill:#9bc1bc"
         id="path40893" />
    </g>
    <g
       aria-label="Glide"
       id="text2702-7-8-6"
       style="font-size:3.52777px;line-height:0.95;font-family:Arial;-inkscape-font-specification:Arial;display:inline;stroke-width:0.264583"
       transform="translate(2.1866594e-6,-23.848594)">
      <path
         d="m 44.902057,31.073456 v -0.425468 h 1.098983 v 1.005965 q -0.160196,0.155029 -0.465087,0.273885 -0.303168,0.117133 -0.614948,0.117133 -0.396185,0 -0.69074,-0.165364 -0.294555,-0.167087 -0.442694,-0.475422 -0.148139,-0.310058 -0.148139,-0.673515 0,-0.394463 0.165365,-0.701075 0.165364,-0.306613 0.484034,-0.470255 0.242879,-0.125746 0.604613,-0.125746 0.470255,0 0.733804,0.198093 0.265272,0.19637 0.341064,0.544324 l -0.506428,0.09474 q -0.0534,-0.186035 -0.201538,-0.292833 -0.146416,-0.10852 -0.366902,-0.10852 -0.334173,0 -0.532266,0.211873 -0.19637,0.211873 -0.19637,0.628728 0,0.449584 0.199815,0.675238 0.199815,0.22393 0.523654,0.22393 0.160196,0 0.320393,-0.06201 0.161919,-0.06373 0.277329,-0.153307 v -0.320393 z"
         style="font-weight:bold;fill:#9bc1bc"
         id="path23716-9" />
      <path
         d="m 46.46785,32.001907 v -2.525249 h 0.484034 v 2.525249 z"
         style="font-weight:bold;fill:#9bc1bc"
         id="path23718-8" />
      <path
         d="m 47.447977,29.924519 v -0.447861 h 0.484035 v 0.447861 z m 0,2.077388 v -1.829341 h 0.484035 v 1.829341 z"
         style="font-weight:bold;fill:#9bc1bc"
         id="path23720-1" />
      <path
         d="M 50.105862,32.001907 H 49.656278 V 31.73319 q -0.111965,0.156752 -0.265271,0.234266 -0.151584,0.07579 -0.306613,0.07579 -0.315226,0 -0.540879,-0.253214 -0.223931,-0.254936 -0.223931,-0.709688 0,-0.465087 0.218763,-0.706243 0.218763,-0.242878 0.552937,-0.242878 0.306613,0 0.530543,0.254936 v -0.909503 h 0.484035 z m -1.291908,-0.954289 q 0,0.292832 0.08096,0.423746 0.117133,0.18948 0.327283,0.18948 0.167087,0 0.28422,-0.141249 0.117133,-0.142971 0.117133,-0.425468 0,-0.315226 -0.113688,-0.453029 -0.113688,-0.139526 -0.29111,-0.139526 -0.172254,0 -0.289387,0.137803 -0.115411,0.136081 -0.115411,0.408243 z"
         style="font-weight:bold;fill:#9bc1bc"
         id="path23722-6" />
      <path
         d="m 51.642371,31.419687 0.482313,0.08096 q -0.09302,0.265272 -0.294555,0.404798 -0.199815,0.137803 -0.501261,0.137803 -0.477144,0 -0.706243,-0.31178 -0.180867,-0.249769 -0.180867,-0.630451 0,-0.454752 0.237711,-0.711411 0.237711,-0.258381 0.601168,-0.258381 0.408243,0 0.644232,0.270439 0.235988,0.268717 0.225653,0.825099 h -1.212671 q 0.0052,0.215318 0.117133,0.335896 0.111965,0.118855 0.279052,0.118855 0.113688,0 0.191202,-0.06201 0.07751,-0.06201 0.117133,-0.199816 z m 0.02756,-0.489202 q -0.0052,-0.21015 -0.10852,-0.318671 -0.103353,-0.110242 -0.251492,-0.110242 -0.158474,0 -0.261826,0.11541 -0.103353,0.11541 -0.10163,0.313503 z"
         style="font-weight:bold;fill:#9bc1bc"
         id="path23724-0" />
    </g>
    <g
       aria-label="FM"
       id="text1773-0-0"
       style="font-size:3.52777px;line-height:1.25;font-family:Arial;-inkscape-font-specification:Arial;display:inline;stroke-width:0.264583"
       transform="translate(0.19551447,-2.8937919)">
      <path
         d="m 37.769641,76.831711 v -2.52525 h 1.731157 v 0.427191 h -1.221284 v 0.597723 h 1.054197 v 0.427191 h -1.054197 v 1.073145 z"
         style="font-weight:bold;fill:#9bc1bc"
         id="path9358" />
      <path
         d="m 39.914208,76.831711 v -2.52525 h 0.763087 l 0.458197,1.722544 0.453029,-1.722544 h 0.764809 v 2.52525 h -0.473699 v -1.987816 l -0.501261,1.987816 h -0.490925 l -0.499537,-1.987816 v 1.987816 z"
         style="font-weight:bold;fill:#9bc1bc"
         id="path9360" />
    </g>
    <g
       aria-label="FM"
       id="text1773-0-0-0"
       style="font-size:3.52777px;line-height:1.25;font-family:Arial;-inkscape-font-specification:Arial;display:inline;stroke-width:0.264583"
       transform="translate(14.850911,-12.332203)" />
    <g
       aria-label="AM"
       id="text1773-0-0-2"
       style="font-size:3.52777px;line-height:1.25;font-family:Arial;-inkscape-font-specification:Arial;display:inline;stroke-width:0.264583"
       transform="translate(-0.06631472,-2.8937919)">
      <path
         d="m 54.312911,76.831711 h -0.554659 l -0.220486,-0.573607 h -1.00941 l -0.208428,0.573607 h -0.540879 l 0.983573,-2.52525 h 0.539156 z m -0.938786,-0.999076 -0.347954,-0.937064 -0.341064,0.937064 z"
         style="font-weight:bold;fill:#9bc1bc"
         id="path9363" />
      <path
         d="m 54.57646,76.831711 v -2.52525 h 0.763087 l 0.458197,1.722544 0.453029,-1.722544 h 0.76481 v 2.52525 h -0.4737 v -1.987816 l -0.50126,1.987816 H 55.549698 L 55.05016,74.843895 v 1.987816 z"
         style="font-weight:bold;fill:#9bc1bc"
         id="path9365" />
    </g>
    <path
       style="display:inline;fill:#9bc1bc;fill-opacity:1;stroke-width:0.765;stroke-miterlimit:4;stroke-dasharray:none"
       id="path11275"
       width="12.635275"
       height="15.094602"
       x="5.7913628"
       y="100.28882"
       inkscape:path-effect="#path-effect11279"
       sodipodi:type="rect"
       d="m 7.3788628,100.28882 h 9.4602752 a 1.5875,1.5875 45 0 1 1.5875,1.5875 v 11.9196 a 1.5875,1.5875 135 0 1 -1.5875,1.5875 H 7.3788628 a 1.5875,1.5875 45 0 1 -1.5875,-1.5875 v -11.9196 a 1.5875,1.5875 135 0 1 1.5875,-1.5875 z" />
    <path
       style="display:inline;fill:#9bc1bc;fill-opacity:1;stroke-width:0.765;stroke-miterlimit:4;stroke-dasharray:none"
       id="path11275-1"
       width="12.635275"
       height="15.095"
       x="19.865362"
       y="100.28842"
       inkscape:path-effect="#path-effect9973"
       sodipodi:type="rect"
       d="m 21.452862,100.28842 h 9.460275 a 1.5875,1.5875 45 0 1 1.5875,1.5875 v 11.92 a 1.5875,1.5875 135 0 1 -1.5875,1.5875 h -9.460275 a 1.5875,1.5875 45 0 1 -1.5875,-1.5875 v -11.92 a 1.5875,1.5875 135 0 1 1.5875,-1.5875 z" />
    <path
       style="display:inline;fill:#9bc1bc;fill-opacity:1;stroke-width:0.765;stroke-miterlimit:4;stroke-dasharray:none"
       id="path11275-1-5"
       width="12.635275"
       height="15.095"
       x="33.939362"
       y="100.28842"
       inkscape:path-effect="#path-effect10002"
       sodipodi:type="rect"
       d="m 35.526862,100.28842 h 9.460274 a 1.5875,1.5875 45 0 1 1.5875,1.5875 v 11.92 a 1.5875,1.5875 135 0 1 -1.5875,1.5875 h -9.460274 a 1.5875,1.5875 45 0 1 -1.5875,-1.5875 v -11.92 a 1.5875,1.5875 135 0 1 1.5875,-1.5875 z" />
    <path
       style="display:inline;fill:#9bc1bc;fill-opacity:1;stroke-width:0.765;stroke-miterlimit:4;stroke-dasharray:none"
       id="path11275-1-5-7"
       width="12.635275"
       height="15.095"
       x="48.013363"
       y="100.28842"
       inkscape:path-effect="#path-effect10031"
       sodipodi:type="rect"
       d="m 49.600863,100.28842 h 9.460275 a 1.5875,1.5875 45 0 1 1.5875,1.5875 v 11.92 a 1.5875,1.5875 135 0 1 -1.5875,1.5875 h -9.460275 a 1.5875,1.5875 45 0 1 -1.5875,-1.5875 v -11.92 a 1.5875,1.5875 135 0 1 1.5875,-1.5875 z" />
    <g
       aria-label="Square"
       id="text13832"
       style="font-size:2.82222px;line-height:1.25;font-family:Arial;-inkscape-font-specification:Arial;stroke-width:0.264583"
       transform="translate(0,1.00005)">
      <path
         d="m 7.4324577,101.69134 0.3968747,-0.0386 q 0.035829,0.19982 0.1446939,0.29353 0.110243,0.0937 0.296278,0.0937 0.1970593,0 0.296278,-0.0827 0.1005967,-0.0841 0.1005967,-0.19568 0,-0.0717 -0.042719,-0.12127 -0.041341,-0.051 -0.1460719,-0.0882 -0.071658,-0.0248 -0.3265948,-0.0882 -0.3279728,-0.0813 -0.4602644,-0.19981 -0.186035,-0.16674 -0.186035,-0.40652 0,-0.15434 0.086816,-0.28801 0.088194,-0.13505 0.2521808,-0.20533 0.1653645,-0.0703 0.3982528,-0.0703 0.3803382,0 0.5718854,0.16674 0.1929252,0.16674 0.2025714,0.44511 l -0.407899,0.0179 q -0.026183,-0.15572 -0.112999,-0.22324 -0.085438,-0.0689 -0.257693,-0.0689 -0.1777667,0 -0.2783635,0.073 -0.064768,0.0469 -0.064768,0.1254 0,0.0716 0.060634,0.12264 0.07717,0.0648 0.3748261,0.13505 0.2976561,0.0703 0.4395939,0.14607 0.1433158,0.0744 0.223242,0.20533 0.081304,0.12953 0.081304,0.32108 0,0.17363 -0.096463,0.32522 -0.096463,0.15158 -0.2728514,0.226 -0.1763887,0.073 -0.4395938,0.073 -0.3830943,0 -0.5884219,-0.17639 -0.2053275,-0.17776 -0.2452906,-0.51676 z"
         style="font-weight:bold;fill:#f9fafb"
         id="path12011" />
      <path
         d="m 10.371811,102.90539 v -0.73587 q -0.07579,0.0978 -0.188791,0.15572 -0.112999,0.0565 -0.2439127,0.0565 -0.2494248,0 -0.4106551,-0.18742 -0.1901691,-0.2191 -0.1901691,-0.59393 0,-0.35278 0.1777668,-0.54984 0.1791448,-0.19844 0.4437279,-0.19844 0.1460722,0 0.2521812,0.062 0.107487,0.062 0.190169,0.18741 v -0.21635 h 0.356911 v 2.0202 z m 0.0124,-1.30638 q 0,-0.22462 -0.09233,-0.33348 -0.09095,-0.11025 -0.228754,-0.11025 -0.1405602,0 -0.2356447,0.11162 -0.093707,0.11163 -0.093707,0.35416 0,0.24116 0.09095,0.34864 0.09095,0.10611 0.2246197,0.10611 0.13367,0 0.234267,-0.11989 0.100596,-0.11989 0.100596,-0.35691 z"
         style="font-weight:bold;fill:#f9fafb"
         id="path12013" />
      <path
         d="m 12.102626,102.34866 v -0.2191 q -0.07993,0.11713 -0.21084,0.18465 -0.129536,0.0675 -0.274229,0.0675 -0.14745,0 -0.264584,-0.0648 -0.117133,-0.0648 -0.169498,-0.1819 -0.05237,-0.11714 -0.05237,-0.32384 v -0.92604 h 0.387229 v 0.67248 q 0,0.30868 0.02067,0.37896 0.02205,0.0689 0.07855,0.11024 0.0565,0.04 0.143315,0.04 0.09922,0 0.177767,-0.0537 0.07855,-0.0551 0.107487,-0.13504 0.02894,-0.0813 0.02894,-0.3955 v -0.61736 h 0.387228 v 1.46347 z"
         style="font-weight:bold;fill:#f9fafb"
         id="path12015" />
      <path
         d="m 13.15269,101.33167 -0.351399,-0.0634 q 0.05925,-0.21222 0.203949,-0.31419 0.144694,-0.10198 0.429948,-0.10198 0.259071,0 0.38585,0.062 0.12678,0.0606 0.177767,0.15571 0.05236,0.0937 0.05236,0.34589 l -0.0041,0.452 q 0,0.19292 0.01792,0.28525 0.01929,0.091 0.07028,0.19568 H 13.75217 q -0.01516,-0.0386 -0.03721,-0.11437 -0.0096,-0.0345 -0.01378,-0.0455 -0.09922,0.0965 -0.212218,0.14469 -0.112999,0.0482 -0.241156,0.0482 -0.225998,0 -0.356912,-0.12265 -0.129535,-0.12264 -0.129535,-0.31006 0,-0.12402 0.05925,-0.22048 0.05926,-0.0978 0.165365,-0.14883 0.107487,-0.0524 0.30868,-0.0909 0.271473,-0.051 0.376204,-0.0951 v -0.0386 q 0,-0.11162 -0.05512,-0.15848 -0.05512,-0.0482 -0.208084,-0.0482 -0.103353,0 -0.16123,0.0413 -0.05788,0.04 -0.09371,0.14194 z m 0.518142,0.31419 q -0.07441,0.0248 -0.235644,0.0593 -0.161231,0.0345 -0.21084,0.0675 -0.07579,0.0538 -0.07579,0.13643 0,0.0813 0.06063,0.14056 0.06063,0.0593 0.15434,0.0593 0.104731,0 0.199815,-0.0689 0.07028,-0.0524 0.09233,-0.12815 0.01516,-0.0496 0.01516,-0.1888 z"
         style="font-weight:bold;fill:#f9fafb"
         id="path12017" />
      <path
         d="M 14.803579,102.34866 H 14.41635 v -1.46347 h 0.359668 v 0.20808 q 0.09233,-0.14745 0.165364,-0.1943 0.07441,-0.0469 0.168121,-0.0469 0.132291,0 0.254937,0.073 l -0.119889,0.33762 q -0.09784,-0.0634 -0.181901,-0.0634 -0.08131,0 -0.137804,0.0455 -0.0565,0.0441 -0.08957,0.16123 -0.0317,0.11713 -0.0317,0.49058 z"
         style="font-weight:bold;fill:#f9fafb"
         id="path12019" />
      <path
         d="m 16.378675,101.88289 0.385851,0.0648 q -0.07441,0.21222 -0.235645,0.32384 -0.159852,0.11025 -0.401009,0.11025 -0.381716,0 -0.564995,-0.24943 -0.144694,-0.19981 -0.144694,-0.50436 0,-0.3638 0.190169,-0.56913 0.19017,-0.20671 0.480935,-0.20671 0.326595,0 0.515386,0.21636 0.188791,0.21497 0.180523,0.66008 h -0.970138 q 0.0041,0.17225 0.09371,0.26871 0.08957,0.0951 0.223242,0.0951 0.09095,0 0.152962,-0.0496 0.06201,-0.0496 0.09371,-0.15985 z m 0.02205,-0.39137 q -0.0041,-0.16812 -0.08682,-0.25493 -0.08268,-0.0882 -0.201193,-0.0882 -0.126779,0 -0.209462,0.0923 -0.08268,0.0923 -0.0813,0.2508 z"
         style="font-weight:bold;fill:#f9fafb"
         id="path12021" />
    </g>
    <g
       aria-label="Sin"
       id="text13832-2"
       style="font-size:2.82222px;line-height:1.25;font-family:Arial;-inkscape-font-specification:Arial;display:inline;stroke-width:0.264583"
       transform="translate(0,0.73968)">
      <path
         d="m 24.133858,102.21224 0.396875,-0.0386 q 0.03583,0.19982 0.144694,0.29352 0.110243,0.0937 0.296278,0.0937 0.197059,0 0.296278,-0.0827 0.100596,-0.0841 0.100596,-0.19568 0,-0.0717 -0.04272,-0.12127 -0.04134,-0.051 -0.146072,-0.0882 -0.07166,-0.0248 -0.326595,-0.0882 -0.327972,-0.0813 -0.460264,-0.19981 -0.186035,-0.16675 -0.186035,-0.40653 0,-0.15434 0.08682,-0.28801 0.08819,-0.13504 0.252181,-0.20532 0.165365,-0.0703 0.398253,-0.0703 0.380338,0 0.571885,0.16674 0.192925,0.16674 0.202572,0.44511 l -0.407899,0.0179 q -0.02618,-0.15572 -0.112999,-0.22324 -0.08544,-0.0689 -0.257693,-0.0689 -0.177767,0 -0.278364,0.073 -0.06477,0.0469 -0.06477,0.1254 0,0.0717 0.06063,0.12265 0.07717,0.0648 0.374826,0.13505 0.297656,0.0703 0.439594,0.14607 0.143316,0.0744 0.223242,0.20533 0.0813,0.12953 0.0813,0.32108 0,0.17363 -0.09646,0.32522 -0.09646,0.15158 -0.272852,0.22599 -0.176388,0.073 -0.439594,0.073 -0.383094,0 -0.588421,-0.17639 -0.205328,-0.17777 -0.245291,-0.51676 z"
         style="font-weight:bold;fill:#f9fafb"
         id="path11986" />
      <path
         d="m 26.116853,101.20765 v -0.35829 h 0.387229 v 0.35829 z m 0,1.66191 v -1.46348 h 0.387229 v 1.46348 z"
         style="font-weight:bold;fill:#f9fafb"
         id="path11988" />
      <path
         d="m 28.232141,102.86956 h -0.387229 v -0.7469 q 0,-0.23702 -0.02481,-0.30592 -0.0248,-0.0703 -0.0813,-0.10887 -0.05512,-0.0386 -0.133669,-0.0386 -0.100597,0 -0.180523,0.0551 -0.07993,0.0551 -0.110243,0.14607 -0.02894,0.0909 -0.02894,0.33624 v 0.66284 h -0.387228 v -1.46348 h 0.359667 v 0.21498 q 0.191547,-0.24805 0.482313,-0.24805 0.128158,0 0.234267,0.0469 0.106109,0.0455 0.159852,0.11713 0.05512,0.0717 0.07579,0.16261 0.02205,0.0909 0.02205,0.26045 z"
         style="font-weight:bold;fill:#f9fafb"
         id="path11990" />
    </g>
    <g
       aria-label="Tri"
       id="text13832-2-4"
       style="font-size:2.82222px;line-height:1.25;font-family:Arial;-inkscape-font-specification:Arial;display:inline;stroke-width:0.264583"
       transform="translate(0,0.70444)">
      <path
         d="m 39.258613,102.90538 v -1.67845 h -0.599446 v -0.34175 h 1.605414 v 0.34175 h -0.598069 v 1.67845 z"
         style="font-weight:bold;fill:#f9fafb"
         id="path10691" />
      <path
         d="m 40.740003,102.90538 h -0.387228 v -1.46348 h 0.359668 v 0.20809 q 0.09233,-0.14745 0.165364,-0.1943 0.07441,-0.0469 0.168121,-0.0469 0.132291,0 0.254937,0.073 l -0.11989,0.33762 q -0.09784,-0.0634 -0.181901,-0.0634 -0.0813,0 -0.137803,0.0455 -0.0565,0.0441 -0.08957,0.16123 -0.03169,0.11714 -0.03169,0.49058 z"
         style="font-weight:bold;fill:#f9fafb"
         id="path10693" />
      <path
         d="m 41.467607,101.24347 v -0.35829 h 0.387229 v 0.35829 z m 0,1.66191 v -1.46348 h 0.387229 v 1.46348 z"
         style="font-weight:bold;fill:#f9fafb"
         id="path10695" />
    </g>
    <g
       aria-label="Noise"
       id="text13832-2-4-3"
       style="font-size:2.82222px;line-height:1.25;font-family:Arial;-inkscape-font-specification:Arial;display:inline;stroke-width:0.264583"
       transform="translate(0,0.720945)">
      <path
         d="m 50.649403,102.87232 v -2.0202 h 0.396875 l 0.826822,1.3491 v -1.3491 h 0.37896 v 2.0202 h -0.409277 l -0.81442,-1.3174 v 1.3174 z"
         style="font-weight:bold;fill:#f9fafb"
         id="path10662" />
      <path
         d="m 52.591057,102.11991 q 0,-0.19292 0.09508,-0.37344 0.09509,-0.18053 0.268717,-0.27561 0.175011,-0.0951 0.389985,-0.0951 0.332107,0 0.544324,0.21636 0.212218,0.21497 0.212218,0.54432 0,0.33211 -0.214974,0.55122 -0.213595,0.21772 -0.538812,0.21772 -0.201194,0 -0.384473,-0.0909 -0.1819,-0.091 -0.276985,-0.26596 -0.09508,-0.17639 -0.09508,-0.42857 z m 0.396875,0.0207 q 0,0.21773 0.103353,0.33349 0.103353,0.11575 0.254937,0.11575 0.151584,0 0.253559,-0.11575 0.103352,-0.11576 0.103352,-0.33624 0,-0.21498 -0.103352,-0.33073 -0.101975,-0.11576 -0.253559,-0.11576 -0.151584,0 -0.254937,0.11576 -0.103353,0.11575 -0.103353,0.33348 z"
         style="font-weight:bold;fill:#f9fafb"
         id="path10664" />
      <path
         d="m 54.404554,101.21041 v -0.35829 h 0.387229 v 0.35829 z m 0,1.66191 v -1.46347 h 0.387229 v 1.46347 z"
         style="font-weight:bold;fill:#f9fafb"
         id="path10666" />
      <path
         d="m 55.052232,102.45478 0.388606,-0.0593 q 0.02481,0.113 0.100597,0.17226 0.07579,0.0579 0.212218,0.0579 0.150206,0 0.225998,-0.0551 0.05099,-0.0386 0.05099,-0.10335 0,-0.0441 -0.02756,-0.073 -0.02894,-0.0276 -0.129535,-0.051 -0.468533,-0.10336 -0.593934,-0.1888 -0.173633,-0.11851 -0.173633,-0.32935 0,-0.19017 0.150206,-0.3197 0.150206,-0.12954 0.465777,-0.12954 0.300412,0 0.446484,0.0978 0.146072,0.0979 0.201193,0.28939 l -0.36518,0.0675 q -0.02343,-0.0854 -0.08957,-0.13092 -0.06477,-0.0455 -0.186035,-0.0455 -0.152962,0 -0.219108,0.0427 -0.0441,0.0303 -0.0441,0.0785 0,0.0413 0.03858,0.0703 0.05237,0.0386 0.361046,0.10887 0.310058,0.0703 0.432703,0.17225 0.121268,0.10336 0.121268,0.28801 0,0.2012 -0.168121,0.34589 -0.168121,0.14469 -0.497471,0.14469 -0.299034,0 -0.474045,-0.12126 -0.173633,-0.12127 -0.227376,-0.32935 z"
         style="font-weight:bold;fill:#f9fafb"
         id="path10668" />
      <path
         d="m 57.605735,102.40655 0.38585,0.0648 q -0.07441,0.21222 -0.235644,0.32384 -0.159853,0.11024 -0.401009,0.11024 -0.381716,0 -0.564995,-0.24942 -0.144694,-0.19982 -0.144694,-0.50436 0,-0.3638 0.190169,-0.56913 0.190169,-0.20671 0.480935,-0.20671 0.326595,0 0.515386,0.21636 0.188791,0.21497 0.180523,0.66008 h -0.970139 q 0.0041,0.17225 0.09371,0.26871 0.08957,0.0951 0.223242,0.0951 0.09095,0 0.152962,-0.0496 0.06201,-0.0496 0.09371,-0.15985 z m 0.02205,-0.39137 q -0.0041,-0.16812 -0.08682,-0.25493 -0.08268,-0.0882 -0.201194,-0.0882 -0.126779,0 -0.209461,0.0923 -0.08268,0.0923 -0.0813,0.2508 z"
         style="font-weight:bold;fill:#f9fafb"
         id="path10670" />
    </g>
    <g
       aria-label="Sync"
       id="text3875"
       style="font-size:3.52777px;line-height:1.25;font-family:Arial;-inkscape-font-specification:Arial;display:inline;opacity:1;stroke-width:0.264583"
       transform="translate(-17.911406,80.141834)">
      <path
         d="m 25.913,7.3316592 0.496093,-0.048231 q 0.04479,0.2497689 0.180867,0.3669018 0.137804,0.117133 0.370347,0.117133 0.246324,0 0.370347,-0.1033526 Q 27.4564,7.559035 27.4564,7.419509 27.4564,7.329937 27.403,7.2679251 27.35132,7.2041911 27.22041,7.1576823 27.13084,7.1266763 26.812167,7.0474395 26.402202,6.9458094 26.236838,6.7976706 26.004294,6.5892428 26.004294,6.2895201 q 0,-0.1929249 0.10852,-0.3600117 0.110243,-0.1688093 0.315226,-0.256659 0.206705,-0.08785 0.497815,-0.08785 0.475422,0 0.714856,0.2084278 0.241156,0.2084279 0.253214,0.5563818 l -0.509873,0.022393 q -0.03273,-0.1946474 -0.141249,-0.2790521 -0.106798,-0.086127 -0.322116,-0.086127 -0.222208,0 -0.347953,0.091295 -0.08096,0.058567 -0.08096,0.1567515 0,0.089572 0.07579,0.1533064 0.09646,0.08096 0.468532,0.1688094 0.372069,0.08785 0.549491,0.1825896 0.179145,0.093017 0.279053,0.2566591 0.10163,0.1619191 0.10163,0.4013527 0,0.2170405 -0.120578,0.4065204 -0.120578,0.1894798 -0.341064,0.2824972 -0.220486,0.091295 -0.549492,0.091295 -0.478867,0 -0.735526,-0.2204856 Q 25.962954,7.755405 25.913,7.3316592 Z"
         style="font-weight:bold;fill:#9bc1bc"
         id="path11525" />
      <path
         d="m 28.162643,6.323971 h 0.51504 L 29.11521,7.6227691 29.5424,6.323971 h 0.501261 l -0.645954,1.7604399 -0.115411,0.3186707 q -0.06373,0.1601965 -0.1223,0.2446012 -0.05684,0.084405 -0.132636,0.136081 -0.07407,0.053399 -0.184312,0.082682 -0.108521,0.029283 -0.246324,0.029283 -0.139526,0 -0.273885,-0.029283 l -0.04306,-0.3789597 q 0.113688,0.022393 0.204982,0.022393 0.16881,0 0.249769,-0.099908 0.08096,-0.098185 0.124024,-0.2514914 z"
         style="font-weight:bold;fill:#9bc1bc"
         id="path11527" />
      <path
         d="M 32.017696,8.1533127 H 31.533661 V 7.2196939 q 0,-0.2962776 -0.031,-0.3824048 -0.03101,-0.08785 -0.10163,-0.136081 -0.0689,-0.048231 -0.167087,-0.048231 -0.125746,0 -0.225653,0.068902 -0.09991,0.068902 -0.137804,0.1825897 -0.03617,0.1136879 -0.03617,0.4203007 V 8.1533127 H 30.350274 V 6.323971 h 0.449584 v 0.2687168 q 0.239433,-0.3100579 0.60289,-0.3100579 0.160197,0 0.292833,0.058567 0.132635,0.056844 0.199815,0.1464163 0.0689,0.089572 0.09474,0.2032602 0.02756,0.1136879 0.02756,0.3255608 z"
         style="font-weight:bold;fill:#9bc1bc"
         id="path11529" />
      <path
         d="m 34.103697,6.8648498 -0.477145,0.086127 q -0.02411,-0.1429712 -0.110242,-0.215318 -0.0844,-0.072347 -0.220486,-0.072347 -0.180867,0 -0.289387,0.1257457 -0.106798,0.1240231 -0.106798,0.4168556 0,0.3255608 0.10852,0.4599192 0.110243,0.1343585 0.294555,0.1343585 0.137804,0 0.225653,-0.077515 0.08785,-0.079237 0.124023,-0.2704394 l 0.475423,0.08096 q -0.07407,0.3272833 -0.28422,0.4943701 -0.21015,0.1670867 -0.563272,0.1670867 -0.401353,0 -0.640786,-0.2532139 -0.237711,-0.253214 -0.237711,-0.7010754 0,-0.4530291 0.239433,-0.7045205 0.239434,-0.253214 0.647677,-0.253214 0.334173,0 0.530543,0.1446937 0.198093,0.1429712 0.28422,0.4375267 z"
         style="font-weight:bold;fill:#9bc1bc"
         id="path11531" />
    </g>
    <rect
       style="display:inline;fill:#5d576b;fill-opacity:1;stroke-width:0.563337;stroke-miterlimit:4;stroke-dasharray:none"
       id="rect104115-4-1"
       width="2.1515198"
       height="13.036647"
       x="-27.258759"
       y="-95.490273"
       transform="scale(-1)" />
    <g
       aria-label="BM"
       id="text1773-0"
       style="font-size:3.52777px;line-height:1.25;font-family:Arial;-inkscape-font-specification:Arial;display:inline;stroke-width:0.264583"
       transform="translate(0,-2.8937944)">
      <path
         d="m 23.693923,74.306461 h 1.009411 q 0.299722,0 0.446138,0.02584 0.148139,0.02411 0.26355,0.103352 0.117133,0.07924 0.194647,0.211873 0.07751,0.130913 0.07751,0.294555 0,0.177422 -0.09646,0.325561 -0.09474,0.148139 -0.258381,0.222208 0.23082,0.06718 0.354844,0.229098 0.124023,0.16192 0.124023,0.380683 0,0.172254 -0.08096,0.335896 -0.07924,0.161919 -0.218763,0.260104 -0.137803,0.09646 -0.341064,0.118855 -0.127468,0.01378 -0.614948,0.01723 h -0.859549 z m 0.509873,0.420301 v 0.583942 h 0.334173 q 0.298,0 0.370347,-0.0086 0.130914,-0.0155 0.204983,-0.08957 0.07579,-0.07579 0.07579,-0.198092 0,-0.117133 -0.06546,-0.18948 -0.06373,-0.07407 -0.191202,-0.08957 -0.07579,-0.0086 -0.435804,-0.0086 z m 0,1.004243 v 0.675237 h 0.471977 q 0.275607,0 0.349676,-0.0155 0.113688,-0.02067 0.184312,-0.09991 0.07235,-0.08096 0.07235,-0.215318 0,-0.113688 -0.05512,-0.192925 -0.05512,-0.07924 -0.160197,-0.11541 -0.103352,-0.03617 -0.451306,-0.03617 z"
         style="font-weight:bold;fill:#9bc1bc"
         id="path9353" />
      <path
         d="m 26.232952,76.831711 v -2.52525 h 0.763087 l 0.458197,1.722544 0.453029,-1.722544 h 0.76481 v 2.52525 h -0.4737 v -1.987816 l -0.50126,1.987816 H 27.20619 l -0.499538,-1.987816 v 1.987816 z"
         style="font-weight:bold;fill:#9bc1bc"
         id="path9355" />
    </g>
    <g
       aria-label="Frequency"
       id="text3665"
       style="font-weight:bold;font-size:3.52777px;line-height:1.25;font-family:Calibri;-inkscape-font-specification:'Calibri Bold';text-align:center;text-anchor:middle;stroke-width:0.264583">
      <path
         d="m 24.264272,25.783134 v -2.525249 h 1.731157 v 0.427191 h -1.221284 v 0.597723 h 1.054197 v 0.427191 h -1.054197 v 1.073144 z"
         style="font-family:Arial;-inkscape-font-specification:'Arial Bold';fill:#9bc1bc"
         id="path13756" />
      <path
         d="m 26.875649,25.783134 h -0.484035 v -1.829341 h 0.449584 v 0.260104 q 0.115411,-0.184312 0.206705,-0.242879 0.09302,-0.05857 0.210151,-0.05857 0.165364,0 0.31867,0.0913 l -0.149861,0.422023 q -0.122301,-0.07924 -0.227376,-0.07924 -0.10163,0 -0.172254,0.05684 -0.07062,0.05512 -0.111965,0.201537 -0.03962,0.146417 -0.03962,0.613226 z"
         style="font-family:Arial;-inkscape-font-specification:'Arial Bold';fill:#9bc1bc"
         id="path13758" />
      <path
         d="m 28.844517,25.200915 0.482312,0.08096 q -0.09302,0.265272 -0.294555,0.404798 -0.199815,0.137804 -0.50126,0.137804 -0.477145,0 -0.706243,-0.311781 -0.180867,-0.249769 -0.180867,-0.630451 0,-0.454752 0.237711,-0.711411 0.237711,-0.258381 0.601168,-0.258381 0.408242,0 0.644231,0.270439 0.235989,0.268717 0.225653,0.825099 h -1.212671 q 0.0052,0.215318 0.117133,0.335896 0.111966,0.118855 0.279052,0.118855 0.113688,0 0.191203,-0.06201 0.07751,-0.06201 0.117133,-0.199815 z m 0.02756,-0.489203 q -0.0052,-0.21015 -0.108521,-0.318671 -0.103352,-0.110242 -0.251491,-0.110242 -0.158474,0 -0.261827,0.11541 -0.103353,0.115411 -0.10163,0.313503 z"
         style="font-family:Arial;-inkscape-font-specification:'Arial Bold';fill:#9bc1bc"
         id="path13760" />
      <path
         d="m 30.942575,26.479042 v -0.919838 q -0.09474,0.1223 -0.235988,0.194647 -0.141249,0.07062 -0.304891,0.07062 -0.31178,0 -0.513318,-0.234266 -0.237711,-0.273885 -0.237711,-0.742417 0,-0.440971 0.222208,-0.687295 0.223931,-0.248046 0.55466,-0.248046 0.182589,0 0.315225,0.07751 0.134359,0.07752 0.237711,0.234266 v -0.270439 h 0.446139 v 2.525249 z m 0.0155,-1.632971 q 0,-0.280775 -0.11541,-0.416856 -0.113688,-0.137804 -0.285943,-0.137804 -0.175699,0 -0.294555,0.139526 -0.117133,0.139527 -0.117133,0.442694 0,0.301445 0.113688,0.435804 0.113688,0.132636 0.280775,0.132636 0.167087,0 0.292832,-0.149862 0.125746,-0.149861 0.125746,-0.446138 z"
         style="font-family:Arial;-inkscape-font-specification:'Arial Bold';fill:#9bc1bc"
         id="path13762" />
      <path
         d="M 33.10609,25.783134 V 25.50925 q -0.09991,0.146416 -0.263549,0.230821 -0.161919,0.08441 -0.342786,0.08441 -0.184312,0 -0.330728,-0.08096 -0.146417,-0.08096 -0.211873,-0.227376 -0.06546,-0.146416 -0.06546,-0.404798 v -1.157549 h 0.484035 v 0.840601 q 0,0.38585 0.02584,0.4737 0.02756,0.08613 0.09819,0.137803 0.07062,0.04995 0.179145,0.04995 0.124023,0 0.222208,-0.06718 0.09819,-0.0689 0.134358,-0.168809 0.03617,-0.101631 0.03617,-0.494371 v -0.771699 h 0.484034 v 1.829341 z"
         style="font-family:Arial;-inkscape-font-specification:'Arial Bold';fill:#9bc1bc"
         id="path13764" />
      <path
         d="m 35.1163,25.200915 0.482312,0.08096 q -0.09302,0.265272 -0.294555,0.404798 -0.199815,0.137804 -0.50126,0.137804 -0.477145,0 -0.706243,-0.311781 -0.180867,-0.249769 -0.180867,-0.630451 0,-0.454752 0.237711,-0.711411 0.237711,-0.258381 0.601167,-0.258381 0.408243,0 0.644232,0.270439 0.235988,0.268717 0.225653,0.825099 h -1.212671 q 0.0052,0.215318 0.117133,0.335896 0.111966,0.118855 0.279052,0.118855 0.113688,0 0.191203,-0.06201 0.07751,-0.06201 0.117133,-0.199815 z m 0.02756,-0.489203 q -0.0052,-0.21015 -0.10852,-0.318671 -0.103353,-0.110242 -0.251491,-0.110242 -0.158474,0 -0.261827,0.11541 -0.103353,0.115411 -0.10163,0.313503 z"
         style="font-family:Arial;-inkscape-font-specification:'Arial Bold';fill:#9bc1bc"
         id="path13766" />
      <path
         d="m 37.68289,25.783134 h -0.484035 v -0.933618 q 0,-0.296278 -0.03101,-0.382405 -0.03101,-0.08785 -0.10163,-0.136081 -0.0689,-0.04823 -0.167087,-0.04823 -0.125746,0 -0.225653,0.0689 -0.09991,0.0689 -0.137804,0.18259 -0.03617,0.113688 -0.03617,0.420301 v 0.828543 h -0.484035 v -1.829341 h 0.449584 v 0.268717 q 0.239434,-0.310058 0.60289,-0.310058 0.160197,0 0.292833,0.05857 0.132636,0.05684 0.199815,0.146416 0.0689,0.08957 0.09474,0.203261 0.02756,0.113688 0.02756,0.32556 z"
         style="font-family:Arial;-inkscape-font-specification:'Arial Bold';fill:#9bc1bc"
         id="path13768" />
      <path
         d="m 39.76889,24.494672 -0.477144,0.08613 q -0.02412,-0.142971 -0.110243,-0.215318 -0.0844,-0.07235 -0.220486,-0.07235 -0.180867,0 -0.289387,0.125746 -0.106798,0.124023 -0.106798,0.416855 0,0.325561 0.10852,0.45992 0.110243,0.134358 0.294555,0.134358 0.137804,0 0.225654,-0.07751 0.08785,-0.07924 0.124023,-0.270439 l 0.475422,0.08096 q -0.07407,0.327283 -0.28422,0.49437 -0.21015,0.167087 -0.563272,0.167087 -0.401352,0 -0.640786,-0.253214 -0.237711,-0.253214 -0.237711,-0.701076 0,-0.453029 0.239433,-0.70452 0.239434,-0.253214 0.647677,-0.253214 0.334174,0 0.530544,0.144693 0.198092,0.142972 0.284219,0.437527 z"
         style="font-family:Arial;-inkscape-font-specification:'Arial Bold';fill:#9bc1bc"
         id="path13770" />
      <path
         d="m 39.906694,23.953793 h 0.515041 l 0.437526,1.298798 0.427191,-1.298798 h 0.50126 l -0.645954,1.76044 -0.11541,0.31867 q -0.06373,0.160197 -0.122301,0.244602 -0.05684,0.0844 -0.132636,0.136081 -0.07407,0.0534 -0.184312,0.08268 -0.10852,0.02928 -0.246324,0.02928 -0.139526,0 -0.273884,-0.02928 l -0.04306,-0.37896 q 0.113688,0.02239 0.204983,0.02239 0.168809,0 0.249769,-0.09991 0.08096,-0.09819 0.124023,-0.251492 z"
         style="font-family:Arial;-inkscape-font-specification:'Arial Bold';fill:#9bc1bc"
         id="path13772" />
    </g>
    <g
       aria-label="LFO"
       id="text11481"
       style="font-weight:bold;font-size:3.52777px;line-height:1.25;font-family:Calibri;-inkscape-font-specification:'Calibri Bold';text-align:center;text-anchor:middle;fill:#9bc1bc;stroke-width:0.264583"
       transform="translate(0,-1.0583333)">
      <path
         d="m 10.78867,74.767155 q 0,0.05168 -0.0052,0.08785 -0.0034,0.03445 -0.01206,0.05857 -0.0086,0.02239 -0.02239,0.03273 -0.01206,0.01034 -0.02928,0.01034 H 9.6982996 q -0.056844,0 -0.096463,-0.03273 -0.037896,-0.03445 -0.037896,-0.110243 v -2.023989 q 0,-0.01723 0.010335,-0.03101 0.012058,-0.01378 0.037896,-0.02239 0.025838,-0.0086 0.068902,-0.01378 0.044786,-0.0052 0.1102428,-0.0052 0.067179,0 0.1102428,0.0052 0.043064,0.0052 0.068902,0.01378 0.025838,0.0086 0.036173,0.02239 0.01206,0.01378 0.01206,0.03101 v 1.793168 h 0.701075 q 0.01723,0 0.02928,0.01034 0.01378,0.0086 0.02239,0.03101 0.0086,0.02067 0.01206,0.05684 0.0052,0.03445 0.0052,0.08613 z"
         id="path14205" />
      <path
         d="m 12.306231,72.913697 q 0,0.05168 -0.0052,0.08785 -0.0034,0.03445 -0.01378,0.05512 -0.0086,0.02067 -0.02067,0.03101 -0.01206,0.01034 -0.02756,0.01034 h -0.728636 v 0.599445 h 0.68385 q 0.0155,0 0.02756,0.0086 0.01206,0.0086 0.02067,0.02928 0.01033,0.02067 0.01378,0.05512 0.0052,0.03445 0.0052,0.08613 0,0.05168 -0.0052,0.08613 -0.0034,0.03445 -0.01378,0.05684 -0.0086,0.02239 -0.02067,0.03273 -0.01206,0.0086 -0.02756,0.0086 h -0.68385 v 0.830266 q 0,0.01895 -0.01033,0.03273 -0.01034,0.01378 -0.0379,0.02412 -0.02584,0.0086 -0.0689,0.01378 -0.04306,0.0052 -0.110243,0.0052 -0.06546,0 -0.110243,-0.0052 -0.04306,-0.0052 -0.0689,-0.01378 -0.02584,-0.01033 -0.0379,-0.02412 -0.01033,-0.01378 -0.01033,-0.03273 v -2.020544 q 0,-0.07579 0.0379,-0.10852 0.03962,-0.03445 0.09646,-0.03445 h 1.049029 q 0.0155,0 0.02756,0.01033 0.01206,0.0086 0.02067,0.03101 0.01033,0.02067 0.01378,0.05684 0.0052,0.03617 0.0052,0.08785 z"
         id="path14207" />
      <path
         d="m 14.654059,73.81631 q 0,0.27733 -0.0689,0.496093 -0.0689,0.218763 -0.204983,0.37207 -0.136081,0.151583 -0.337618,0.232543 -0.199816,0.07924 -0.463365,0.07924 -0.260104,0 -0.454751,-0.06718 -0.192925,-0.0689 -0.322116,-0.208428 -0.129191,-0.139526 -0.194648,-0.354844 -0.06373,-0.215318 -0.06373,-0.509873 0,-0.270439 0.0689,-0.485757 0.0689,-0.217041 0.204983,-0.368625 0.136081,-0.151584 0.335896,-0.232543 0.201538,-0.08096 0.466809,-0.08096 0.253214,0 0.446139,0.06718 0.194648,0.06718 0.323838,0.206706 0.130914,0.139526 0.19637,0.353121 0.06718,0.211873 0.06718,0.50126 z m -0.475422,0.02412 q 0,-0.175699 -0.02756,-0.318671 -0.02756,-0.144693 -0.09474,-0.246323 -0.06546,-0.103353 -0.1757,-0.158474 -0.110242,-0.05684 -0.275607,-0.05684 -0.167086,0 -0.279052,0.06373 -0.111965,0.06201 -0.180867,0.167087 -0.0689,0.105075 -0.09819,0.246323 -0.02756,0.139526 -0.02756,0.296278 0,0.18259 0.02756,0.329006 0.02756,0.144693 0.09302,0.248046 0.06546,0.103353 0.175699,0.158474 0.110243,0.0534 0.27733,0.0534 0.167086,0 0.279052,-0.06201 0.111965,-0.06201 0.180867,-0.168809 0.0689,-0.106798 0.09646,-0.248046 0.02928,-0.142971 0.02928,-0.303168 z"
         id="path14209" />
    </g>
  </g>
  <g
     inkscape:groupmode="layer"
     id="layer2"
     inkscape:label="components"
     style="display:none">
    <ellipse
       style="display:inline;fill:#0000ff;fill-opacity:1;stroke-width:0.0698898"
       id="path1193-5-3"
       cx="12.109"
       cy="110.45718"
       inkscape:label="square_out"
       rx="2.892"
       ry="2.8915157" />
    <ellipse
       style="display:inline;fill:#0000ff;fill-opacity:1;stroke-width:0.0698898"
       id="path1193-5"
       cx="26.182999"
       cy="110.45718"
       inkscape:label="sin_out"
       rx="2.892"
       ry="2.8915157" />
    <circle
       style="fill:#0000ff;fill-opacity:1;stroke-width:0.0698898"
       id="path1193"
       cx="54.331001"
       cy="110.45718"
       r="2.8915157"
       inkscape:label="noise_out" />
    <circle
       style="display:inline;fill:#ff0000;fill-opacity:1;stroke-width:0.0698898"
       id="path1193-3-0-4"
       cx="54.331001"
       cy="79.833054"
       r="2.8915157"
       inkscape:label="knob_amplitude_modulation" />
    <circle
       style="display:inline;fill:#ff0000;fill-opacity:1;stroke-width:0.0698898"
       id="path1193-3-0"
       cx="26.182999"
       cy="79.833054"
       r="2.8915157"
       inkscape:label="knob_bend_modulation" />
    <ellipse
       style="display:inline;fill:#00ff00;fill-opacity:1;stroke-width:0.0698898"
       id="path1193-5-3-5-0-7"
       cx="26.182999"
       cy="94.14772"
       inkscape:label="bend_in"
       rx="2.892"
       ry="2.8915157" />
    <ellipse
       style="display:inline;fill:#00ff00;fill-opacity:1;stroke-width:0.0698898"
       id="path1193-5-3-5-0-7-8"
       cx="54.331001"
       cy="94.14772"
       inkscape:label="amplitude_modulation_in"
       rx="2.892"
       ry="2.8915157" />
    <circle
       style="display:inline;fill:#0000ff;fill-opacity:1;stroke-width:0.0698898"
       id="path1193-0"
       cx="40.257"
       cy="110.45718"
       r="2.8915157"
       inkscape:label="triangle_out" />
    <circle
       style="display:inline;fill:#ff0000;fill-opacity:1;stroke-width:0.0698898"
       id="path1193-3-0-4-2"
       cx="40.257"
       cy="79.833054"
       r="2.8915157"
       inkscape:label="knob_frequency_modulation" />
    <ellipse
       style="display:inline;fill:#00ff00;fill-opacity:1;stroke-width:0.0698898"
       id="path1193-5-3-5-0-7-8-5"
       cx="40.257"
       cy="94.14772"
       inkscape:label="frequency_modulation_in"
       rx="2.892"
       ry="2.8915157" />
    <g
       id="g14762"
       transform="translate(3.9841108,-0.09995309)" />
    <ellipse
       style="display:inline;fill:#00ff00;fill-opacity:1;stroke-width:0.0936325"
       id="path1193-5-3-5"
       cx="33.019993"
       cy="49.417892"
       inkscape:label="pitch_in"
       rx="3.8744576"
       ry="3.8738089" />
    <circle
       style="display:inline;fill:#ff0000;fill-opacity:1;stroke-width:0.0698898"
       id="path1193-3-7"
       cx="33.025993"
       cy="32.228584"
       r="2.8915157"
       inkscape:label="knob_coarse" />
    <ellipse
       style="display:inline;fill:#00ff00;fill-opacity:1;stroke-width:0.0698956"
       id="path1193-3-7-3"
       cx="12.109"
       cy="94.14772"
       inkscape:label="sync_in"
       rx="2.892"
       ry="2.8915157" />
    <circle
       style="display:inline;fill:#ff0000;fill-opacity:1;stroke-width:0.0698898"
       id="path1193-3-7-1"
       cx="18.001976"
       cy="41.612503"
       r="2.8915157"
       inkscape:label="knob_bend" />
    <circle
       style="display:inline;fill:#ff0000;fill-opacity:1;stroke-width:0.0698898"
       id="path1193-3-7-1-5"
       cx="47.895195"
       cy="39.712917"
       r="2.8915157"
       inkscape:label="knob_amplitude" />
    <circle
       style="display:inline;fill:#ff0000;fill-opacity:1;stroke-width:0.0698898"
       id="path1193-3-7-1-5-7"
       cx="47.895195"
       cy="14.379516"
       r="2.8915157"
       inkscape:label="knob_portamento" />
    <circle
       style="display:inline;opacity:1;fill:#ff0000;fill-opacity:1;stroke-width:0.0698898"
       id="path1193-3-0-0"
       cx="12.109"
       cy="79.833054"
       r="2.8915157"
       inkscape:label="switch_lfo" />
  </g>
</svg>
