<?xml version="1.0" encoding="UTF-8" standalone="no"?>
<!-- Created with Inkscape (http://www.inkscape.org/) -->

<svg
   width="152.39999mm"
   height="128.5mm"
   viewBox="0 0 152.4 128.5"
   version="1.1"
   id="svg5"
   inkscape:version="1.1.1 (3bf5ae0d25, 2021-09-20)"
   sodipodi:docname="Switch.svg"
   xmlns:inkscape="http://www.inkscape.org/namespaces/inkscape"
   xmlns:sodipodi="http://sodipodi.sourceforge.net/DTD/sodipodi-0.dtd"
   xmlns="http://www.w3.org/2000/svg"
   xmlns:svg="http://www.w3.org/2000/svg">
  <sodipodi:namedview
     id="namedview7"
     pagecolor="#ffffff"
     bordercolor="#666666"
     borderopacity="1.0"
     inkscape:pageshadow="2"
     inkscape:pageopacity="0.0"
     inkscape:pagecheckerboard="0"
     inkscape:document-units="mm"
     showgrid="false"
     inkscape:zoom="1.2009812"
     inkscape:cx="311.41204"
     inkscape:cy="216.90598"
     inkscape:window-width="1920"
     inkscape:window-height="1009"
     inkscape:window-x="1912"
     inkscape:window-y="-8"
     inkscape:window-maximized="1"
     inkscape:current-layer="layer6"
     width="152.4mm"
     showguides="false"
     inkscape:guide-bbox="true" />
  <defs
     id="defs2">
    <inkscape:path-effect
       effect="fillet_chamfer"
       id="path-effect24329"
       is_visible="true"
       lpeversion="1"
       satellites_param="F,0,0,1,0,0.52916667,0,1 @ F,0,0,1,0,0.52916667,0,1 @ F,0,0,1,0,0.52916667,0,1 @ F,0,0,1,0,0.52916667,0,1"
       unit="px"
       method="auto"
       mode="F"
       radius="2"
       chamfer_steps="1"
       flexible="false"
       use_knot_distance="true"
       apply_no_radius="true"
       apply_with_radius="true"
       only_selected="false"
       hide_knots="false" />
    <inkscape:path-effect
       effect="fillet_chamfer"
       id="path-effect24155"
       is_visible="true"
       lpeversion="1"
       satellites_param="F,0,0,1,0,0.52916667,0,1 @ F,0,0,1,0,0.52916667,0,1 @ F,0,0,1,0,0.52916667,0,1 @ F,0,0,1,0,0.52916667,0,1"
       unit="px"
       method="auto"
       mode="F"
       radius="2"
       chamfer_steps="1"
       flexible="false"
       use_knot_distance="true"
       apply_no_radius="true"
       apply_with_radius="true"
       only_selected="false"
       hide_knots="false" />
    <inkscape:path-effect
       effect="fillet_chamfer"
       id="path-effect11279"
       is_visible="true"
       lpeversion="1"
       satellites_param="F,0,0,1,0,1.5875,0,1 @ F,0,0,1,0,1.5875,0,1 @ F,0,0,1,0,1.5875,0,1 @ F,0,0,1,0,1.5875,0,1"
       unit="px"
       method="auto"
       mode="F"
       radius="6"
       chamfer_steps="1"
       flexible="false"
       use_knot_distance="true"
       apply_no_radius="true"
       apply_with_radius="true"
       only_selected="false"
       hide_knots="false" />
  </defs>
  <g
     inkscape:groupmode="layer"
     id="layer5"
     inkscape:label="background"
     style="display:inline">
    <rect
       style="display:inline;fill:#f9fafb;fill-opacity:1;stroke-width:0.450825"
       id="rect846"
       width="152.39999"
       height="128.5"
       x="0"
       y="0" />
    <g
       aria-label="undo"
       id="text40365-2-0-3-7-4-9"
       style="font-weight:bold;font-size:3.52777px;line-height:1.25;font-family:Arial;-inkscape-font-specification:'Arial Bold';text-align:center;text-anchor:middle;display:inline;stroke-width:0.264583"
       transform="translate(-8.4666726,2.1166667)">
      <path
         d="m 46.618601,49.554871 v -0.273885 q -0.09991,0.146416 -0.263549,0.230821 -0.161919,0.08441 -0.342786,0.08441 -0.184312,0 -0.330729,-0.08096 -0.146416,-0.08096 -0.211872,-0.227376 -0.06546,-0.146416 -0.06546,-0.404798 v -1.157549 h 0.484035 v 0.840601 q 0,0.38585 0.02584,0.4737 0.02756,0.08613 0.09818,0.137803 0.07062,0.04995 0.179144,0.04995 0.124024,0 0.222209,-0.06718 0.09819,-0.0689 0.134358,-0.168809 0.03617,-0.10163 0.03617,-0.49437 v -0.7717 h 0.484035 v 1.829342 z"
         style="fill:#9bc1bc"
         id="path77529" />
      <path
         d="m 49.233423,49.554871 h -0.484035 v -0.933619 q 0,-0.296278 -0.03101,-0.382405 -0.03101,-0.08785 -0.10163,-0.136081 -0.0689,-0.04823 -0.167086,-0.04823 -0.125746,0 -0.225654,0.0689 -0.09991,0.0689 -0.137803,0.182589 -0.03617,0.113688 -0.03617,0.420301 v 0.828544 h -0.484034 v -1.829342 h 0.449583 v 0.268717 q 0.239434,-0.310058 0.602891,-0.310058 0.160196,0 0.292832,0.05857 0.132636,0.05684 0.199815,0.146417 0.0689,0.08957 0.09474,0.20326 0.02756,0.113688 0.02756,0.325561 z"
         style="fill:#9bc1bc"
         id="path77531" />
      <path
         d="m 51.402106,49.554871 h -0.449584 v -0.268717 q -0.111965,0.156751 -0.265272,0.234266 -0.151584,0.07579 -0.306613,0.07579 -0.315225,0 -0.540878,-0.253214 -0.223931,-0.254937 -0.223931,-0.709688 0,-0.465087 0.218763,-0.706243 0.218763,-0.242879 0.552936,-0.242879 0.306613,0 0.530544,0.254936 v -0.909503 h 0.484035 z m -1.291908,-0.95429 q 0,0.292833 0.08096,0.423746 0.117133,0.18948 0.327284,0.18948 0.167087,0 0.28422,-0.141249 0.117133,-0.142971 0.117133,-0.425468 0,-0.315226 -0.113688,-0.453029 -0.113688,-0.139526 -0.29111,-0.139526 -0.172255,0 -0.289388,0.137803 -0.11541,0.136081 -0.115411,0.408243 z"
         style="fill:#9bc1bc"
         id="path77533" />
      <path
         d="m 51.767285,48.614362 q 0,-0.241157 0.118856,-0.46681 0.118855,-0.225653 0.335896,-0.344509 0.218763,-0.118855 0.48748,-0.118855 0.415133,0 0.680405,0.270439 0.265271,0.268717 0.265271,0.680405 0,0.415133 -0.268717,0.689018 -0.266994,0.272162 -0.673514,0.272162 -0.251492,0 -0.48059,-0.113688 -0.227376,-0.113688 -0.346231,-0.332451 -0.118856,-0.220486 -0.118856,-0.535711 z m 0.496093,0.02584 q 0,0.272162 0.129191,0.416855 0.12919,0.144694 0.31867,0.144694 0.18948,0 0.316948,-0.144694 0.129191,-0.144693 0.129191,-0.4203 0,-0.268717 -0.129191,-0.413411 -0.127468,-0.144694 -0.316948,-0.144694 -0.18948,0 -0.31867,0.144694 -0.129191,0.144694 -0.129191,0.416856 z"
         style="fill:#9bc1bc"
         id="path77535" />
    </g>
    <g
       aria-label="redo"
       id="text40365-2-0-3-7-4-9-6"
       style="font-weight:bold;font-size:3.52777px;line-height:1.25;font-family:Arial;-inkscape-font-specification:'Arial Bold';text-align:center;text-anchor:middle;display:inline;stroke-width:0.264583"
       transform="translate(-8.4666751,2.1166667)">
      <path
         d="M 46.370556,70.386871 H 45.886521 V 68.55753 h 0.449584 v 0.260104 q 0.115411,-0.184312 0.206706,-0.242879 0.09302,-0.05857 0.21015,-0.05857 0.165364,0 0.318671,0.09129 l -0.149862,0.422024 q -0.1223,-0.07924 -0.227375,-0.07924 -0.10163,0 -0.172255,0.05684 -0.07062,0.05512 -0.111965,0.201537 -0.03962,0.146417 -0.03962,0.613226 z"
         style="fill:#9bc1bc"
         id="path77550" />
      <path
         d="m 48.339424,69.804651 0.482312,0.08096 q -0.09302,0.265272 -0.294555,0.404798 -0.199815,0.137803 -0.50126,0.137803 -0.477145,0 -0.706243,-0.31178 -0.180867,-0.249769 -0.180867,-0.630451 0,-0.454752 0.237711,-0.711411 0.237711,-0.258381 0.601168,-0.258381 0.408243,0 0.644231,0.270439 0.235989,0.268717 0.225654,0.825099 h -1.212671 q 0.0052,0.215318 0.117133,0.335896 0.111965,0.118855 0.279052,0.118855 0.113688,0 0.191202,-0.06201 0.07751,-0.06201 0.117133,-0.199816 z m 0.02756,-0.489202 q -0.0052,-0.21015 -0.10852,-0.318671 -0.103353,-0.110242 -0.251492,-0.110242 -0.158474,0 -0.261827,0.11541 -0.103352,0.11541 -0.10163,0.313503 z"
         style="fill:#9bc1bc"
         id="path77552" />
      <path
         d="m 50.919795,70.386871 h -0.449584 v -0.268717 q -0.111965,0.156752 -0.265272,0.234266 -0.151584,0.07579 -0.306613,0.07579 -0.315225,0 -0.540878,-0.253214 -0.223931,-0.254936 -0.223931,-0.709688 0,-0.465087 0.218763,-0.706243 0.218763,-0.242878 0.552936,-0.242878 0.306613,0 0.530544,0.254936 V 67.86162 h 0.484035 z m -1.291908,-0.954289 q 0,0.292832 0.08096,0.423746 0.117133,0.18948 0.327284,0.18948 0.167087,0 0.28422,-0.141249 0.117133,-0.142971 0.117133,-0.425468 0,-0.315226 -0.113688,-0.453029 -0.113688,-0.139526 -0.29111,-0.139526 -0.172255,0 -0.289388,0.137803 -0.11541,0.136081 -0.115411,0.408243 z"
         style="fill:#9bc1bc"
         id="path77554" />
      <path
         d="m 51.284974,69.446362 q 0,-0.241156 0.118856,-0.466809 0.118855,-0.225653 0.335896,-0.344509 0.218763,-0.118855 0.48748,-0.118855 0.415133,0 0.680405,0.270439 0.265271,0.268717 0.265271,0.680405 0,0.415133 -0.268717,0.689017 -0.266994,0.272162 -0.673514,0.272162 -0.251492,0 -0.48059,-0.113688 -0.227376,-0.113687 -0.346231,-0.33245 -0.118856,-0.220486 -0.118856,-0.535712 z m 0.496093,0.02584 q 0,0.272162 0.129191,0.416856 0.12919,0.144694 0.31867,0.144694 0.18948,0 0.316948,-0.144694 0.129191,-0.144694 0.129191,-0.420301 0,-0.268716 -0.129191,-0.41341 -0.127468,-0.144694 -0.316948,-0.144694 -0.18948,0 -0.31867,0.144694 -0.129191,0.144694 -0.129191,0.416855 z"
         style="fill:#9bc1bc"
         id="path77556" />
    </g>
    <g
       aria-label="reset"
       id="text40365-2-0-3-7-4-9-6-7"
       style="font-weight:bold;font-size:3.52777px;line-height:1.25;font-family:Arial;-inkscape-font-specification:'Arial Bold';text-align:center;text-anchor:middle;display:inline;stroke-width:0.264583"
       transform="translate(-8.4666636,2.1166667)">
      <path
         d="M 45.93475,91.218872 H 45.450715 V 89.38953 h 0.449584 v 0.260105 q 0.115411,-0.184313 0.206705,-0.242879 0.09302,-0.05857 0.210151,-0.05857 0.165364,0 0.31867,0.09129 l -0.149861,0.422023 q -0.1223,-0.07924 -0.227376,-0.07924 -0.10163,0 -0.172254,0.05684 -0.07062,0.05512 -0.111965,0.201538 -0.03962,0.146416 -0.03962,0.613226 z"
         style="fill:#9bc1bc"
         id="path77571" />
      <path
         d="m 47.903618,90.636652 0.482312,0.08096 q -0.09302,0.265272 -0.294555,0.404798 -0.199815,0.137803 -0.50126,0.137803 -0.477145,0 -0.706243,-0.31178 -0.180867,-0.249769 -0.180867,-0.630451 0,-0.454752 0.237711,-0.711411 0.237711,-0.258382 0.601168,-0.258382 0.408243,0 0.644231,0.27044 0.235989,0.268717 0.225653,0.825098 h -1.212671 q 0.0052,0.215318 0.117133,0.335896 0.111966,0.118856 0.279052,0.118856 0.113688,0 0.191203,-0.06201 0.07751,-0.06201 0.117133,-0.199815 z m 0.02756,-0.489202 q -0.0052,-0.210151 -0.108521,-0.318671 -0.103352,-0.110243 -0.251491,-0.110243 -0.158474,0 -0.261827,0.115411 -0.103352,0.11541 -0.10163,0.313503 z"
         style="fill:#9bc1bc"
         id="path77573" />
      <path
         d="m 48.635699,90.696941 0.485757,-0.07407 q 0.03101,0.141248 0.125746,0.215318 0.09474,0.07235 0.265272,0.07235 0.187757,0 0.282497,-0.0689 0.06373,-0.04823 0.06373,-0.129191 0,-0.05512 -0.03445,-0.0913 -0.03617,-0.03445 -0.161919,-0.06373 -0.585665,-0.129191 -0.742416,-0.235988 -0.217041,-0.148139 -0.217041,-0.411688 0,-0.237711 0.187757,-0.399631 0.187758,-0.161919 0.58222,-0.161919 0.375515,0 0.558105,0.122301 0.182589,0.122301 0.251491,0.361734 l -0.456474,0.08441 q -0.02928,-0.106798 -0.111966,-0.163642 -0.08096,-0.05684 -0.232543,-0.05684 -0.191202,0 -0.273884,0.0534 -0.05512,0.0379 -0.05512,0.09819 0,0.05168 0.04823,0.08785 0.06546,0.04823 0.451307,0.136081 0.387572,0.08785 0.540879,0.215318 0.151584,0.129191 0.151584,0.360011 0,0.251492 -0.210151,0.432359 -0.21015,0.180867 -0.621838,0.180867 -0.373792,0 -0.592555,-0.151584 -0.217041,-0.151584 -0.28422,-0.411688 z"
         style="fill:#9bc1bc"
         id="path77575" />
      <path
         d="m 51.827573,90.636652 0.482312,0.08096 q -0.09302,0.265272 -0.294555,0.404798 -0.199815,0.137803 -0.50126,0.137803 -0.477145,0 -0.706243,-0.31178 -0.180867,-0.249769 -0.180867,-0.630451 0,-0.454752 0.237711,-0.711411 0.237711,-0.258382 0.601168,-0.258382 0.408243,0 0.644231,0.27044 0.235989,0.268717 0.225653,0.825098 h -1.212671 q 0.0052,0.215318 0.117133,0.335896 0.111966,0.118856 0.279052,0.118856 0.113688,0 0.191203,-0.06201 0.07751,-0.06201 0.117133,-0.199815 z m 0.02756,-0.489202 q -0.0052,-0.210151 -0.108521,-0.318671 -0.103352,-0.110243 -0.251491,-0.110243 -0.158474,0 -0.261827,0.115411 -0.103352,0.11541 -0.10163,0.313503 z"
         style="fill:#9bc1bc"
         id="path77577" />
      <path
         d="m 53.569065,89.38953 v 0.38585 h -0.330728 v 0.737249 q 0,0.223931 0.0086,0.261827 0.01034,0.03617 0.04306,0.06029 0.03445,0.02412 0.08268,0.02412 0.06718,0 0.194648,-0.04651 l 0.04134,0.375514 q -0.16881,0.07235 -0.382405,0.07235 -0.130913,0 -0.235989,-0.04306 -0.105075,-0.04479 -0.155029,-0.113688 -0.04823,-0.07062 -0.06718,-0.18948 -0.0155,-0.08441 -0.0155,-0.341064 V 89.77538 h -0.222208 v -0.38585 h 0.222208 v -0.363456 l 0.485758,-0.282498 v 0.645954 z"
         style="fill:#9bc1bc"
         id="path77579" />
    </g>
    <g
       aria-label="rand"
       id="text40365-2-0-3-7-4"
       style="font-weight:bold;font-size:3.52777px;line-height:1.25;font-family:Arial;-inkscape-font-specification:'Arial Bold';text-align:center;text-anchor:middle;display:inline;stroke-width:0.264583"
       transform="translate(-8.4666746,2.1166667)">
      <path
         d="m 46.419648,28.723169 h -0.484035 v -1.829341 h 0.449584 v 0.260104 q 0.11541,-0.184312 0.206705,-0.242879 0.09302,-0.05857 0.21015,-0.05857 0.165365,0 0.318671,0.09129 l -0.149861,0.422024 q -0.122301,-0.07924 -0.227376,-0.07924 -0.10163,0 -0.172254,0.05684 -0.07062,0.05512 -0.111966,0.201537 -0.03962,0.146416 -0.03962,0.613226 z"
         style="fill:#9bc1bc"
         id="path77506" />
      <path
         d="m 47.690885,27.451932 -0.439249,-0.07924 q 0.07407,-0.265272 0.254937,-0.39274 0.180867,-0.127468 0.537434,-0.127468 0.323838,0 0.482312,0.07751 0.158474,0.07579 0.222208,0.194648 0.06546,0.117133 0.06546,0.432358 l -0.0052,0.564994 q 0,0.241157 0.02239,0.356567 0.02412,0.113688 0.08785,0.244601 H 48.44016 q -0.01895,-0.04823 -0.04651,-0.142971 -0.01206,-0.04306 -0.01723,-0.05684 -0.124024,0.120578 -0.265272,0.180867 -0.141249,0.06029 -0.301445,0.06029 -0.282498,0 -0.446139,-0.153306 -0.161919,-0.153306 -0.161919,-0.387572 0,-0.155029 0.07407,-0.275607 0.07407,-0.122301 0.206705,-0.186035 0.134359,-0.06546 0.38585,-0.113688 0.339341,-0.06373 0.470255,-0.118856 v -0.04823 q 0,-0.139526 -0.0689,-0.198092 -0.0689,-0.06029 -0.260104,-0.06029 -0.129191,0 -0.201538,0.05168 -0.07235,0.04995 -0.117133,0.177422 z m 0.647677,0.39274 q -0.09302,0.03101 -0.294555,0.07407 -0.201538,0.04306 -0.26355,0.08441 -0.09474,0.06718 -0.09474,0.170532 0,0.10163 0.07579,0.175699 0.07579,0.07407 0.192925,0.07407 0.130914,0 0.249769,-0.08613 0.08785,-0.06546 0.115411,-0.160196 0.01895,-0.06201 0.01895,-0.235989 z"
         style="fill:#9bc1bc"
         id="path77508" />
      <path
         d="M 50.955106,28.723169 H 50.471071 V 27.78955 q 0,-0.296277 -0.03101,-0.382404 -0.03101,-0.08785 -0.10163,-0.136081 -0.0689,-0.04823 -0.167087,-0.04823 -0.125745,0 -0.225653,0.0689 -0.09991,0.0689 -0.137803,0.18259 -0.03617,0.113688 -0.03617,0.420301 v 0.828543 h -0.484035 v -1.829341 h 0.449584 v 0.268716 q 0.239434,-0.310057 0.602891,-0.310057 0.160196,0 0.292832,0.05857 0.132636,0.05684 0.199815,0.146416 0.0689,0.08957 0.09474,0.20326 0.02756,0.113688 0.02756,0.325561 z"
         style="fill:#9bc1bc"
         id="path77510" />
      <path
         d="m 53.123789,28.723169 h -0.449584 v -0.268717 q -0.111966,0.156752 -0.265272,0.234266 -0.151584,0.07579 -0.306613,0.07579 -0.315225,0 -0.540879,-0.253214 -0.22393,-0.254936 -0.22393,-0.709688 0,-0.465087 0.218763,-0.706243 0.218763,-0.242878 0.552936,-0.242878 0.306613,0 0.530544,0.254936 V 26.19792 h 0.484035 z M 51.831881,27.76888 q 0,0.292832 0.08096,0.423746 0.117133,0.18948 0.327284,0.18948 0.167086,0 0.284219,-0.141249 0.117133,-0.142971 0.117133,-0.425468 0,-0.315226 -0.113688,-0.453029 -0.113687,-0.139526 -0.291109,-0.139526 -0.172255,0 -0.289388,0.137803 -0.11541,0.136081 -0.115411,0.408243 z"
         style="fill:#9bc1bc"
         id="path77512" />
    </g>
    <g
       aria-label="+1"
       id="text40365-2-0-3-7-3-5"
       style="font-weight:bold;font-size:3.52777px;line-height:1.25;font-family:Arial;-inkscape-font-specification:'Arial Bold';text-align:center;text-anchor:middle;display:inline;stroke-width:0.264583"
       transform="translate(-4.2333384,2.1166667)">
      <path
         d="m 28.773461,70.064751 v -0.65629 h -0.661457 v -0.453029 h 0.661457 v -0.656289 h 0.440971 v 0.656289 h 0.66318 v 0.453029 h -0.66318 v 0.65629 z"
         style="fill:#9bc1bc"
         id="path77545" />
      <path
         d="m 31.414121,70.428207 h -0.484035 v -1.824174 q -0.265272,0.248047 -0.625284,0.366902 v -0.439249 q 0.18948,-0.06201 0.411688,-0.234265 0.222209,-0.173977 0.304891,-0.404798 h 0.39274 z"
         style="fill:#9bc1bc"
         id="path77547" />
    </g>
    <g
       aria-label="-1"
       id="text40365-2-0-3-7-3-5-1"
       style="font-weight:bold;font-size:3.52777px;line-height:1.25;font-family:Arial;-inkscape-font-specification:'Arial Bold';text-align:center;text-anchor:middle;display:inline;stroke-width:0.264583"
       transform="translate(-4.2333374,2.1166667)">
      <path
         d="m 28.580535,90.586693 v -0.484034 h 0.950845 v 0.484034 z"
         style="fill:#9bc1bc"
         id="path77566" />
      <path
         d="m 30.945588,91.260208 h -0.484035 v -1.824174 q -0.265271,0.248046 -0.625283,0.366902 v -0.439249 q 0.18948,-0.06201 0.411688,-0.234266 0.222208,-0.173977 0.30489,-0.404798 h 0.39274 z"
         style="fill:#9bc1bc"
         id="path77568" />
    </g>
    <g
       aria-label="1/3"
       id="text40365-2-0-3-7"
       style="font-weight:bold;font-size:3.52777px;line-height:1.25;font-family:Arial;-inkscape-font-specification:'Arial Bold';text-align:center;text-anchor:middle;display:inline;stroke-width:0.264583"
       transform="translate(-4.2333374,2.1166667)">
      <path
         d="m 28.635657,28.721447 h -0.484035 v -1.824174 q -0.265272,0.248046 -0.625284,0.366902 v -0.439249 q 0.18948,-0.06201 0.411688,-0.234266 0.222208,-0.173977 0.304891,-0.404798 h 0.39274 z"
         style="fill:#9bc1bc"
         id="path77499" />
      <path
         d="m 29.204096,28.764511 0.625284,-2.611377 h 0.363456 l -0.632173,2.611377 z"
         style="fill:#9bc1bc"
         id="path77501" />
      <path
         d="m 30.322027,28.051377 0.468532,-0.05684 q 0.02239,0.179145 0.120578,0.273885 0.09819,0.09474 0.237711,0.09474 0.149862,0 0.251492,-0.113688 0.103352,-0.113688 0.103352,-0.306613 0,-0.18259 -0.09819,-0.289387 -0.09819,-0.106798 -0.239433,-0.106798 -0.09302,0 -0.222209,0.03617 l 0.0534,-0.394462 q 0.19637,0.0052 0.299723,-0.08441 0.103353,-0.0913 0.103353,-0.241156 0,-0.127468 -0.07579,-0.20326 -0.07579,-0.07579 -0.201538,-0.07579 -0.124023,0 -0.211873,0.08613 -0.08785,0.08613 -0.106798,0.251492 L 30.3582,26.845597 q 0.04651,-0.229099 0.139527,-0.36518 0.09474,-0.137803 0.261826,-0.215318 0.16881,-0.07924 0.377237,-0.07924 0.356567,0 0.571885,0.227376 0.177422,0.186035 0.177422,0.420301 0,0.332451 -0.363457,0.530543 0.217041,0.04651 0.346232,0.208428 0.130913,0.161919 0.130913,0.391018 0,0.332451 -0.242879,0.566717 -0.242879,0.234266 -0.604613,0.234266 -0.342786,0 -0.568439,-0.19637 -0.225654,-0.198093 -0.261827,-0.516764 z"
         style="fill:#9bc1bc"
         id="path77503" />
    </g>
    <g
       aria-label="2/4"
       id="text40365-2-0-3-7-3"
       style="font-weight:bold;font-size:3.52777px;line-height:1.25;font-family:Arial;-inkscape-font-specification:'Arial Bold';text-align:center;text-anchor:middle;display:inline;stroke-width:0.264583"
       transform="translate(-4.2333379,2.1166667)">
      <path
         d="m 29.092131,49.103562 v 0.449584 h -1.696706 q 0.02756,-0.254936 0.165364,-0.482312 0.137804,-0.229098 0.544324,-0.606335 0.327284,-0.304891 0.401353,-0.413411 0.09991,-0.149861 0.09991,-0.296278 0,-0.161919 -0.08785,-0.248046 -0.08613,-0.08785 -0.239434,-0.08785 -0.151584,0 -0.241156,0.0913 -0.08957,0.09129 -0.103352,0.303168 l -0.482313,-0.04823 q 0.04306,-0.39963 0.27044,-0.573607 0.227375,-0.173977 0.568439,-0.173977 0.373792,0 0.587388,0.201537 0.213595,0.201538 0.213595,0.501261 0,0.170531 -0.06201,0.32556 -0.06029,0.153307 -0.192924,0.322116 -0.08785,0.111965 -0.316949,0.322116 -0.229098,0.21015 -0.291109,0.279052 -0.06029,0.0689 -0.09819,0.134358 z"
         style="fill:#9bc1bc"
         id="path77522" />
      <path
         d="m 29.264385,49.59621 0.625284,-2.611377 h 0.363457 l -0.632174,2.611377 z"
         style="fill:#9bc1bc"
         id="path77524" />
      <path
         d="m 31.348664,49.553146 v -0.50815 H 30.315137 V 48.62125 l 1.095538,-1.603688 h 0.406521 v 1.601966 h 0.313503 v 0.425468 h -0.313503 v 0.50815 z m 0,-0.933618 v -0.862995 l -0.580498,0.862995 z"
         style="fill:#9bc1bc"
         id="path77526" />
    </g>
    <g
       aria-label="2/3"
       id="text40365-2-0"
       style="font-weight:bold;font-size:3.52777px;line-height:1.25;font-family:Arial;-inkscape-font-specification:'Arial Bold';text-align:center;text-anchor:middle;display:inline;stroke-width:0.264583"
       transform="translate(0,2.1166667)">
      <path
         d="m 9.3608002,69.935563 v 0.449584 H 7.6640944 q 0.027561,-0.254936 0.1653642,-0.482312 0.1378035,-0.229099 0.5443239,-0.606336 0.3272834,-0.30489 0.4013527,-0.41341 0.099908,-0.149862 0.099908,-0.296278 0,-0.161919 -0.08785,-0.248046 -0.086127,-0.08785 -0.2394337,-0.08785 -0.1515838,0 -0.2411561,0.09129 -0.089572,0.0913 -0.1033527,0.303168 l -0.4823123,-0.04823 q 0.043064,-0.39963 0.2704394,-0.573607 0.2273758,-0.173977 0.5684395,-0.173977 0.3737921,0 0.5873875,0.201538 0.2135955,0.201538 0.2135955,0.50126 0,0.170532 -0.062012,0.325561 -0.060289,0.153307 -0.1929249,0.322116 -0.08785,0.111965 -0.3169481,0.322116 -0.2290984,0.21015 -0.2911099,0.279052 -0.060289,0.0689 -0.098185,0.134358 z"
         style="fill:#9bc1bc"
         id="path77538" />
      <path
         d="m 9.5330546,70.428211 0.6252834,-2.611377 h 0.363457 l -0.6321738,2.611377 z"
         style="fill:#9bc1bc"
         id="path77540" />
      <path
         d="m 10.650986,69.715077 0.468532,-0.05684 q 0.02239,0.179144 0.120578,0.273884 0.09819,0.09474 0.237711,0.09474 0.149861,0 0.251491,-0.113688 0.103353,-0.113688 0.103353,-0.306613 0,-0.182589 -0.09819,-0.289387 -0.09818,-0.106798 -0.239434,-0.106798 -0.09302,0 -0.222208,0.03617 l 0.0534,-0.394463 q 0.19637,0.0052 0.299722,-0.0844 0.103353,-0.0913 0.103353,-0.241156 0,-0.127468 -0.07579,-0.20326 -0.07579,-0.07579 -0.201537,-0.07579 -0.124024,0 -0.211873,0.08613 -0.08785,0.08613 -0.106798,0.251492 l -0.446139,-0.07579 q 0.04651,-0.229099 0.139526,-0.36518 0.09474,-0.137803 0.261827,-0.215318 0.168809,-0.07924 0.377237,-0.07924 0.356566,0 0.571884,0.227376 0.177423,0.186035 0.177423,0.420301 0,0.332451 -0.363457,0.530543 0.21704,0.04651 0.346231,0.208428 0.130913,0.161919 0.130913,0.391018 0,0.332451 -0.242878,0.566717 -0.242879,0.234266 -0.604613,0.234266 -0.342786,0 -0.56844,-0.19637 -0.225653,-0.198093 -0.261826,-0.516764 z"
         style="fill:#9bc1bc"
         id="path77542" />
    </g>
    <g
       aria-label="1/4"
       id="text40365-2-0-3"
       style="font-weight:bold;font-size:3.52777px;line-height:1.25;font-family:Arial;-inkscape-font-specification:'Arial Bold';text-align:center;text-anchor:middle;display:inline;stroke-width:0.264583"
       transform="translate(0,2.1166667)">
      <path
         d="M 8.8337013,91.217148 H 8.3496665 V 89.392974 Q 8.0843947,89.64102 7.724383,89.759876 v -0.439249 q 0.1894799,-0.06201 0.411688,-0.234266 0.2222082,-0.173977 0.3048903,-0.404798 h 0.39274 z"
         style="fill:#9bc1bc"
         id="path77559" />
      <path
         d="m 9.4021409,91.260211 0.6252831,-2.611376 h 0.363457 l -0.6321735,2.611376 z"
         style="fill:#9bc1bc"
         id="path77561" />
      <path
         d="m 11.486419,91.217148 v -0.508151 h -1.033526 v -0.423745 l 1.095538,-1.603689 h 0.40652 v 1.601966 h 0.313503 v 0.425468 h -0.313503 v 0.508151 z m 0,-0.933619 v -0.862995 l -0.580497,0.862995 z"
         style="fill:#9bc1bc"
         id="path77563" />
    </g>
    <text
       xml:space="preserve"
       style="font-size:3.52777px;line-height:1.25;font-family:Arial;-inkscape-font-specification:Arial;stroke-width:0.264583"
       x="76.108833"
       y="85.196457"
       id="text2188"><tspan
         sodipodi:role="line"
         id="tspan2186"
         style="stroke-width:0.264583"
         x="76.108833"
         y="85.196457" /></text>
    <text
       xml:space="preserve"
       style="font-size:3.52777px;line-height:1.25;font-family:Arial;-inkscape-font-specification:Arial;stroke-width:0.264583"
       x="78.897079"
       y="89.017387"
       id="text14680"><tspan
         sodipodi:role="line"
         id="tspan14678"
         style="stroke-width:0.264583"
         x="78.897079"
         y="89.017387" /></text>
    <rect
       style="fill:#9bc1bc;fill-opacity:1;stroke-width:13.4573;stroke-linecap:round"
       id="rect78342"
       width="0.88675934"
       height="79.295998"
       x="50.561775"
       y="28.087" />
  </g>
  <g
     inkscape:groupmode="layer"
     id="layer3"
     inkscape:label="rainbow">
    <g
       id="g130949"
       transform="translate(-65.457594,0.26417965)"
       style="display:inline">
      <rect
         style="display:inline;fill:#f4f1bb;fill-opacity:1;stroke-width:1.09761;stroke-miterlimit:4;stroke-dasharray:none"
         id="rect93213"
         width="3.5"
         height="131.71765"
         x="226.38889"
         y="-100.11375"
         transform="rotate(45)" />
      <rect
         style="display:inline;fill:#9bc1bc;fill-opacity:1;stroke-width:1.09761;stroke-miterlimit:4;stroke-dasharray:none"
         id="rect93233"
         width="3.5"
         height="131.71765"
         x="229.88889"
         y="-100.11375"
         transform="rotate(45)" />
      <rect
         style="display:inline;fill:#ed6a5a;fill-opacity:1;stroke-width:1.09761;stroke-miterlimit:4;stroke-dasharray:none"
         id="rect93109"
         width="3.5"
         height="131.71765"
         x="222.88844"
         y="-100.11375"
         transform="rotate(45)" />
    </g>
  </g>
  <g
     inkscape:label="Panel Graphics"
     inkscape:groupmode="layer"
     id="layer1"
     style="display:inline;opacity:1">
    <path
       style="display:inline;fill:#9bc1bc;fill-opacity:1;stroke-width:0.765;stroke-miterlimit:4;stroke-dasharray:none"
       id="path11275"
       width="23.671289"
       height="79.6175"
       x="123.184"
       y="27.764549"
       inkscape:path-effect="#path-effect11279"
       sodipodi:type="rect"
       d="m 124.7715,27.764549 h 20.49629 a 1.5875,1.5875 45 0 1 1.5875,1.5875 l 0,76.442501 a 1.5875,1.5875 135 0 1 -1.5875,1.5875 H 124.7715 a 1.5875,1.5875 45 0 1 -1.5875,-1.5875 V 29.352049 a 1.5875,1.5875 135 0 1 1.5875,-1.5875 z" />
    <g
       aria-label="Daniel Davies"
       id="text158043"
       style="font-size:4.93889px;line-height:1.25;display:inline;stroke-width:0.264583"
       transform="translate(-45.720003,-0.41992)">
      <path
         d="m 106.74159,123.09153 q 0,0.50161 -0.2291,0.89951 -0.22909,0.3955 -0.57877,0.60772 -0.26286,0.15916 -0.57637,0.22186 -0.3135,0.0627 -0.74276,0.0627 h -1.26607 v -3.59082 h 1.30224 q 0.43891,0 0.75724,0.0748 0.31832,0.0724 0.53536,0.20739 0.37139,0.22669 0.5836,0.61254 0.21463,0.38344 0.21463,0.90434 z m -0.95739,-0.007 q 0,-0.3545 -0.13022,-0.6053 -0.12782,-0.25321 -0.40756,-0.3955 -0.14228,-0.0699 -0.2918,-0.094 -0.1471,-0.0265 -0.44614,-0.0265 h -0.23392 v 2.24758 h 0.23392 q 0.33039,0 0.48473,-0.0289 0.15434,-0.0314 0.30144,-0.11093 0.25322,-0.1447 0.37138,-0.38586 0.11817,-0.24356 0.11817,-0.60048 z"
         style="fill:#ed6a5a"
         id="path170552" />
      <path
         d="m 109.03982,124.17673 v -0.5643 q -0.17605,0.0145 -0.38103,0.041 -0.20498,0.0241 -0.31109,0.0579 -0.13023,0.041 -0.20016,0.12058 -0.0675,0.0772 -0.0675,0.20498 0,0.0844 0.0145,0.13746 0.0145,0.0531 0.0724,0.10129 0.0555,0.0482 0.13264,0.0724 0.0772,0.0217 0.24115,0.0217 0.13023,0 0.26286,-0.053 0.13505,-0.0531 0.23634,-0.13988 z m 0,0.41962 q -0.0699,0.053 -0.17364,0.12781 -0.10369,0.0748 -0.19533,0.11817 -0.12782,0.0579 -0.26528,0.0844 -0.13745,0.0289 -0.30144,0.0289 -0.38585,0 -0.6463,-0.23874 -0.26045,-0.23875 -0.26045,-0.61013 0,-0.29662 0.13264,-0.48473 0.13263,-0.1881 0.3762,-0.29662 0.24116,-0.10852 0.59807,-0.15434 0.35691,-0.0458 0.74035,-0.0675 v -0.0145 q 0,-0.22428 -0.18328,-0.30868 -0.18328,-0.0868 -0.54019,-0.0868 -0.21463,0 -0.4582,0.0772 -0.24357,0.0748 -0.34968,0.11576 h -0.0796 v -0.65354 q 0.13746,-0.0362 0.44614,-0.0844 0.3111,-0.0507 0.62219,-0.0507 0.74035,0 1.06832,0.2291 0.33039,0.22669 0.33039,0.71383 v 1.84243 h -0.86093 z"
         style="fill:#ed6a5a"
         id="path170554" />
      <path
         d="m 113.41922,124.88332 h -0.87298 v -1.34324 q 0,-0.16399 -0.0169,-0.32556 -0.0169,-0.16399 -0.0579,-0.24116 -0.0482,-0.0892 -0.14229,-0.13022 -0.0916,-0.041 -0.25803,-0.041 -0.11817,0 -0.24116,0.0386 -0.12058,0.0386 -0.26286,0.12299 v 1.9196 h -0.86816 v -2.70819 h 0.86816 v 0.29904 q 0.23151,-0.18087 0.44373,-0.27733 0.21463,-0.0965 0.47508,-0.0965 0.4389,0 0.68488,0.25563 0.24839,0.25563 0.24839,0.76447 z"
         style="fill:#ed6a5a"
         id="path170556" />
      <path
         d="m 115.08562,124.88332 h -0.86817 v -2.70819 h 0.86817 z m 0.0241,-3.09404 h -0.91639 v -0.65836 h 0.91639 z"
         style="fill:#ed6a5a"
         id="path170558" />
      <path
         d="m 118.57274,123.6896 h -1.98713 q 0.0193,0.31832 0.24116,0.48713 0.22427,0.16881 0.65836,0.16881 0.27491,0 0.53295,-0.0989 0.25804,-0.0989 0.40756,-0.21222 h 0.0965 v 0.69694 q -0.29421,0.11817 -0.55466,0.17123 -0.26045,0.053 -0.57637,0.053 -0.81511,0 -1.24919,-0.36656 -0.43408,-0.36656 -0.43408,-1.04421 0,-0.67041 0.40997,-1.06109 0.41237,-0.39308 1.12861,-0.39308 0.66077,0 0.99357,0.33521 0.33279,0.33279 0.33279,0.9598 z m -0.86334,-0.50884 q -0.007,-0.27251 -0.13505,-0.40997 -0.12781,-0.13746 -0.3979,-0.13746 -0.25081,0 -0.41238,0.13023 -0.16158,0.13022 -0.18087,0.4172 z"
         style="fill:#ed6a5a"
         id="path170560" />
      <path
         d="m 120.05345,124.88332 h -0.86817 v -3.7524 h 0.86817 z"
         style="fill:#ed6a5a"
         id="path170562" />
      <path
         d="m 126.00278,123.09153 q 0,0.50161 -0.2291,0.89951 -0.2291,0.3955 -0.57877,0.60772 -0.26286,0.15916 -0.57637,0.22186 -0.3135,0.0627 -0.74276,0.0627 h -1.26607 v -3.59082 h 1.30224 q 0.43891,0 0.75723,0.0748 0.31833,0.0724 0.53537,0.20739 0.37138,0.22669 0.5836,0.61254 0.21463,0.38344 0.21463,0.90434 z m -0.95739,-0.007 q 0,-0.3545 -0.13023,-0.6053 -0.12781,-0.25321 -0.40755,-0.3955 -0.14228,-0.0699 -0.2918,-0.094 -0.14711,-0.0265 -0.44614,-0.0265 h -0.23392 v 2.24758 h 0.23392 q 0.33038,0 0.48473,-0.0289 0.15434,-0.0314 0.30144,-0.11093 0.25322,-0.1447 0.37138,-0.38586 0.11817,-0.24356 0.11817,-0.60048 z"
         style="fill:#9bc1bc"
         id="path170564" />
      <path
         d="m 128.30101,124.17673 v -0.5643 q -0.17605,0.0145 -0.38103,0.041 -0.20499,0.0241 -0.31109,0.0579 -0.13023,0.041 -0.20016,0.12058 -0.0675,0.0772 -0.0675,0.20498 0,0.0844 0.0145,0.13746 0.0145,0.0531 0.0724,0.10129 0.0555,0.0482 0.13263,0.0724 0.0772,0.0217 0.24116,0.0217 0.13023,0 0.26286,-0.053 0.13505,-0.0531 0.23634,-0.13988 z m 0,0.41962 q -0.0699,0.053 -0.17364,0.12781 -0.10369,0.0748 -0.19533,0.11817 -0.12782,0.0579 -0.26528,0.0844 -0.13746,0.0289 -0.30144,0.0289 -0.38585,0 -0.6463,-0.23874 -0.26045,-0.23875 -0.26045,-0.61013 0,-0.29662 0.13263,-0.48473 0.13264,-0.1881 0.37621,-0.29662 0.24116,-0.10852 0.59807,-0.15434 0.35691,-0.0458 0.74035,-0.0675 v -0.0145 q 0,-0.22428 -0.18328,-0.30868 -0.18328,-0.0868 -0.54019,-0.0868 -0.21463,0 -0.4582,0.0772 -0.24357,0.0748 -0.34968,0.11576 h -0.0796 v -0.65354 q 0.13746,-0.0362 0.44614,-0.0844 0.31109,-0.0507 0.62219,-0.0507 0.74035,0 1.06832,0.2291 0.33038,0.22669 0.33038,0.71383 v 1.84243 h -0.86092 z"
         style="fill:#9bc1bc"
         id="path170566" />
      <path
         d="m 132.68765,122.17513 -1.04421,2.70819 h -0.98392 l -1.03698,-2.70819 h 0.91881 l 0.62701,1.86173 0.61977,-1.86173 z"
         style="fill:#9bc1bc"
         id="path170568" />
      <path
         d="m 134.03812,124.88332 h -0.86816 v -2.70819 h 0.86816 z m 0.0241,-3.09404 h -0.9164 v -0.65836 h 0.9164 z"
         style="fill:#9bc1bc"
         id="path170570" />
      <path
         d="m 137.52525,123.6896 h -1.98713 q 0.0193,0.31832 0.24115,0.48713 0.22428,0.16881 0.65836,0.16881 0.27492,0 0.53296,-0.0989 0.25804,-0.0989 0.40755,-0.21222 h 0.0965 v 0.69694 q -0.29421,0.11817 -0.55466,0.17123 -0.26045,0.053 -0.57637,0.053 -0.81511,0 -1.24919,-0.36656 -0.43408,-0.36656 -0.43408,-1.04421 0,-0.67041 0.40996,-1.06109 0.41238,-0.39308 1.12862,-0.39308 0.66077,0 0.99356,0.33521 0.3328,0.33279 0.3328,0.9598 z m -0.86334,-0.50884 q -0.007,-0.27251 -0.13505,-0.40997 -0.12781,-0.13746 -0.39791,-0.13746 -0.2508,0 -0.41238,0.13023 -0.16157,0.13022 -0.18086,0.4172 z"
         style="fill:#9bc1bc"
         id="path170572" />
      <path
         d="m 140.49148,124.02481 q 0,0.41961 -0.37621,0.67765 -0.3762,0.25562 -1.02974,0.25562 -0.36173,0 -0.65594,-0.0675 -0.29421,-0.0675 -0.47267,-0.14952 v -0.71382 h 0.0796 q 0.0651,0.0458 0.14952,0.10128 0.0868,0.0531 0.24357,0.11576 0.13505,0.0555 0.30627,0.0965 0.17122,0.0386 0.36655,0.0386 0.25563,0 0.37862,-0.0555 0.12299,-0.0579 0.12299,-0.16881 0,-0.0989 -0.0724,-0.14228 -0.0723,-0.0458 -0.27491,-0.0868 -0.0965,-0.0217 -0.26287,-0.0458 -0.16398,-0.0265 -0.29903,-0.0627 -0.36897,-0.0965 -0.54743,-0.29903 -0.17845,-0.20499 -0.17845,-0.50884 0,-0.39068 0.36897,-0.64872 0.37138,-0.26045 1.01286,-0.26045 0.30385,0 0.58118,0.0627 0.27975,0.0603 0.4365,0.13022 v 0.68489 h -0.0748 q -0.19293,-0.13264 -0.44132,-0.21463 -0.24598,-0.0844 -0.49919,-0.0844 -0.20981,0 -0.3545,0.0579 -0.14229,0.0579 -0.14229,0.16399 0,0.0965 0.0651,0.1471 0.0651,0.0506 0.30627,0.10129 0.13263,0.0265 0.28456,0.053 0.15434,0.0241 0.30868,0.0627 0.34244,0.0892 0.50643,0.28216 0.16399,0.19051 0.16399,0.47749 z"
         style="fill:#9bc1bc"
         id="path170574" />
    </g>
    <g
       aria-label="In 4"
       id="text6374-3-8"
       style="font-weight:bold;font-size:3.52777px;line-height:1.25;font-family:Arial;-inkscape-font-specification:'Arial Bold';text-align:center;text-anchor:middle;display:inline;fill:#9bc1bc;stroke-width:0.264583"
       transform="translate(50.8,2.1166667)">
      <path
         d="m 5.7590003,98.230255 v -2.525249 h 0.5098731 v 2.525249 z"
         id="path26580" />
      <path
         d="M 8.4151631,98.230255 H 7.9311283 v -0.933619 q 0,-0.296277 -0.031006,-0.382404 -0.031006,-0.08785 -0.1016301,-0.136081 -0.068902,-0.04823 -0.1670868,-0.04823 -0.1257457,0 -0.2256532,0.0689 -0.099908,0.0689 -0.1378035,0.18259 -0.036174,0.113688 -0.036174,0.4203 v 0.828544 H 6.7477406 v -1.829342 h 0.449584 v 0.268717 q 0.2394336,-0.310058 0.6028903,-0.310058 0.1601966,0 0.2928325,0.05857 0.1326359,0.05684 0.1998151,0.146416 0.068902,0.08957 0.09474,0.20326 0.027561,0.113688 0.027561,0.325561 z"
         id="path26582" />
      <path
         d="m 10.731985,98.230255 v -0.50815 H 9.6984585 V 97.298359 L 10.793996,95.69467 h 0.406521 v 1.601966 h 0.313503 v 0.425469 h -0.313503 v 0.50815 z m 0,-0.933619 v -0.862994 l -0.580497,0.862994 z"
         id="path26584" />
    </g>
    <g
       aria-label="In 3"
       id="text6374-3-8-7"
       style="font-weight:bold;font-size:3.52777px;line-height:1.25;font-family:Arial;-inkscape-font-specification:'Arial Bold';text-align:center;text-anchor:middle;display:inline;fill:#9bc1bc;stroke-width:0.264583"
       transform="translate(50.8,2.1166667)">
      <path
         d="m 5.7590003,77.376564 v -2.525249 h 0.5098731 v 2.525249 z"
         id="path26573" />
      <path
         d="M 8.4151631,77.376564 H 7.9311283 v -0.933619 q 0,-0.296277 -0.031006,-0.382405 -0.031006,-0.08785 -0.1016301,-0.136081 -0.068902,-0.04823 -0.1670868,-0.04823 -0.1257457,0 -0.2256532,0.0689 -0.099908,0.0689 -0.1378035,0.18259 -0.036174,0.113688 -0.036174,0.4203 v 0.828544 H 6.7477406 v -1.829342 h 0.449584 v 0.268717 q 0.2394336,-0.310058 0.6028903,-0.310058 0.1601966,0 0.2928325,0.05857 0.1326359,0.05684 0.1998151,0.146416 0.068902,0.08957 0.09474,0.20326 0.027561,0.113688 0.027561,0.325561 z"
         id="path26575" />
      <path
         d="M 9.7656377,76.706494 10.23417,76.64965 q 0.02239,0.179145 0.120578,0.273885 0.09818,0.09474 0.237711,0.09474 0.149861,0 0.251491,-0.113688 0.103353,-0.113688 0.103353,-0.306613 0,-0.18259 -0.09818,-0.289387 -0.09819,-0.106798 -0.239434,-0.106798 -0.09302,0 -0.222208,0.03617 l 0.0534,-0.394462 q 0.19637,0.0052 0.299723,-0.08441 0.103352,-0.0913 0.103352,-0.241156 0,-0.127468 -0.07579,-0.20326 -0.07579,-0.07579 -0.201537,-0.07579 -0.124024,0 -0.211873,0.08613 -0.08785,0.08613 -0.106798,0.251492 l -0.4461389,-0.07579 q 0.046509,-0.229099 0.1395261,-0.36518 0.09474,-0.137803 0.2618268,-0.215318 0.168809,-0.07924 0.377237,-0.07924 0.356567,0 0.571885,0.227376 0.177422,0.186035 0.177422,0.420301 0,0.332451 -0.363457,0.530543 0.21704,0.04651 0.346231,0.208428 0.130913,0.161919 0.130913,0.391018 0,0.332451 -0.242878,0.566717 -0.242879,0.234266 -0.604613,0.234266 -0.342786,0 -0.56844,-0.19637 Q 9.8018191,77.025161 9.7656457,76.70649 Z"
         id="path26577" />
    </g>
    <g
       aria-label="In 2"
       id="text6374-3-8-78"
       style="font-weight:bold;font-size:3.52777px;line-height:1.25;font-family:Arial;-inkscape-font-specification:'Arial Bold';text-align:center;text-anchor:middle;display:inline;fill:#9bc1bc;stroke-width:0.264583"
       transform="translate(50.8,2.1166667)">
      <path
         d="m 5.7590003,56.565952 v -2.525249 h 0.5098731 v 2.525249 z"
         id="path26566" />
      <path
         d="M 8.4151631,56.565952 H 7.9311283 v -0.933619 q 0,-0.296277 -0.031006,-0.382404 -0.031006,-0.08785 -0.1016301,-0.136081 -0.068902,-0.04823 -0.1670868,-0.04823 -0.1257457,0 -0.2256532,0.0689 -0.099908,0.0689 -0.1378035,0.18259 -0.036174,0.113688 -0.036174,0.420301 v 0.828543 H 6.7477406 v -1.829341 h 0.449584 v 0.268716 q 0.2394336,-0.310057 0.6028903,-0.310057 0.1601966,0 0.2928325,0.05857 0.1326359,0.05684 0.1998151,0.146416 0.068902,0.08957 0.09474,0.20326 0.027561,0.113688 0.027561,0.325561 z"
         id="path26568" />
      <path
         d="m 11.417557,56.116368 v 0.449584 H 9.7208515 q 0.027561,-0.254936 0.1653643,-0.482312 0.1378032,-0.229098 0.5443242,-0.606335 0.327283,-0.304891 0.401352,-0.413411 0.09991,-0.149861 0.09991,-0.296278 0,-0.161919 -0.08785,-0.248046 -0.08613,-0.08785 -0.239433,-0.08785 -0.151584,0 -0.241157,0.0913 -0.08957,0.0913 -0.103352,0.303168 l -0.4823125,-0.04823 q 0.043064,-0.399631 0.2704395,-0.573607 0.227376,-0.173977 0.568439,-0.173977 0.373792,0 0.587388,0.201537 0.213595,0.201538 0.213595,0.501261 0,0.170531 -0.06201,0.32556 -0.06029,0.153307 -0.192925,0.322116 -0.08785,0.111965 -0.316948,0.322116 -0.229099,0.21015 -0.29111,0.279052 -0.06029,0.0689 -0.09818,0.134358 z"
         id="path26570" />
    </g>
    <g
       aria-label="In 1"
       id="text6374-3-8-5"
       style="font-weight:bold;font-size:3.52777px;line-height:1.25;font-family:Arial;-inkscape-font-specification:'Arial Bold';text-align:center;text-anchor:middle;display:inline;fill:#9bc1bc;stroke-width:0.264583"
       transform="translate(50.8,2.1166667)">
      <path
         d="M 5.7590003,35.733799 V 33.20855 h 0.5098731 v 2.525249 z"
         id="path26559" />
      <path
         d="M 8.4151631,35.733799 H 7.9311283 V 34.80018 q 0,-0.296277 -0.031006,-0.382405 -0.031006,-0.08785 -0.1016301,-0.136081 -0.068902,-0.04823 -0.1670868,-0.04823 -0.1257457,0 -0.2256532,0.0689 -0.099908,0.0689 -0.1378035,0.18259 -0.036174,0.113688 -0.036174,0.4203 v 0.828544 H 6.7477406 v -1.829342 h 0.449584 v 0.268717 q 0.2394336,-0.310058 0.6028903,-0.310058 0.1601966,0 0.2928325,0.05857 0.1326359,0.05684 0.1998151,0.146416 0.068902,0.08957 0.09474,0.20326 0.027561,0.113688 0.027561,0.325561 z"
         id="path26561" />
      <path
         d="m 11.021372,35.733799 h -0.484035 v -1.824174 q -0.265271,0.248046 -0.6252831,0.366902 v -0.439249 q 0.1894801,-0.06201 0.4116881,-0.234266 0.222208,-0.173977 0.30489,-0.404798 h 0.39274 z"
         id="path26563"
         style="fill:#9bc1bc;fill-opacity:1" />
    </g>
    <g
       aria-label="Out 1"
       id="text6374"
       style="font-weight:bold;font-size:3.52777px;line-height:1.25;font-family:Arial;-inkscape-font-specification:'Arial Bold';text-align:center;text-anchor:middle;fill:#f9fafb;stroke-width:0.264583"
       transform="translate(50.8,2.1166667)">
      <path
         d="m 75.051804,34.481508 q 0,-0.38585 0.11541,-0.647676 0.08613,-0.192925 0.234266,-0.346232 0.149862,-0.153306 0.327284,-0.227375 0.235988,-0.09991 0.544323,-0.09991 0.558105,0 0.892278,0.346231 0.335896,0.346232 0.335896,0.962902 0,0.611504 -0.332451,0.957735 -0.332451,0.344509 -0.888832,0.344509 -0.563272,0 -0.895723,-0.342787 -0.332451,-0.344508 -0.332451,-0.947399 z m 0.525376,-0.01722 q 0,0.428913 0.198092,0.651121 0.198093,0.220486 0.502983,0.220486 0.30489,0 0.499538,-0.218763 0.19637,-0.220486 0.19637,-0.659734 0,-0.434081 -0.191203,-0.647677 -0.189479,-0.213595 -0.504705,-0.213595 -0.315225,0 -0.50815,0.21704 -0.192925,0.215318 -0.192925,0.651122 z"
         id="path26605" />
      <path
         d="m 79.099782,35.72863 v -0.273884 q -0.09991,0.146416 -0.263549,0.23082 -0.161919,0.0844 -0.342786,0.0844 -0.184312,0 -0.330729,-0.08096 -0.146416,-0.08096 -0.211873,-0.227376 -0.06546,-0.146416 -0.06546,-0.404798 v -1.15755 h 0.484035 v 0.840602 q 0,0.38585 0.02584,0.473699 0.02756,0.08613 0.09819,0.137804 0.07062,0.04995 0.179144,0.04995 0.124023,0 0.222208,-0.06718 0.09819,-0.0689 0.134359,-0.168809 0.03617,-0.10163 0.03617,-0.49437 v -0.7717 h 0.484035 v 1.829342 z"
         id="path26607" />
      <path
         d="m 80.889506,33.899288 v 0.38585 h -0.330729 v 0.737249 q 0,0.223931 0.0086,0.261827 0.01033,0.03617 0.04306,0.06029 0.03445,0.02411 0.08268,0.02411 0.06718,0 0.194647,-0.04651 l 0.04134,0.375514 q -0.168809,0.07235 -0.382405,0.07235 -0.130913,0 -0.235988,-0.04306 -0.105075,-0.04479 -0.155029,-0.113688 -0.04823,-0.07062 -0.06718,-0.18948 -0.0155,-0.08441 -0.0155,-0.341064 v -0.797538 h -0.222208 v -0.38585 h 0.222208 v -0.363456 l 0.485757,-0.282498 v 0.645954 z"
         id="path26609" />
      <path
         d="m 83.340686,35.72863 h -0.484035 v -1.824174 q -0.265272,0.248046 -0.625284,0.366902 v -0.439249 q 0.18948,-0.06201 0.411688,-0.234266 0.222208,-0.173977 0.304891,-0.404798 h 0.39274 z"
         id="path26611" />
    </g>
    <g
       aria-label="Out 2"
       id="text6374-9"
       style="font-weight:bold;font-size:3.52777px;line-height:1.25;font-family:Arial;-inkscape-font-specification:'Arial Bold';text-align:center;text-anchor:middle;display:inline;fill:#f9fafb;stroke-width:0.264583"
       transform="translate(50.8,2.1166667)">
      <path
         d="m 75.051804,55.313662 q 0,-0.38585 0.11541,-0.647677 0.08613,-0.192925 0.234266,-0.346231 0.149862,-0.153307 0.327284,-0.227376 0.235988,-0.09991 0.544323,-0.09991 0.558105,0 0.892278,0.346232 0.335896,0.346231 0.335896,0.962902 0,0.611503 -0.332451,0.957734 -0.332451,0.344509 -0.888832,0.344509 -0.563272,0 -0.895723,-0.342786 -0.332451,-0.344509 -0.332451,-0.947399 z m 0.525376,-0.01723 q 0,0.428914 0.198092,0.651122 0.198093,0.220485 0.502983,0.220485 0.30489,0 0.499538,-0.218763 0.19637,-0.220485 0.19637,-0.659734 0,-0.434081 -0.191203,-0.647677 -0.189479,-0.213595 -0.504705,-0.213595 -0.315225,0 -0.50815,0.21704 -0.192925,0.215318 -0.192925,0.651122 z"
         id="path26614" />
      <path
         d="m 79.099782,56.560783 v -0.273884 q -0.09991,0.146416 -0.263549,0.230821 -0.161919,0.0844 -0.342786,0.0844 -0.184312,0 -0.330729,-0.08096 -0.146416,-0.08096 -0.211873,-0.227376 -0.06546,-0.146416 -0.06546,-0.404798 v -1.157549 h 0.484035 v 0.840601 q 0,0.38585 0.02584,0.4737 0.02756,0.08613 0.09819,0.137803 0.07062,0.04995 0.179144,0.04995 0.124023,0 0.222208,-0.06718 0.09819,-0.0689 0.134359,-0.168809 0.03617,-0.101631 0.03617,-0.494371 v -0.771699 h 0.484035 v 1.829341 z"
         id="path26616" />
      <path
         d="m 80.889506,54.731442 v 0.38585 h -0.330729 v 0.737248 q 0,0.223931 0.0086,0.261827 0.01033,0.03617 0.04306,0.06029 0.03445,0.02412 0.08268,0.02412 0.06718,0 0.194647,-0.04651 l 0.04134,0.375515 q -0.168809,0.07235 -0.382405,0.07235 -0.130913,0 -0.235988,-0.04306 -0.105075,-0.04479 -0.155029,-0.113688 -0.04823,-0.07062 -0.06718,-0.18948 -0.0155,-0.08441 -0.0155,-0.341064 v -0.797537 h -0.222208 v -0.38585 h 0.222208 v -0.363457 l 0.485757,-0.282497 v 0.645954 z"
         id="path26618" />
      <path
         d="m 83.736871,56.111199 v 0.449584 h -1.696706 q 0.02756,-0.254936 0.165364,-0.482312 0.137804,-0.229098 0.544324,-0.606335 0.327283,-0.304891 0.401353,-0.413411 0.09991,-0.149861 0.09991,-0.296278 0,-0.161919 -0.08785,-0.248046 -0.08613,-0.08785 -0.239434,-0.08785 -0.151584,0 -0.241156,0.09129 -0.08957,0.0913 -0.103353,0.303168 l -0.482312,-0.04823 q 0.04306,-0.39963 0.270439,-0.573607 0.227376,-0.173977 0.56844,-0.173977 0.373792,0 0.587387,0.201537 0.213596,0.201538 0.213596,0.501261 0,0.170531 -0.06201,0.32556 -0.06029,0.153307 -0.192925,0.322116 -0.08785,0.111965 -0.316948,0.322116 -0.229098,0.21015 -0.29111,0.279052 -0.06029,0.0689 -0.09819,0.134358 z"
         id="path26620" />
    </g>
    <g
       aria-label="Out 3"
       id="text6374-8"
       style="font-weight:bold;font-size:3.52777px;line-height:1.25;font-family:Arial;-inkscape-font-specification:'Arial Bold';text-align:center;text-anchor:middle;display:inline;fill:#f9fafb;stroke-width:0.264583"
       transform="translate(50.8,2.1166667)">
      <path
         d="m 75.051804,76.145807 q 0,-0.38585 0.11541,-0.647676 0.08613,-0.192925 0.234266,-0.346232 0.149862,-0.153306 0.327284,-0.227375 0.235988,-0.09991 0.544323,-0.09991 0.558105,0 0.892278,0.346231 0.335896,0.346232 0.335896,0.962902 0,0.611504 -0.332451,0.957735 -0.332451,0.344509 -0.888832,0.344509 -0.563272,0 -0.895723,-0.342787 -0.332451,-0.344508 -0.332451,-0.947399 z m 0.525376,-0.01723 q 0,0.428913 0.198092,0.651121 0.198093,0.220486 0.502983,0.220486 0.30489,0 0.499538,-0.218763 0.19637,-0.220486 0.19637,-0.659734 0,-0.434081 -0.191203,-0.647677 -0.189479,-0.213595 -0.504705,-0.213595 -0.315225,0 -0.50815,0.21704 -0.192925,0.215318 -0.192925,0.651122 z"
         id="path26623" />
      <path
         d="m 79.099782,77.392929 v -0.273884 q -0.09991,0.146416 -0.263549,0.23082 -0.161919,0.08441 -0.342786,0.08441 -0.184312,0 -0.330729,-0.08096 -0.146416,-0.08096 -0.211873,-0.227376 -0.06546,-0.146416 -0.06546,-0.404798 v -1.15755 h 0.484035 v 0.840602 q 0,0.38585 0.02584,0.473699 0.02756,0.08613 0.09819,0.137804 0.07062,0.04995 0.179144,0.04995 0.124023,0 0.222208,-0.06718 0.09819,-0.0689 0.134359,-0.16881 0.03617,-0.10163 0.03617,-0.49437 v -0.7717 h 0.484035 v 1.829342 z"
         id="path26625" />
      <path
         d="m 80.889506,75.563587 v 0.38585 h -0.330729 v 0.737249 q 0,0.223931 0.0086,0.261827 0.01033,0.03617 0.04306,0.06029 0.03445,0.02411 0.08268,0.02411 0.06718,0 0.194647,-0.04651 l 0.04134,0.375514 q -0.168809,0.07235 -0.382405,0.07235 -0.130913,0 -0.235988,-0.04306 -0.105075,-0.04479 -0.155029,-0.113688 -0.04823,-0.07062 -0.06718,-0.18948 -0.0155,-0.0844 -0.0155,-0.341064 v -0.797538 h -0.222208 v -0.38585 h 0.222208 v -0.363456 l 0.485757,-0.282498 v 0.645954 z"
         id="path26627" />
      <path
         d="m 82.084951,76.722859 0.468532,-0.05684 q 0.02239,0.179144 0.120578,0.273884 0.09819,0.09474 0.237711,0.09474 0.149861,0 0.251492,-0.113688 0.103352,-0.113688 0.103352,-0.306613 0,-0.182589 -0.09819,-0.289387 -0.09819,-0.106798 -0.239433,-0.106798 -0.09302,0 -0.222209,0.03617 l 0.0534,-0.394463 q 0.19637,0.0052 0.299723,-0.08441 0.103353,-0.0913 0.103353,-0.241156 0,-0.127468 -0.07579,-0.20326 -0.07579,-0.07579 -0.201538,-0.07579 -0.124023,0 -0.211873,0.08613 -0.08785,0.08613 -0.106798,0.251492 l -0.446139,-0.07579 q 0.04651,-0.229099 0.139527,-0.36518 0.09474,-0.137803 0.261826,-0.215318 0.16881,-0.07924 0.377237,-0.07924 0.356567,0 0.571885,0.227376 0.177422,0.186035 0.177422,0.420301 0,0.332451 -0.363457,0.530543 0.217041,0.04651 0.346232,0.208428 0.130913,0.161919 0.130913,0.391018 0,0.332451 -0.242879,0.566717 -0.242879,0.234266 -0.604613,0.234266 -0.342786,0 -0.568439,-0.19637 -0.225654,-0.198093 -0.261827,-0.516764 z"
         id="path26629" />
    </g>
    <g
       aria-label="Out 4"
       id="text6374-3"
       style="font-weight:bold;font-size:3.52777px;line-height:1.25;font-family:Arial;-inkscape-font-specification:'Arial Bold';text-align:center;text-anchor:middle;display:inline;fill:#f9fafb;stroke-width:0.264583"
       transform="translate(50.8,2.1166667)">
      <path
         d="m 75.051804,96.977968 q 0,-0.38585 0.11541,-0.647676 0.08613,-0.192925 0.234266,-0.346232 0.149862,-0.153306 0.327284,-0.227375 0.235988,-0.09991 0.544323,-0.09991 0.558105,0 0.892278,0.346231 0.335896,0.346232 0.335896,0.962902 0,0.611503 -0.332451,0.957735 -0.332451,0.344509 -0.888832,0.344509 -0.563272,0 -0.895723,-0.342787 -0.332451,-0.344508 -0.332451,-0.947399 z m 0.525376,-0.01723 q 0,0.428913 0.198092,0.651121 0.198093,0.220486 0.502983,0.220486 0.30489,0 0.499538,-0.218763 0.19637,-0.220486 0.19637,-0.659734 0,-0.434081 -0.191203,-0.647677 -0.189479,-0.213595 -0.504705,-0.213595 -0.315225,0 -0.50815,0.21704 -0.192925,0.215318 -0.192925,0.651122 z"
         id="path26632" />
      <path
         d="m 79.099782,98.22509 v -0.273884 q -0.09991,0.146416 -0.263549,0.23082 -0.161919,0.08441 -0.342786,0.08441 -0.184312,0 -0.330729,-0.08096 -0.146416,-0.08096 -0.211873,-0.227376 -0.06546,-0.146417 -0.06546,-0.404798 v -1.15755 h 0.484035 v 0.840602 q 0,0.38585 0.02584,0.473699 0.02756,0.08613 0.09819,0.137804 0.07062,0.04995 0.179144,0.04995 0.124023,0 0.222208,-0.06718 0.09819,-0.0689 0.134359,-0.168809 0.03617,-0.10163 0.03617,-0.49437 v -0.7717 h 0.484035 v 1.829342 z"
         id="path26634" />
      <path
         d="m 80.889506,96.395748 v 0.38585 h -0.330729 v 0.737249 q 0,0.223931 0.0086,0.261827 0.01033,0.03617 0.04306,0.06029 0.03445,0.02411 0.08268,0.02411 0.06718,0 0.194647,-0.04651 l 0.04134,0.375514 q -0.168809,0.07235 -0.382405,0.07235 -0.130913,0 -0.235988,-0.04306 -0.105075,-0.04479 -0.155029,-0.113687 -0.04823,-0.07062 -0.06718,-0.18948 -0.0155,-0.0844 -0.0155,-0.341064 v -0.797538 h -0.222208 v -0.38585 h 0.222208 v -0.363456 l 0.485757,-0.282498 v 0.645954 z"
         id="path26636" />
      <path
         d="m 83.051298,98.22509 v -0.50815 h -1.033526 v -0.423746 l 1.095538,-1.603689 h 0.40652 v 1.601966 h 0.313503 V 97.71694 H 83.51983 v 0.50815 z m 0,-0.933619 v -0.862994 l -0.580497,0.862994 z"
         id="path26638" />
    </g>
    <g
       aria-label="Knot"
       id="text28564"
       style="font-weight:bold;font-size:10.5833px;line-height:1.25;font-family:Arial;-inkscape-font-specification:'Arial Bold';text-align:center;text-anchor:middle;fill:#ed6a5a;stroke-width:0.264583">
      <path
         d="m 5.762419,18.199018 v -7.57574 h 1.5296175 v 3.364125 l 3.0902405,-3.364125 h 2.056716 l -2.8525302,2.950715 3.0075592,4.625025 H 10.614821 L 8.5322669,14.643691 7.2920365,15.90976 v 2.289258 z"
         id="path38356" />
      <path
         d="m 18.366261,18.199018 h -1.452103 v -2.800853 q 0,-0.888832 -0.09302,-1.147213 -0.09302,-0.263549 -0.30489,-0.408243 -0.206705,-0.144693 -0.501259,-0.144693 -0.377237,0 -0.67696,0.206705 -0.299722,0.206705 -0.41341,0.547768 -0.10852,0.341063 -0.10852,1.260901 v 2.485628 h -1.452103 v -5.488019 h 1.348751 v 0.80615 q 0.7183,-0.930173 1.808669,-0.930173 0.480589,0 0.878497,0.175699 0.397907,0.170532 0.599444,0.439248 0.206705,0.268717 0.28422,0.60978 0.08268,0.341064 0.08268,0.976682 z"
         id="path38358" />
      <path
         d="m 19.503139,15.377494 q 0,-0.723467 0.356566,-1.400427 0.356566,-0.676959 1.007687,-1.033525 0.656289,-0.356566 1.462439,-0.356566 1.245398,0 2.041212,0.811317 0.795815,0.80615 0.795815,2.041213 0,1.245398 -0.80615,2.06705 -0.800982,0.816486 -2.020542,0.816486 -0.754474,0 -1.441768,-0.341064 -0.682127,-0.341063 -1.038693,-0.997352 -0.356566,-0.661456 -0.356566,-1.607132 z m 1.488276,0.07752 q 0,0.816485 0.387572,1.250565 0.387572,0.434081 0.956011,0.434081 0.568439,0 0.950843,-0.434081 0.387572,-0.43408 0.387572,-1.260901 0,-0.806149 -0.387572,-1.24023 -0.382404,-0.434081 -0.950843,-0.434081 -0.568439,0 -0.956011,0.434081 -0.387572,0.434081 -0.387572,1.250566 z"
         id="path38360" />
      <path
         d="m 28.82037,12.710999 v 1.157548 h -0.992184 v 2.211745 q 0,0.671791 0.02584,0.785479 0.03101,0.10852 0.129191,0.180867 0.103352,0.07235 0.248046,0.07235 0.201537,0 0.583942,-0.139525 l 0.124023,1.126542 q -0.506428,0.217041 -1.147213,0.217041 -0.39274,0 -0.707965,-0.129191 -0.315226,-0.134358 -0.465087,-0.341064 -0.144693,-0.211872 -0.201537,-0.568438 -0.04651,-0.253214 -0.04651,-1.023191 v -2.392611 h -0.666624 v -1.157548 h 0.666624 V 11.62063 l 1.457271,-0.847491 v 1.93786 z"
         id="path38362" />
    </g>
    <g
       aria-label="1/2"
       id="text40365"
       style="font-weight:bold;font-size:3.52777px;line-height:1.25;font-family:Arial;-inkscape-font-specification:'Arial Bold';text-align:center;text-anchor:middle;stroke-width:0.264583"
       transform="translate(0,2.1166667)">
      <path
         d="M 8.8819334,28.721447 H 8.3978986 v -1.824174 q -0.2652718,0.248046 -0.6252835,0.366902 v -0.439249 q 0.1894798,-0.06201 0.411688,-0.234266 0.2222082,-0.173977 0.3048903,-0.404798 h 0.39274 z"
         style="fill:#9bc1bc"
         id="path77492" />
      <path
         d="m 9.450373,28.764511 0.625283,-2.611377 h 0.363457 l -0.6321734,2.611377 z"
         style="fill:#9bc1bc"
         id="path77494" />
      <path
         d="m 12.220224,28.271863 v 0.449584 h -1.696706 q 0.02756,-0.254937 0.165364,-0.482312 0.137804,-0.229099 0.544324,-0.606336 0.327283,-0.30489 0.401353,-0.41341 0.09991,-0.149862 0.09991,-0.296278 0,-0.161919 -0.08785,-0.248046 -0.08613,-0.08785 -0.239433,-0.08785 -0.151584,0 -0.241156,0.09129 -0.08957,0.0913 -0.103353,0.303168 l -0.482312,-0.04823 q 0.04306,-0.39963 0.270439,-0.573607 0.227376,-0.173977 0.56844,-0.173977 0.373792,0 0.587387,0.201538 0.213596,0.201538 0.213596,0.50126 0,0.170532 -0.06201,0.325561 -0.06029,0.153306 -0.192925,0.322116 -0.08785,0.111965 -0.316948,0.322115 -0.229098,0.210151 -0.29111,0.279053 -0.06029,0.0689 -0.09819,0.134358 z"
         style="fill:#9bc1bc"
         id="path77496" />
    </g>
    <g
       aria-label="3/4"
       id="text40365-2"
       style="font-weight:bold;font-size:3.52777px;line-height:1.25;font-family:Arial;-inkscape-font-specification:'Arial Bold';text-align:center;text-anchor:middle;display:inline;stroke-width:0.264583"
       transform="translate(0,2.1166667)">
      <path
         d="m 7.6511756,48.883077 0.468532,-0.05684 q 0.022393,0.179144 0.120578,0.273884 0.098185,0.09474 0.2377111,0.09474 0.1498613,0 0.2514914,-0.113688 0.1033527,-0.113688 0.1033527,-0.306613 0,-0.182589 -0.098185,-0.289387 -0.098185,-0.106798 -0.2394337,-0.106798 -0.093017,0 -0.2222081,0.03617 l 0.053399,-0.394463 q 0.1963701,0.0052 0.2997227,-0.0844 0.1033526,-0.0913 0.1033526,-0.241157 0,-0.127468 -0.075792,-0.20326 -0.075792,-0.07579 -0.2015377,-0.07579 -0.1240231,0 -0.2118729,0.08613 -0.08785,0.08613 -0.1067977,0.251492 l -0.446139,-0.0758 q 0.046509,-0.229098 0.1395261,-0.365179 0.09474,-0.137804 0.2618267,-0.215318 0.1688093,-0.07924 0.3772371,-0.07924 0.3565666,0 0.5718846,0.227375 0.177422,0.186035 0.177422,0.420301 0,0.332451 -0.3634568,0.530544 0.2170406,0.04651 0.3462314,0.208428 0.1309133,0.161919 0.1309133,0.391017 0,0.332451 -0.2428787,0.566717 -0.2428787,0.234266 -0.6046129,0.234266 -0.3427863,0 -0.5684395,-0.19637 -0.2256533,-0.19809 -0.2618267,-0.516761 z"
         style="fill:#9bc1bc"
         id="path77515" />
      <path
         d="M 9.4753497,49.59621 10.100633,46.984833 H 10.46409 L 9.8319163,49.59621 Z"
         style="fill:#9bc1bc"
         id="path77517" />
      <path
         d="m 11.559628,49.553146 v -0.50815 H 10.526101 V 48.62125 l 1.095538,-1.603688 h 0.406521 v 1.601966 h 0.313503 v 0.425468 H 12.02816 v 0.50815 z m 0,-0.933618 v -0.862995 l -0.580497,0.862995 z"
         style="fill:#9bc1bc"
         id="path77519" />
    </g>
  </g>
  <g
     inkscape:groupmode="layer"
     id="layer6"
     inkscape:label="screen"
     style="display:none">
    <path
       id="path23826"
       style="display:inline;opacity:1;stroke-width:0.224255"
       d="m 75.95113,28.086536 h 43.03141 a 0.25513725,0.7907683 0 0 1 0.25514,0.790768 v 77.714906 a 0.25513725,0.7907683 0 0 1 -0.25514,0.79078 H 75.95113 A 0.25513725,0.7907683 0 0 1 75.696,106.59221 V 28.877304 a 0.25513725,0.7907683 0 0 1 0.25513,-0.790768 z" />
  </g>
  <g
     inkscape:groupmode="layer"
     id="layer4"
     inkscape:label="components"
     style="display:none"
     sodipodi:insensitive="true">
    <circle
       style="display:inline;fill:#0000ff;fill-opacity:1;stroke-width:0.765;stroke-miterlimit:4;stroke-dasharray:none"
       id="OUTPUT_GATE_OUT"
       cx="139.83717"
       cy="78.246971"
       r="4.1341147"
       inkscape:label="OUTPUT_OUT_3" />
    <circle
       style="display:inline;fill:#0000ff;fill-opacity:1;stroke-width:0.765;stroke-miterlimit:4;stroke-dasharray:none"
       id="OUTPUT_GATE_OUT-7"
       cx="139.83717"
       cy="57.414829"
       r="4.1341147"
       inkscape:label="OUTPUT_OUT_2" />
    <circle
       style="display:inline;fill:#0000ff;fill-opacity:1;stroke-width:0.765;stroke-miterlimit:4;stroke-dasharray:none"
       id="OUTPUT_GATE_OUT-0"
       cx="139.83717"
       cy="36.582676"
       r="4.1341147"
       inkscape:label="OUTPUT_OUT_1" />
    <circle
       style="display:inline;fill:#0000ff;fill-opacity:1;stroke-width:0.765;stroke-miterlimit:4;stroke-dasharray:none"
       id="OUT_END"
       cx="139.83717"
       cy="99.079132"
       r="4.1341147"
       inkscape:label="OUTPUT_OUT_4" />
    <ellipse
       style="display:inline;fill:#00ff00;fill-opacity:1;stroke-width:0.493086"
       id="path846-6"
       cx="68.06282"
       cy="36.582676"
       inkscape:label="INPUT_IN_1"
       rx="4.2340002"
       ry="4.2340055" />
    <circle
       style="display:inline;fill:#00ff00;fill-opacity:1;stroke-width:0.493086"
       id="path846-1-0"
       cx="68.063004"
       cy="57.414829"
       r="4.2340055"
       inkscape:label="INPUT_IN_2" />
    <circle
       style="display:inline;fill:#00ff00;fill-opacity:1;stroke-width:0.493086"
       id="path846-1-0-2"
       cx="68.06282"
       cy="78.246971"
       r="4.2340055"
       inkscape:label="INPUT_IN_3" />
    <circle
       style="display:inline;fill:#00ff00;fill-opacity:1;stroke-width:0.493086"
       id="path846-1-0-0"
       cx="68.06282"
       cy="99.079132"
       r="4.2340055"
       inkscape:label="INPUT_IN_4" />
    <ellipse
       style="display:inline;fill:#00ff00;fill-opacity:1;stroke-width:0.493086"
       id="path846-6-3-9-8"
       cx="41.063026"
       cy="36.582676"
       inkscape:label="INPUT_CONTROL_RANDOM"
       rx="4.2340002"
       ry="4.2340055" />
    <ellipse
       style="display:inline;fill:#00ff00;fill-opacity:1;stroke-width:0.493086"
       id="path846-6-3-9-2"
       cx="41.063026"
       cy="57.414829"
       inkscape:label="INPUT_CONTROL_UNDO"
       rx="4.2340002"
       ry="4.2340055" />
    <ellipse
       style="display:inline;fill:#00ff00;fill-opacity:1;stroke-width:0.493086"
       id="path846-6-3-9-2-5"
       cx="41.063026"
       cy="78.246971"
       inkscape:label="INPUT_CONTROL_REDO"
       rx="4.2340002"
       ry="4.2340055" />
    <ellipse
       style="display:inline;fill:#00ff00;fill-opacity:1;stroke-width:0.493086"
       id="path846-6-3-9-2-8"
       cx="41.063026"
       cy="99.079132"
       inkscape:label="INPUT_CONTROL_RESET"
       rx="4.2340002"
       ry="4.2340055" />
    <ellipse
       style="display:inline;fill:#00ff00;fill-opacity:1;stroke-width:0.493086"
       id="path846-6-3-9"
       cx="25.529724"
       cy="36.582676"
       inkscape:label="INPUT_CONTROL_1_3"
       rx="4.2340002"
       ry="4.2340055" />
    <ellipse
       style="display:inline;fill:#00ff00;fill-opacity:1;stroke-width:0.493086"
       id="path846-6-3-4"
       cx="25.529724"
       cy="57.414829"
       inkscape:label="INPUT_CONTROL_2_4"
       rx="4.2340002"
       ry="4.2340055" />
    <ellipse
       style="display:inline;fill:#00ff00;fill-opacity:1;stroke-width:0.493086"
       id="path846-6-3-6"
       cx="9.996419"
       cy="78.246971"
       inkscape:label="INPUT_CONTROL_2_3"
       rx="4.2340002"
       ry="4.2340055" />
    <ellipse
       style="display:inline;fill:#00ff00;fill-opacity:1;stroke-width:0.493086"
       id="path846-6-3-5"
       cx="9.996419"
       cy="99.079132"
       inkscape:label="INPUT_CONTROL_1_4"
       rx="4.2340002"
       ry="4.2340055" />
    <ellipse
       style="display:inline;fill:#00ff00;fill-opacity:1;stroke-width:0.493086"
       id="path846-6-3-8"
       cx="9.996419"
       cy="57.414829"
       inkscape:label="INPUT_CONTROL_3_4"
       rx="4.2340002"
       ry="4.2340055" />
    <ellipse
       style="display:inline;fill:#00ff00;fill-opacity:1;stroke-width:0.493086"
       id="path846-6-3"
       cx="9.996419"
       cy="36.582676"
       inkscape:label="INPUT_CONTROL_1_2"
       rx="4.2340002"
       ry="4.2340055" />
    <ellipse
       style="display:inline;fill:#00ff00;fill-opacity:1;stroke-width:0.493086"
       id="path846-6-3-9-0"
       cx="25.529724"
       cy="78.246971"
       inkscape:label="INPUT_CONTROL_SHIFT_UP"
       rx="4.2340002"
       ry="4.2340055" />
    <ellipse
       style="display:inline;fill:#00ff00;fill-opacity:1;stroke-width:0.493086"
       id="path846-6-3-9-3"
       cx="25.529724"
       cy="99.079132"
       inkscape:label="INPUT_CONTROL_SHIFT_DOWN"
       rx="4.2340002"
       ry="4.2340055" />
  </g>
</svg>
