<?xml version="1.0" encoding="UTF-8" standalone="no"?>
<!-- Created with Inkscape (http://www.inkscape.org/) -->

<svg
   width="66.040001mm"
   height="128.5mm"
   viewBox="0 0 66.040002 128.5"
   version="1.1"
   id="svg5"
   inkscape:version="1.1.1 (3bf5ae0d25, 2021-09-20)"
   sodipodi:docname="TriMorph.svg"
   xmlns:inkscape="http://www.inkscape.org/namespaces/inkscape"
   xmlns:sodipodi="http://sodipodi.sourceforge.net/DTD/sodipodi-0.dtd"
   xmlns="http://www.w3.org/2000/svg"
   xmlns:svg="http://www.w3.org/2000/svg">
  <sodipodi:namedview
     id="namedview7"
     pagecolor="#000000"
     bordercolor="#666666"
     borderopacity="1.0"
     inkscape:pageshadow="2"
     inkscape:pageopacity="0"
     inkscape:pagecheckerboard="false"
     inkscape:document-units="mm"
     showgrid="false"
     inkscape:zoom="1.2810466"
     inkscape:cx="33.956611"
     inkscape:cy="247.06362"
     inkscape:window-width="1920"
     inkscape:window-height="1017"
     inkscape:window-x="-8"
     inkscape:window-y="-8"
     inkscape:window-maximized="1"
     inkscape:current-layer="layer2"
     width="50.8mm"
     showguides="true"
     inkscape:guide-bbox="true">
    <sodipodi:guide
       position="33.149166,51.151948"
       orientation="1,0"
       id="guide14764" />
  </sodipodi:namedview>
  <defs
     id="defs2" />
  <g
     inkscape:label="Layer 1"
     inkscape:groupmode="layer"
     id="layer1"
     style="display:inline">
    <rect
       style="opacity:1;fill:#f9fafb;fill-opacity:1;stroke-width:0.247774"
       id="rect846"
       width="66.040001"
       height="128.5"
       x="0"
       y="0" />
    <g
       id="g130949"
       transform="matrix(0.99999624,0,0,1,-151.81709,0.26417965)"
       style="display:inline">
      <rect
         style="display:inline;fill:#f4f1bb;fill-opacity:1;stroke-width:1.09761;stroke-miterlimit:4;stroke-dasharray:none"
         id="rect93213"
         width="3.5"
         height="131.71765"
         x="226.38889"
         y="-100.11375"
         transform="rotate(45)" />
      <rect
         style="display:inline;fill:#9bc1bc;fill-opacity:1;stroke-width:1.09761;stroke-miterlimit:4;stroke-dasharray:none"
         id="rect93233"
         width="3.5"
         height="131.71765"
         x="229.88889"
         y="-100.11375"
         transform="rotate(45)" />
      <rect
         style="display:inline;fill:#ed6a5a;fill-opacity:1;stroke-width:1.09761;stroke-miterlimit:4;stroke-dasharray:none"
         id="rect93109"
         width="3.5"
         height="131.71765"
         x="222.88844"
         y="-100.11375"
         transform="rotate(45)" />
    </g>
    <g
       aria-label="Daniel Davies"
       id="text158043"
       style="font-size:4.93889px;line-height:1.25;display:inline;stroke-width:0.264583"
       transform="translate(-88.90045,-0.4195)">
      <g
         id="g46703"
         transform="translate(14.95093)">
        <path
           d="m 106.74159,123.09153 q 0,0.50161 -0.2291,0.89951 -0.22909,0.3955 -0.57877,0.60772 -0.26286,0.15916 -0.57637,0.22186 -0.3135,0.0627 -0.74276,0.0627 h -1.26607 v -3.59082 h 1.30224 q 0.43891,0 0.75724,0.0748 0.31832,0.0724 0.53536,0.20739 0.37139,0.22669 0.5836,0.61254 0.21463,0.38344 0.21463,0.90434 z m -0.95739,-0.007 q 0,-0.3545 -0.13022,-0.6053 -0.12782,-0.25321 -0.40756,-0.3955 -0.14228,-0.0699 -0.2918,-0.094 -0.1471,-0.0265 -0.44614,-0.0265 h -0.23392 v 2.24758 h 0.23392 q 0.33039,0 0.48473,-0.0289 0.15434,-0.0314 0.30144,-0.11093 0.25322,-0.1447 0.37138,-0.38586 0.11817,-0.24356 0.11817,-0.60048 z"
           style="fill:#ed6a5a"
           id="path170552" />
        <path
           d="m 110.58962,123.09153 q 0,0.50161 -0.2291,0.89951 -0.2291,0.3955 -0.57877,0.60772 -0.26286,0.15916 -0.57637,0.22186 -0.3135,0.0627 -0.74276,0.0627 h -1.26607 v -3.59082 h 1.30224 q 0.43891,0 0.75723,0.0748 0.31833,0.0724 0.53537,0.20739 0.37138,0.22669 0.5836,0.61254 0.21463,0.38344 0.21463,0.90434 z m -0.95739,-0.007 q 0,-0.3545 -0.13023,-0.6053 -0.12781,-0.25321 -0.40755,-0.3955 -0.14228,-0.0699 -0.2918,-0.094 -0.14711,-0.0265 -0.44614,-0.0265 h -0.23392 v 2.24758 h 0.23392 q 0.33038,0 0.48473,-0.0289 0.15434,-0.0314 0.30144,-0.11093 0.25322,-0.1447 0.37138,-0.38586 0.11817,-0.24356 0.11817,-0.60048 z"
           style="fill:#9bc1bc"
           id="path170564" />
      </g>
    </g>
    <g
       aria-label="Bend"
       id="text4058"
       style="font-size:10.5833px;line-height:1.25;font-family:Arial;-inkscape-font-specification:Arial;stroke-width:0.264583">
      <path
         d="m 3.996,6.6753015 h 3.0282293 q 0.899167,0 1.3384153,0.077514 0.4444159,0.072347 0.7906469,0.3100576 0.3513986,0.2377109 0.5839418,0.6356181 0.2325432,0.3927396 0.2325432,0.8836642 0,0.5322656 -0.2893871,0.9766815 -0.2842195,0.4444157 -0.775144,0.6666237 0.692462,0.201538 1.0645311,0.687294 0.3720695,0.485757 0.3720695,1.142046 0,0.516763 -0.242879,1.007687 -0.2377106,0.485757 -0.6562884,0.780312 -0.4134102,0.289387 -1.0231901,0.356566 -0.3824044,0.04134 -1.8448428,0.05168 H 3.996 Z m 1.5296175,1.2609009 v 1.7518255 h 1.0025196 q 0.8939994,0 1.1110397,-0.025838 Q 8.0319165,9.6156811 8.2541244,9.3934732 8.4815,9.1660976 8.4815,8.7991961 8.4815,8.4477975 8.2851302,8.2307572 8.093928,8.0085492 7.7115236,7.9620406 7.484148,7.9362024 6.404114,7.9362024 Z m 0,3.0127266 v 2.02571 h 1.4159297 q 0.8268203,0 1.0490283,-0.04651 0.3410633,-0.06201 0.552936,-0.299722 0.2170404,-0.242879 0.2170404,-0.645954 0,-0.341063 -0.1653641,-0.578774 -0.1653641,-0.237711 -0.4805893,-0.346231 -0.3100576,-0.10852 -1.3539182,-0.10852 z"
         style="font-weight:bold;fill:#ed6a5a"
         id="path16132" />
      <path
         d="m 14.801508,12.504385 1.446935,0.242878 q -0.279052,0.795814 -0.883664,1.214392 -0.599445,0.41341 -1.50378,0.41341 -1.431432,0 -2.118726,-0.93534 -0.542601,-0.749306 -0.542601,-1.891351 0,-1.364254 0.713132,-2.1342303 0.713133,-0.775144 1.803502,-0.775144 1.224727,0 1.932692,0.8113174 0.707965,0.8061499 0.676959,2.4752929 h -3.638009 q 0.0155,0.645954 0.351399,1.007688 0.335896,0.356566 0.837155,0.356566 0.341064,0 0.573607,-0.186035 0.232543,-0.186034 0.351399,-0.599444 z m 0.08268,-1.467606 q -0.0155,-0.630451 -0.325561,-0.956011 -0.310057,-0.3307286 -0.754473,-0.3307286 -0.475422,0 -0.78548,0.3462306 -0.310057,0.346231 -0.30489,0.940509 z"
         style="font-weight:bold;fill:#ed6a5a"
         id="path16134" />
      <path
         d="m 22.501271,14.251042 h -1.452103 v -2.800853 q 0,-0.888832 -0.09302,-1.147213 -0.09302,-0.263549 -0.30489,-0.408243 -0.206705,-0.1446936 -0.50126,-0.1446936 -0.377237,0 -0.676959,0.2067051 -0.299722,0.2067055 -0.41341,0.5477685 -0.10852,0.341063 -0.10852,1.260901 v 2.485628 H 17.499009 V 8.7630227 h 1.34875 v 0.8061498 q 0.7183,-0.9301728 1.80867,-0.9301728 0.480589,0 0.878496,0.1756993 0.397907,0.1705317 0.599445,0.4392483 0.206705,0.2687166 0.284219,0.6097799 0.08268,0.3410638 0.08268,0.9766818 z"
         style="font-weight:bold;fill:#ed6a5a"
         id="path16136" />
      <path
         d="m 29.007313,14.251042 h -1.348751 v -0.806149 q -0.335895,0.470254 -0.795814,0.702797 -0.454751,0.227375 -0.919838,0.227375 -0.945675,0 -1.622634,-0.759641 -0.671792,-0.764808 -0.671792,-2.129062 0,-1.395259 0.656289,-2.1187269 0.656288,-0.7286354 1.658808,-0.7286354 0.919837,0 1.591629,0.7648088 v -2.728507 h 1.452103 z m -3.87572,-2.862865 q 0,0.878497 0.242878,1.271236 0.351399,0.568439 0.981849,0.568439 0.50126,0 0.852659,-0.423745 0.351399,-0.428913 0.351399,-1.276404 0,-0.945676 -0.341064,-1.359086 -0.341063,-0.4185776 -0.873329,-0.4185776 -0.516762,0 -0.868161,0.4134106 -0.346231,0.408242 -0.346231,1.224727 z"
         style="font-weight:bold;fill:#ed6a5a"
         id="path16138" />
    </g>
    <path
       style="color:#000000;fill:#9bc1bc;stroke-dasharray:3.09445, 1.54723;-inkscape-stroke:none"
       d="m 31.830078,29.802734 0.103516,1.542969 c 0.982657,-0.06537 1.970685,-0.04143 2.949218,0.07031 l 0.175782,-1.53711 c -1.071032,-0.122304 -2.152838,-0.147732 -3.228516,-0.07617 z m -1.605469,0.179688 c -1.066182,0.167893 -2.115845,0.434582 -3.132812,0.794922 l 0.515625,1.457031 c 0.927458,-0.328624 1.885813,-0.571609 2.857422,-0.724609 z m 6.431641,0.152344 -0.314453,1.515625 c 0.963007,0.199797 1.907732,0.490216 2.818359,0.863281 l 0.585938,-1.431641 c -0.99827,-0.40897 -2.032939,-0.727987 -3.089844,-0.947265 z m -11.060547,1.25 c -0.22495,0.102775 -0.445157,0.210518 -0.660156,0.320312 l -0.0039,0.002 -0.376954,0.199219 -0.375,0.208984 -0.36914,0.21875 -0.363281,0.226563 -0.357422,0.234375 -0.291016,0.203125 0.882813,1.271484 0.27539,-0.191406 0.326172,-0.214844 0.332031,-0.207031 0.335938,-0.199219 0.341797,-0.191406 0.355468,-0.1875 -0.0078,0.0059 c 0.200223,-0.102247 0.398517,-0.200032 0.597656,-0.291015 z m 15.621094,0.380859 -0.722656,1.367187 0.251953,0.132813 0.341797,0.191406 0.33789,0.199219 0.332031,0.207031 0.326172,0.214844 0.320313,0.222656 0.314453,0.228516 0.265625,0.205078 0.941406,-1.228516 -0.28125,-0.214843 -0.34375,-0.251954 -0.351562,-0.24414 -0.357422,-0.234375 -0.363281,-0.226563 -0.369141,-0.21875 -0.375,-0.208984 z m -19.697266,2.224609 -0.121094,0.103516 -0.318359,0.283203 -0.3125,0.289063 -0.304687,0.296875 -0.296875,0.30664 -0.291016,0.310547 -0.283203,0.318359 -0.275391,0.326172 -0.0625,0.08008 1.205078,0.96875 0.05078,-0.06445 0.251953,-0.296875 0.257812,-0.291015 0.265625,-0.285157 0.271485,-0.277343 0.279296,-0.271485 0.285157,-0.265625 0.291015,-0.257812 0.105469,-0.0918 z m 23.638672,0.56836 -1.054687,1.132812 0.101562,0.0957 0.277344,0.271485 0.271484,0.277343 0.265625,0.285157 0.257813,0.291015 0.251953,0.296875 0.24414,0.304688 0.236329,0.308594 0.05078,0.06641 1.25,-0.910156 -0.06055,-0.08398 -0.259766,-0.33789 -0.267578,-0.332032 -0.27539,-0.326172 -0.283204,-0.318359 -0.289062,-0.310547 -0.298828,-0.30664 -0.304688,-0.296875 z m -26.871094,3.046875 -0.226562,0.34375 -0.226563,0.363281 -0.21875,0.369141 -0.207031,0.36914 -0.002,0.0059 c -0.24295,0.447425 -0.468228,0.905347 -0.671875,1.373046 l 1.419922,0.617188 c 0.184211,-0.423064 0.386984,-0.83766 0.607422,-1.244141 v -0.002 c 0.0011,-0.002 0.0028,-0.0038 0.0039,-0.0059 l 0.191406,-0.341797 0.199219,-0.337891 0.207031,-0.332031 0.214844,-0.328125 z m 29.925782,0.71875 -1.332032,0.787109 0.203125,0.341797 0.191407,0.341797 0.18164,0.345703 c 0.270742,0.528629 0.514044,1.071999 0.72461,1.626953 l 1.445312,-0.548828 c -0.230969,-0.608727 -0.494397,-1.204048 -0.791016,-1.783203 l -0.0039,-0.0039 -0.197265,-0.376954 -0.208985,-0.373046 z m -32.054688,3.615234 c -0.339701,1.0246 -0.584414,2.079599 -0.730469,3.148438 l 1.533203,0.208984 c 0.133233,-0.975009 0.356527,-1.937619 0.666016,-2.871094 z m 33.972656,0.816406 -1.490234,0.416016 c 0.263988,0.947091 0.440492,1.919463 0.527344,2.900391 l 1.541015,-0.136719 c -0.09508,-1.073858 -0.288209,-2.139578 -0.578125,-3.179688 z M 15.28125,46.697266 c -0.04961,1.076552 -0.0027,2.157556 0.142578,3.226562 l 1.533203,-0.207031 c -0.132513,-0.975094 -0.176207,-1.963209 -0.130859,-2.947266 z m 33.949219,0.824218 c -9.4e-5,0.985561 -0.08781,1.97031 -0.265625,2.9375 l 1.521484,0.279297 c 0.195212,-1.061831 0.290913,-2.139498 0.291016,-3.216797 z m -32.009766,3.646485 -1.507812,0.347656 c 0.241608,1.05146 0.579469,2.080467 1.009765,3.070312 l 1.419922,-0.617187 c -0.392133,-0.902056 -0.701504,-1.841744 -0.921875,-2.800781 z m 31.412109,0.730468 c -0.264445,0.947425 -0.61693,1.869043 -1.050781,2.751954 l 1.388672,0.683593 c 0.4759,-0.968484 0.862203,-1.982 1.152344,-3.021484 z m -29.84375,3.390625 -1.351562,0.753907 0.177734,0.318359 0.21875,0.369141 0.226563,0.363281 0.234375,0.355469 0.24414,0.351562 0.251954,0.345703 0.259765,0.337891 0.185547,0.230469 1.205078,-0.970703 -0.175781,-0.214844 -0.236328,-0.310547 -0.230469,-0.314453 -0.220703,-0.320313 -0.214844,-0.326172 -0.207031,-0.332031 -0.199219,-0.335937 z m 28.087891,0.650391 -0.199219,0.318359 -0.214843,0.326172 -0.222657,0.320313 -0.230468,0.314453 -0.236329,0.310547 -0.24414,0.302734 -0.251953,0.296875 -0.166016,0.1875 1.158203,1.027344 0.177735,-0.201172 0.27539,-0.326172 0.267578,-0.332031 0.259766,-0.337891 0.251953,-0.345703 0.242188,-0.351562 0.236328,-0.355469 0.208984,-0.335938 z m -25.455078,2.904297 -1.107422,1.082031 0.148438,0.152344 0.304687,0.296875 0.3125,0.291016 0.318359,0.283203 0.326172,0.273437 0.332032,0.267578 0.33789,0.259766 0.345703,0.251953 0.03516,0.02539 0.882812,-1.271485 -0.02148,-0.01563 -0.314453,-0.228515 -0.310547,-0.238282 -0.302735,-0.24414 -0.296875,-0.25 -0.291015,-0.259766 -0.285157,-0.263672 -0.279296,-0.271484 z m 22.660156,0.525391 -0.162109,0.15039 -0.291016,0.259766 -0.296875,0.25 -0.304687,0.24414 -0.308594,0.238282 -0.314453,0.228515 -0.320313,0.222657 -0.324218,0.21289 0.820312,1.3125 0.01172,-0.0078 0.357422,-0.234375 0.351562,-0.244141 0.34375,-0.251953 0.339844,-0.259766 0.332031,-0.267578 0.326172,-0.273437 0.318359,-0.283203 0.175782,-0.164063 z m -19.169922,2.191406 -0.787109,1.332031 0.05469,0.0332 0.371094,0.207031 0.0039,0.002 c 0.805071,0.437171 1.645254,0.812084 2.509766,1.11914 l 0.517578,-1.457031 c -0.784494,-0.278636 -1.548328,-0.620095 -2.28125,-1.017578 l -0.0039,-0.002 c -0.0013,-6.95e-4 -0.0026,-0.0013 -0.0039,-0.002 l -0.341797,-0.191407 z m 15.560547,0.359375 c -0.841049,0.438539 -1.724613,0.801002 -2.632812,1.083984 l -0.0957,0.0293 0.451171,1.478516 0.103516,-0.03125 h 0.002 c 0.993666,-0.309612 1.961256,-0.706899 2.886719,-1.189453 z m -11.478515,1.308594 -0.382813,1.498046 c 1.045306,0.267382 2.113081,0.439466 3.189453,0.511719 l 0.103516,-1.544922 c -0.981884,-0.06591 -1.956909,-0.221009 -2.910156,-0.464843 z m 7.320312,0.167968 c -0.963613,0.199115 -1.947309,0.309101 -2.931641,0.330078 l 0.0332,1.546875 c 1.07807,-0.02297 2.154304,-0.142992 3.210937,-0.361328 z"
       id="path14007" />
  </g>
  <g
     inkscape:groupmode="layer"
     id="layer2"
     inkscape:label="components"
     style="display:inline">
    <ellipse
       style="display:inline;fill:#0000ff;fill-opacity:1;stroke-width:0.0698898"
       id="path1193-5-3"
       cx="13.708802"
       cy="110.45718"
       inkscape:label="square_out"
       rx="2.892"
       ry="2.8915157" />
    <circle
       style="display:inline;fill:#ff0000;fill-opacity:1;stroke-width:0.0698898"
       id="path1193-3"
       cx="13.708802"
       cy="81.637642"
       r="2.8915157"
       inkscape:label="knob_shift" />
    <ellipse
       style="display:inline;fill:#00ff00;fill-opacity:1;stroke-width:0.0698898"
       id="path1193-5-3-5-0"
       cx="13.708802"
       cy="93.148125"
       inkscape:label="shift_in"
       rx="2.892"
       ry="2.8915157" />
    <ellipse
       style="display:inline;fill:#0000ff;fill-opacity:1;stroke-width:0.0698898"
       id="path1193-5"
       cx="33.019997"
       cy="110.45718"
       inkscape:label="sin_out"
       rx="2.892"
       ry="2.8915157" />
    <circle
       style="display:inline;fill:#ff0000;fill-opacity:1;stroke-width:0.0698898"
       id="path1193-3-0"
       cx="33.019997"
       cy="81.637642"
       r="2.8915157"
       inkscape:label="knob_pulse_width_modulation" />
    <ellipse
       style="display:inline;fill:#00ff00;fill-opacity:1;stroke-width:0.0698898"
       id="path1193-5-3-5-0-7"
       cx="33.019997"
       cy="93.148125"
       inkscape:label="pulse_width_modulation_in"
       rx="2.892"
       ry="2.8915157" />
    <circle
       style="fill:#0000ff;fill-opacity:1;stroke-width:0.0698898"
       id="path1193"
       cx="52.3312"
       cy="110.45718"
       r="2.8915157"
       inkscape:label="triangle_out" />
    <circle
       style="display:inline;fill:#ff0000;fill-opacity:1;stroke-width:0.0698898"
       id="path1193-3-0-4"
       cx="52.3312"
       cy="81.637642"
       r="2.8915157"
       inkscape:label="knob_frequency_modulation" />
    <ellipse
       style="display:inline;fill:#00ff00;fill-opacity:1;stroke-width:0.0698898"
       id="path1193-5-3-5-0-7-8"
       cx="52.3312"
       cy="93.148125"
       inkscape:label="frequency_modulation_in"
       rx="2.892"
       ry="2.8915157" />
    <g
       id="g14762"
       transform="translate(3.9841108,-0.09995309)" />
    <ellipse
       style="display:inline;fill:#00ff00;fill-opacity:1;stroke-width:0.0936325"
       id="path1193-5-3-5"
       cx="33.019997"
       cy="47.518307"
       inkscape:label="pitch_in"
       rx="3.8744576"
       ry="3.8738089" />
    <circle
       style="display:inline;fill:#ff0000;fill-opacity:1;stroke-width:0.0698898"
       id="path1193-3-7"
       cx="33.025997"
       cy="30.32897"
       r="2.8915157"
       inkscape:label="knob_coarse" />
    <circle
       style="display:inline;fill:#ff0000;fill-opacity:1;stroke-width:0.0698898"
       id="path1193-3-7-7"
       cx="33.025997"
       cy="64.477737"
       r="2.8915157"
       inkscape:label="knob_pulse_width" />
    <circle
       style="display:inline;fill:#ff0000;fill-opacity:1;stroke-width:0.0698898"
       id="path1193-3-7-1"
       cx="18.001976"
       cy="39.712917"
       r="2.8915157"
       inkscape:label="knob_shift_modulation" />
    <circle
       style="display:inline;fill:#ff0000;fill-opacity:1;stroke-width:0.0698898"
       id="path1193-3-7-1-5"
       cx="47.895195"
       cy="39.712917"
       r="2.8915157"
       inkscape:label="knob_portamento" />
  </g>
</svg>
