<?xml version="1.0" encoding="UTF-8" standalone="no"?>
<!-- Created with Inkscape (http://www.inkscape.org/) -->

<svg
   width="45.720001mm"
   height="128.5mm"
   viewBox="0 0 45.720001 128.5"
   version="1.1"
   id="svg24597"
   inkscape:version="1.1.1 (3bf5ae0d25, 2021-09-20)"
   sodipodi:docname="Blank5.svg"
   xmlns:inkscape="http://www.inkscape.org/namespaces/inkscape"
   xmlns:sodipodi="http://sodipodi.sourceforge.net/DTD/sodipodi-0.dtd"
   xmlns="http://www.w3.org/2000/svg"
   xmlns:svg="http://www.w3.org/2000/svg">
  <sodipodi:namedview
     id="namedview24599"
     pagecolor="#ffffff"
     bordercolor="#666666"
     borderopacity="1.0"
     inkscape:pageshadow="2"
     inkscape:pageopacity="0.0"
     inkscape:pagecheckerboard="0"
     inkscape:document-units="mm"
     showgrid="false"
     inkscape:zoom="0.64052329"
     inkscape:cx="-58.545881"
     inkscape:cy="125.67849"
     inkscape:window-width="1920"
     inkscape:window-height="1017"
     inkscape:window-x="1912"
     inkscape:window-y="-8"
     inkscape:window-maximized="1"
     inkscape:current-layer="layer1"
     showguides="false" />
  <defs
     id="defs24594" />
  <g
     inkscape:groupmode="layer"
     id="layer2"
     inkscape:label="Background">
    <rect
       style="fill:#f9fafb;stroke-width:0.264583;fill-opacity:1"
       id="rect24828"
       width="45.720001"
       height="128.5"
       x="0"
       y="0" />
  </g>
  <g
     inkscape:label="Text"
     inkscape:groupmode="layer"
     id="layer1">
    <g
       aria-label="Daniel Davies"
       transform="rotate(90,-2.74,2.74)"
       id="text29262"
       style="font-size:10.5833px;line-height:1.25;font-family:Arial;-inkscape-font-specification:Arial;stroke-width:0.264583">
      <path
         d="m 5.0000001,-13.458764 h 2.7956861 q 0.9456757,0 1.4417679,0.144693 0.6666238,0.19637 1.1420459,0.69763 0.475421,0.50126 0.723467,1.229895 0.248046,0.723468 0.248046,1.7879991 0,0.9353404 -0.232543,1.6122995 -0.284219,0.8268203 -0.811317,1.3384154 Q 9.9092455,-6.26026 9.2322864,-6.0432197 8.725859,-5.8830233 7.8783682,-5.8830233 H 5.0000001 Z m 1.5296175,1.281571 v 5.0177659 h 1.1420456 q 0.6407857,0 0.9250051,-0.072347 0.3720692,-0.093017 0.6149476,-0.3152252 0.2480461,-0.2222079 0.4030749,-0.7286354 0.1550288,-0.511595 0.1550288,-1.3900916 0,-0.8784967 -0.1550288,-1.3487507 -0.1550288,-0.470254 -0.4340806,-0.733803 -0.2790519,-0.263549 -0.7079649,-0.356566 -0.3203929,-0.07235 -1.2557333,-0.07235 z"
         style="fill:#ed6a5a"
         id="path39248" />
      <path
         d="m 13.722954,-9.6967318 -1.317745,-0.2377109 q 0.222208,-0.7958143 0.764809,-1.1782193 0.542601,-0.382404 1.6123,-0.382404 0.971513,0 1.446935,0.232543 0.475422,0.227376 0.666624,0.583942 0.19637,0.351399 0.19637,1.2970744 l -0.0155,1.6949816 q 0,0.7234677 0.06718,1.0696987 0.07235,0.3410634 0.263549,0.733803 h -1.4366 q -0.05684,-0.1446935 -0.139526,-0.428913 -0.03617,-0.1291907 -0.05168,-0.1705317 -0.37207,0.3617339 -0.795815,0.5426008 -0.423745,0.180867 -0.904335,0.180867 -0.84749,0 -1.338415,-0.4599188 -0.485757,-0.4599188 -0.485757,-1.162716 0,-0.4650864 0.222208,-0.8268203 0.222208,-0.3669015 0.620115,-0.5581037 0.403075,-0.1963698 1.157549,-0.3410634 1.018022,-0.1912022 1.410762,-0.3565662 v -0.1446936 q 0,-0.4185778 -0.206705,-0.5942768 -0.206705,-0.180867 -0.780312,-0.180867 -0.387572,0 -0.604612,0.155029 -0.217041,0.149861 -0.351399,0.5322652 z m 1.943028,1.1782189 q -0.279052,0.093017 -0.883664,0.2222079 -0.604613,0.1291907 -0.790647,0.2532137 -0.28422,0.2015375 -0.28422,0.5115951 0,0.30489 0.227376,0.5270979 0.227375,0.222208 0.578774,0.222208 0.39274,0 0.749306,-0.2583814 0.263549,-0.1963698 0.346231,-0.4805892 0.05684,-0.1860346 0.05684,-0.7079649 z"
         style="fill:#ed6a5a"
         id="path39250" />
      <path
         d="M 23.515607,-5.8830233 H 22.063504 V -8.683877 q 0,-0.8888318 -0.09302,-1.1472131 -0.09302,-0.2635489 -0.30489,-0.4082429 -0.206705,-0.144693 -0.501259,-0.144693 -0.377237,0 -0.67696,0.206705 -0.299722,0.206705 -0.41341,0.5477683 -0.10852,0.3410634 -0.10852,1.260901 v 2.4856284 h -1.452103 v -5.4880197 h 1.348751 v 0.80615 q 0.7183,-0.930173 1.808669,-0.930173 0.480589,0 0.878496,0.175699 0.397908,0.170532 0.599445,0.439249 0.206705,0.268716 0.28422,0.60978 0.08268,0.341063 0.08268,0.9766811 z"
         style="fill:#ed6a5a"
         id="path39252" />
      <path
         d="m 24.98838,-12.115181 v -1.343583 h 1.452103 v 1.343583 z m 0,6.2321577 v -5.4880197 h 1.452103 v 5.4880197 z"
         style="fill:#ed6a5a"
         id="path39254" />
      <path
         d="m 31.10685,-7.6296811 1.446936,0.2428784 q -0.279052,0.7958146 -0.883664,1.2143923 -0.599445,0.4134102 -1.50378,0.4134102 -1.431432,0 -2.118727,-0.9353405 -0.5426,-0.7493058 -0.5426,-1.8913514 0,-1.3642534 0.713132,-2.1342299 0.713133,-0.775144 1.803502,-0.775144 1.224727,0 1.932692,0.811317 0.707965,0.8061502 0.676959,2.4752937 h -3.638009 q 0.0155,0.6459533 0.351399,1.0076872 0.335895,0.3565663 0.837155,0.3565663 0.341064,0 0.573607,-0.1860346 0.232543,-0.1860346 0.351398,-0.5994447 z m 0.08268,-1.467606 q -0.0155,-0.6304505 -0.325561,-0.9560109 -0.310058,-0.330728 -0.754473,-0.330728 -0.475422,0 -0.78548,0.346231 -0.310057,0.3462308 -0.30489,0.9405079 z"
         style="fill:#ed6a5a"
         id="path39256" />
      <path
         d="m 33.814687,-5.8830233 v -7.5757407 h 1.452103 v 7.5757407 z"
         style="fill:#ed6a5a"
         id="path39258" />
      <path
         d="m 39.700615,-13.458764 h 2.795686 q 0.945676,0 1.441768,0.144693 0.666624,0.19637 1.142046,0.69763 0.475421,0.50126 0.723467,1.229895 0.248046,0.723468 0.248046,1.7879991 0,0.9353404 -0.232543,1.6122995 -0.284219,0.8268203 -0.811317,1.3384154 -0.397908,0.387572 -1.074867,0.6046123 -0.506427,0.1601964 -1.353918,0.1601964 h -2.878368 z m 1.529618,1.281571 v 5.0177659 h 1.142045 q 0.640786,0 0.925005,-0.072347 0.372069,-0.093017 0.614948,-0.3152252 0.248046,-0.2222079 0.403075,-0.7286354 0.155029,-0.511595 0.155029,-1.3900916 0,-0.8784967 -0.155029,-1.3487507 -0.155029,-0.470254 -0.434081,-0.733803 -0.279052,-0.263549 -0.707965,-0.356566 -0.320393,-0.07235 -1.255733,-0.07235 z"
         style="fill:#9bc1bc"
         id="path39260" />
      <path
         d="m 48.423567,-9.6967318 -1.317745,-0.2377109 q 0.222208,-0.7958143 0.764809,-1.1782193 0.5426,-0.382404 1.612299,-0.382404 0.971514,0 1.446936,0.232543 0.475421,0.227376 0.666624,0.583942 0.196369,0.351399 0.196369,1.2970744 l -0.0155,1.6949816 q 0,0.7234677 0.06718,1.0696987 0.07235,0.3410634 0.263549,0.733803 h -1.436601 q -0.05684,-0.1446935 -0.139526,-0.428913 -0.03617,-0.1291907 -0.05168,-0.1705317 -0.372069,0.3617339 -0.795814,0.5426008 -0.423746,0.180867 -0.904335,0.180867 -0.847491,0 -1.338415,-0.4599188 -0.485757,-0.4599188 -0.485757,-1.162716 0,-0.4650864 0.222208,-0.8268203 0.222208,-0.3669015 0.620115,-0.5581037 0.403075,-0.1963698 1.157548,-0.3410634 1.018023,-0.1912022 1.410762,-0.3565662 v -0.1446936 q 0,-0.4185778 -0.206705,-0.5942768 -0.206705,-0.180867 -0.780311,-0.180867 -0.387572,0 -0.604613,0.155029 -0.21704,0.149861 -0.351398,0.5322652 z m 1.943027,1.1782189 q -0.279052,0.093017 -0.883664,0.2222079 -0.604612,0.1291907 -0.790647,0.2532137 -0.284219,0.2015375 -0.284219,0.5115951 0,0.30489 0.227375,0.5270979 0.227376,0.222208 0.578775,0.222208 0.392739,0 0.749305,-0.2583814 0.263549,-0.1963698 0.346231,-0.4805892 0.05684,-0.1860346 0.05684,-0.7079649 z"
         style="fill:#9bc1bc"
         id="path39262" />
      <path
         d="m 54.733241,-5.8830233 -2.211744,-5.4880197 h 1.52445 l 1.033525,2.8008538 0.299723,0.9353405 q 0.118855,-0.3565663 0.149861,-0.4702541 0.07235,-0.2325432 0.155028,-0.4650864 l 1.043861,-2.8008538 h 1.493444 l -2.180738,5.4880197 z"
         style="fill:#9bc1bc"
         id="path39264" />
      <path
         d="m 59.110219,-12.115181 v -1.343583 h 1.452104 v 1.343583 z m 0,6.2321577 v -5.4880197 h 1.452104 v 5.4880197 z"
         style="fill:#9bc1bc"
         id="path39266" />
      <path
         d="m 65.22869,-7.6296811 1.446936,0.2428784 q -0.279052,0.7958146 -0.883665,1.2143923 -0.599444,0.4134102 -1.503779,0.4134102 -1.431433,0 -2.118727,-0.9353405 -0.542601,-0.7493058 -0.542601,-1.8913514 0,-1.3642534 0.713133,-2.1342299 0.713132,-0.775144 1.803501,-0.775144 1.224728,0 1.932693,0.811317 0.707965,0.8061502 0.676959,2.4752937 h -3.638009 q 0.0155,0.6459533 0.351398,1.0076872 0.335896,0.3565663 0.837156,0.3565663 0.341063,0 0.573606,-0.1860346 0.232544,-0.1860346 0.351399,-0.5994447 z m 0.08268,-1.467606 q -0.0155,-0.6304505 -0.32556,-0.9560109 -0.310058,-0.330728 -0.754474,-0.330728 -0.475422,0 -0.785479,0.346231 -0.310058,0.3462308 -0.30489,0.9405079 z"
         style="fill:#9bc1bc"
         id="path39268" />
      <path
         d="m 67.42493,-7.4488142 1.457271,-0.2222079 q 0.09302,0.4237454 0.377236,0.6459533 0.28422,0.2170403 0.795815,0.2170403 0.563271,0 0.847491,-0.206705 0.191202,-0.1446936 0.191202,-0.387572 0,-0.1653641 -0.103353,-0.2738843 -0.10852,-0.1033525 -0.485757,-0.1912021 -1.756993,-0.3875721 -2.227247,-0.7079649 -0.651121,-0.4444159 -0.651121,-1.2350628 0,-0.7131324 0.563272,-1.1988894 0.563271,-0.485757 1.746657,-0.485757 1.126543,0 1.674311,0.366902 0.547769,0.366901 0.754474,1.085201 l -1.369421,0.2532139 q -0.08785,-0.3203929 -0.335896,-0.4909249 -0.242878,-0.170531 -0.697629,-0.170531 -0.573607,0 -0.821653,0.160196 -0.165364,0.113688 -0.165364,0.2945548 0,0.1550288 0.144693,0.263549 0.19637,0.1446935 1.353919,0.4082425 1.162716,0.263549 1.622634,0.6459534 0.454752,0.387572 0.454752,1.0800339 0,0.7544736 -0.630451,1.2970744 -0.63045,0.5426008 -1.865513,0.5426008 -1.121375,0 -1.777664,-0.4547512 -0.651121,-0.4547511 -0.852658,-1.2350628 z"
         style="fill:#9bc1bc"
         id="path39270" />
    </g>
    <text
       xml:space="preserve"
       style="font-size:10.5833px;line-height:1.25;font-family:Arial;-inkscape-font-specification:Arial;stroke-width:0.264583"
       x="17.349096"
       y="12.598748"
       id="text42453"><tspan
         sodipodi:role="line"
         id="tspan42451"
         style="stroke-width:0.264583"></tspan></text>
  </g>
  <g
     inkscape:groupmode="layer"
     id="layer4"
     inkscape:label="components" />
  <g
     inkscape:groupmode="layer"
     id="layer3"
     inkscape:label="Rainbow">
    <g
       id="g130949"
       transform="translate(-172.13759,-11.728637)"
       style="display:inline">
      <g
         id="g24791"
         transform="translate(0,11.992817)">
        <rect
           style="display:inline;fill:#f4f1bb;fill-opacity:1;stroke-width:1.09761;stroke-miterlimit:4;stroke-dasharray:none"
           id="rect93213"
           width="3.5"
           height="131.71765"
           x="226.38889"
           y="-100.11375"
           transform="rotate(45)" />
        <rect
           style="display:inline;fill:#9bc1bc;fill-opacity:1;stroke-width:1.09761;stroke-miterlimit:4;stroke-dasharray:none"
           id="rect93233"
           width="3.5"
           height="131.71765"
           x="229.88889"
           y="-100.11375"
           transform="rotate(45)" />
        <rect
           style="display:inline;fill:#ed6a5a;fill-opacity:1;stroke-width:1.09761;stroke-miterlimit:4;stroke-dasharray:none"
           id="rect93109"
           width="3.5"
           height="131.71765"
           x="222.88844"
           y="-100.11375"
           transform="rotate(45)" />
      </g>
    </g>
  </g>
</svg>
